<svg width="120" height="34" viewBox="0 0 120 34" fill="none" xmlns="http://www.w3.org/2000/svg">
<path d="M61.481 5.08128C74.1704 5.08128 96.5644 5.29233 109.346 10.4462M109.346 10.4462C115.701 13.0089 119.722 13.7572 118.892 22.3991C117.098 41.0731 8.66711 31.1475 2.41797 22.3991C-3.83116 13.6507 8.36083 -3.64121 84.0275 2.16865C93.9888 3.41026 109.346 4.55955 109.346 10.4462Z" stroke="black"/>
<path d="M36.696 12.731H37.489V22.169L30.82 14.707V22H30.027V12.653L36.696 20.115V12.731ZM41.5941 21.363C42.4651 21.363 43.0241 20.908 43.3621 20.388L44.0121 20.778C43.6221 21.454 42.8031 22.104 41.5941 22.104C39.9821 22.104 38.8121 20.934 38.8121 19.322C38.8121 17.697 39.9821 16.54 41.5941 16.54C43.4141 16.54 44.3761 17.944 44.3761 19.283C44.3761 19.53 44.3501 19.647 44.2461 19.647H39.5791C39.7091 20.557 40.4241 21.363 41.5941 21.363ZM43.5831 18.945C43.5051 18.243 42.8421 17.281 41.5941 17.281C40.2811 17.281 39.6311 18.295 39.5921 18.945H43.5831ZM47.4719 20.57L49.2659 16.462L51.0599 20.57L52.7889 16.631H53.5039L51.0599 22.195L49.2659 18.126L47.4719 22.195L45.0279 16.631H45.7429L47.4719 20.57ZM60.9784 12.718V19.816C60.9784 21.298 60.4454 22.104 59.2104 22.104C58.3914 22.104 58.0014 21.623 57.7804 21.259L58.3784 20.739C58.5734 21.09 58.7554 21.311 59.1974 21.311C59.7434 21.311 60.1854 21.103 60.1854 19.816V12.718H60.9784ZM67.8751 19.322C67.8751 20.856 66.6271 22.104 65.0931 22.104C63.5591 22.104 62.3111 20.856 62.3111 19.322C62.3111 17.788 63.5591 16.54 65.0931 16.54C66.6271 16.54 67.8751 17.788 67.8751 19.322ZM63.0391 19.335C63.0391 20.466 63.9621 21.389 65.0931 21.389C66.2241 21.389 67.1471 20.466 67.1471 19.335C67.1471 18.204 66.2241 17.281 65.0931 17.281C63.9621 17.281 63.0391 18.204 63.0391 19.335ZM70.0198 16.631V22H69.2788V16.631H70.0198ZM70.0978 15.24C70.0978 15.487 69.8898 15.682 69.6428 15.682C69.3958 15.682 69.1878 15.487 69.1878 15.24C69.1878 14.98 69.3958 14.785 69.6428 14.785C69.8898 14.785 70.0978 14.98 70.0978 15.24ZM71.9082 22V16.631H72.6362V17.385C72.8052 16.982 73.3252 16.579 74.2092 16.579C75.7172 16.579 76.4452 17.515 76.4452 18.75V22.013H75.7042V18.997C75.7042 17.97 75.2492 17.307 74.2092 17.307C73.0652 17.307 72.6362 18.139 72.6362 18.945V22H71.9082ZM80.5433 21.363C81.4143 21.363 81.9733 20.908 82.3113 20.388L82.9613 20.778C82.5713 21.454 81.7523 22.104 80.5433 22.104C78.9313 22.104 77.7613 20.934 77.7613 19.322C77.7613 17.697 78.9313 16.54 80.5433 16.54C82.3633 16.54 83.3253 17.944 83.3253 19.283C83.3253 19.53 83.2993 19.647 83.1953 19.647H78.5283C78.6583 20.557 79.3733 21.363 80.5433 21.363ZM82.5323 18.945C82.4543 18.243 81.7913 17.281 80.5433 17.281C79.2303 17.281 78.5803 18.295 78.5413 18.945H82.5323ZM86.9671 21.363C87.8381 21.363 88.3971 20.908 88.7351 20.388L89.3851 20.778C88.9951 21.454 88.1761 22.104 86.9671 22.104C85.3551 22.104 84.1851 20.934 84.1851 19.322C84.1851 17.697 85.3551 16.54 86.9671 16.54C88.7871 16.54 89.7491 17.944 89.7491 19.283C89.7491 19.53 89.7231 19.647 89.6191 19.647H84.9521C85.0821 20.557 85.7971 21.363 86.9671 21.363ZM88.9561 18.945C88.8781 18.243 88.2151 17.281 86.9671 17.281C85.6541 17.281 85.0041 18.295 84.9651 18.945H88.9561Z" fill="black"/>
</svg>
