<svg width="17" height="17" viewBox="0 0 17 17" fill="none" xmlns="http://www.w3.org/2000/svg">
<g clip-path="url(#clip0_76_6920)">
<path d="M6.11051 12.7524C6.10253 12.8319 6.1094 12.9149 6.13836 12.9971C6.2091 13.1954 6.37508 13.3569 6.57169 13.4178C6.75438 13.4756 6.93614 13.4371 6.99128 13.3772L7.37244 12.9681C7.48272 12.8503 7.51057 12.6618 7.44577 12.4789C7.28629 12.1733 7.0726 12.0631 6.79894 12.0137L6.11051 12.7524Z" fill="#FFBD41"/>
<path d="M5.59972 10.707L4.93357 11.4214C4.79823 11.5686 4.75942 11.795 4.83499 12.0118C4.91519 12.2409 5.10661 12.4273 5.33571 12.4969C5.55256 12.5619 5.77015 12.5114 5.90643 12.3664L6.52319 11.7049C6.65946 11.5581 6.69734 11.3329 6.62177 11.116C6.54157 10.8858 6.34904 10.7001 6.12105 10.6309C5.9391 10.5728 5.7256 10.5705 5.59972 10.707Z" fill="#FFBD41"/>
<path d="M4.2808 9.53166L3.66571 10.1921C3.53018 10.3382 3.4923 10.5652 3.56712 10.7828C3.64733 11.0112 3.83874 11.1976 4.06785 11.2672C4.28432 11.3331 4.50415 11.2817 4.57265 11.2091L5.25551 10.4763C5.39178 10.3291 5.42966 10.1028 5.35409 9.88627C5.27352 9.65643 5.0821 9.47077 4.853 9.40189C4.64228 9.33319 4.40909 9.39428 4.2808 9.53166Z" fill="#FFBD41"/>
<path d="M3.07646 8.22989L2.39472 8.96306C2.25845 9.10991 2.22057 9.33512 2.29614 9.55085C2.3756 9.78182 2.56813 9.96747 2.79723 10.0371C3.01371 10.1017 3.23316 10.0516 3.30093 9.97806L3.98452 9.24526V9.24452C4.1208 9.09952 4.15867 8.87394 4.08311 8.65746C4.00402 8.4265 3.81149 8.24084 3.58239 8.17196C3.40731 8.11162 3.19547 8.10123 3.07646 8.22989Z" fill="#FFBD41"/>
<path d="M11.9283 3.85742C11.4873 4.10398 10.8745 4.14816 10.2776 4.19105C9.82605 4.22187 9.36023 4.25455 9.02548 4.3782L7.16425 5.06495C7.15162 5.06996 7.13881 5.07293 7.12544 5.07479C7.03558 5.0889 6.95241 5.10097 6.87777 5.11137C6.42458 5.17523 6.37222 5.19473 6.32005 5.32896C6.27252 5.45298 6.32469 5.63177 6.45354 5.78364C6.55863 5.9084 6.96986 6.29792 7.81591 6.09759L8.87584 5.9576C9.46939 5.88111 9.94524 6.26802 10.3253 6.5803L13.1757 8.86057L13.1779 8.85946C13.7414 8.62367 14.3285 8.31696 14.8275 7.7158L11.9283 3.85742Z" fill="#FFBD41"/>
<path d="M8.00445 3.71872C7.8355 3.73431 7.64185 3.75566 7.43874 3.77683C6.31532 3.89677 5.69243 3.94392 5.37551 3.88525L2.45898 7.68143C2.5663 7.78299 2.65523 7.88844 2.72689 8.00262C2.97066 7.7531 3.33901 7.66398 3.6977 7.77241C4.04971 7.8786 4.34361 8.16396 4.46652 8.51801C4.51869 8.66784 4.53503 8.82157 4.52166 8.9688C4.66555 8.94856 4.8176 8.95691 4.96724 9.00259C5.31833 9.10804 5.61334 9.39414 5.73532 9.74819C5.78823 9.89728 5.80494 10.0506 5.79231 10.1979C5.9362 10.1776 6.08826 10.1862 6.2379 10.2328C6.58824 10.339 6.88195 10.6243 7.00486 10.9765C7.08209 11.1999 7.08506 11.4297 7.02231 11.6358C7.05814 11.6427 7.0949 11.6514 7.13148 11.6629C7.4458 11.7604 7.71278 12.0186 7.8277 12.337C7.93724 12.6452 7.88971 12.969 7.70981 13.2015L8.22724 13.6153C8.35386 13.7157 8.5384 13.7267 8.7107 13.6431C8.89747 13.5525 9.03857 13.3686 9.08016 13.1627C9.09761 13.0767 9.09185 12.9933 9.07217 12.9161L8.41587 12.3911C8.32768 12.3203 8.31208 12.1898 8.38096 12.0992C8.45059 12.0093 8.57832 11.9926 8.66707 12.0634L9.45612 12.6957C9.53447 12.7585 9.75893 12.7752 9.96483 12.6783C10.1813 12.5749 10.3449 12.3617 10.3902 12.1239C10.4336 11.8991 10.364 11.6811 10.2092 11.5563L9.49548 10.9852C9.40655 10.9145 9.39095 10.7836 9.46057 10.6941C9.52945 10.6032 9.65793 10.5864 9.74593 10.6583L10.7834 11.488C10.9394 11.612 11.1634 11.6291 11.3705 11.5326C11.5851 11.4299 11.7486 11.2171 11.7951 10.9767C11.8385 10.7519 11.7689 10.5346 11.6124 10.4088L10.5745 9.58017C10.4856 9.50869 10.47 9.37817 10.5396 9.28683C10.6092 9.19734 10.737 9.18175 10.8261 9.2523C10.8261 9.2523 12.402 10.5124 12.4031 10.5124C12.4814 10.574 12.7048 10.5915 12.9098 10.4934C13.1266 10.3922 13.2891 10.1795 13.3362 9.93979C13.3789 9.71459 13.3093 9.49588 13.1535 9.37223L10.0692 6.90389C9.7153 6.61371 9.34974 6.31312 8.92513 6.37012L7.88655 6.50565C7.18643 6.67386 6.52604 6.50751 6.14414 6.05598C5.91392 5.78399 5.83557 5.44758 5.93899 5.17707C6.08399 4.80185 6.36173 4.76305 6.82013 4.69844C6.88863 4.68972 6.96234 4.67895 7.04347 4.66614L8.88559 3.98662C9.00534 3.94207 9.1379 3.91125 9.2751 3.88395C8.80148 3.70071 8.4582 3.68975 8.00445 3.71872Z" fill="#FFBD41"/>
<path d="M4.00167 2.9993C3.66618 2.97386 3.35984 3.22673 2.9189 3.80098L1.79121 5.26991C1.38331 5.79978 1.23052 6.12933 1.26431 6.40856C1.29141 6.63804 1.45108 6.86324 1.60945 6.99023L2.14433 7.41744L5.04897 3.63685L4.67301 3.3359C4.41457 3.12982 4.20292 3.01489 4.00167 2.9993Z" fill="#FFBD41"/>
<path d="M13.317 2.99538C13.1158 3.00801 12.9022 3.12052 12.6418 3.32363L12.2617 3.61846L15.1261 7.42986L15.4963 7.1419C15.8165 6.89349 15.9799 6.67126 16.0098 6.44197C16.0468 6.16348 15.8988 5.83133 15.4974 5.29459L14.3881 3.81154C13.9559 3.23136 13.6534 2.97385 13.317 2.99538Z" fill="#FFBD41"/>
</g>
<defs>
<clipPath id="clip0_76_6920">
<rect width="16.7093" height="16.7093" fill="white" transform="translate(0.271484 -0.000488281)"/>
</clipPath>
</defs>
</svg>
