<svg width="99" height="176" viewBox="0 0 99 176" fill="none" xmlns="http://www.w3.org/2000/svg">
<path d="M0.755859 2L4.69893 6.21729L6.37967 0.693849L0.755859 2ZM56.4521 36.6655L56.952 36.6584L56.9515 36.6179L56.9444 36.578L56.4521 36.6655ZM68.3443 119.222L67.914 119.476L67.9444 119.528L67.986 119.57L68.3443 119.222ZM94.0512 121.068L94.3952 121.431L94.4359 121.392L94.467 121.346L94.0512 121.068ZM85.0075 103.194L85.0367 102.694L85.0092 102.693L84.9816 102.694L85.0075 103.194ZM78.9338 140.438L78.4909 140.67L78.512 140.71L78.54 140.746L78.9338 140.438ZM8.9426 4.80147C10.6724 5.25488 12.5403 5.74892 14.5015 6.29593L14.7701 5.3327C12.8011 4.78351 10.9272 4.28788 9.19615 3.83415L8.9426 4.80147ZM20.0209 7.92003C21.8083 8.47761 23.6327 9.08158 25.4655 9.73937L25.8033 8.79816C23.9552 8.13488 22.1173 7.52647 20.3187 6.9654L20.0209 7.92003ZM30.8127 11.8191C32.5726 12.5624 34.3136 13.3623 36.0098 14.2255L36.4633 13.3343C34.7433 12.459 32.9807 11.6492 31.2018 10.8979L30.8127 11.8191ZM40.9843 17.0399C42.6146 18.0693 44.1685 19.1723 45.6181 20.3559L46.2506 19.5814C44.7658 18.369 43.1784 17.2426 41.5182 16.1943L40.9843 17.0399ZM49.7301 24.2716C50.9957 25.6957 52.1144 27.2158 53.0552 28.8402L53.9205 28.339C52.943 26.6511 51.7835 25.0768 50.4776 23.6073L49.7301 24.2716ZM55.3033 34.0046C55.5719 34.8934 55.7919 35.8092 55.9598 36.7531L56.9444 36.578C56.7696 35.5955 56.5404 34.6416 56.2606 33.7154L55.3033 34.0046ZM55.9521 36.6727C55.9657 37.6202 55.9842 38.6169 56.0079 39.6579L57.0076 39.6352C56.984 38.5969 56.9655 37.603 56.952 36.6584L55.9521 36.6727ZM56.1881 45.6718C56.2582 47.5829 56.3433 49.5863 56.4448 51.6613L57.4436 51.6125C57.3424 49.5416 57.2574 47.5422 57.1874 45.6351L56.1881 45.6718ZM56.7733 57.654C56.8923 59.6138 57.0254 61.6155 57.1733 63.6442L58.1707 63.5714C58.023 61.547 57.8902 59.5493 57.7714 57.5933L56.7733 57.654ZM57.6485 69.6295C57.8193 71.6152 58.0048 73.6126 58.2056 75.6085L59.2006 75.5084C59.0002 73.5176 58.8153 71.525 58.6448 69.5438L57.6485 69.6295ZM58.8553 81.579C59.0908 83.585 59.343 85.576 59.6128 87.5383L60.6035 87.4022C60.3347 85.4468 60.0833 83.4624 59.8484 81.4624L58.8553 81.579ZM60.5008 93.4822C60.83 95.5102 61.1805 97.4893 61.5533 99.4026L62.5349 99.2113C62.1643 97.3095 61.8156 95.3408 61.4879 93.322L60.5008 93.4822ZM62.8241 105.28C63.3207 107.345 63.8504 109.295 64.4149 111.102L65.3694 110.804C64.8127 109.022 64.2888 107.094 63.7964 105.046L62.8241 105.28ZM66.5261 116.774C66.9695 117.757 67.4318 118.661 67.914 119.476L68.7747 118.967C68.3145 118.189 67.8688 117.319 67.4376 116.363L66.5261 116.774ZM67.986 119.57C68.7369 120.342 69.6775 121.171 70.7696 121.975L71.3623 121.169C70.3125 120.397 69.4137 119.604 68.7027 118.873L67.986 119.57ZM77.2643 125.382C79.5255 126.133 82.0076 126.518 84.5765 126.239L84.4684 125.245C82.068 125.506 79.7315 125.147 77.5794 124.433L77.2643 125.382ZM91.5048 123.724C92.4789 123.092 93.4446 122.332 94.3952 121.431L93.7071 120.705C92.7985 121.567 91.8807 122.288 90.9606 122.885L91.5048 123.724ZM94.467 121.346C95.0462 120.478 95.617 119.474 96.1111 118.391L95.2013 117.976C94.7304 119.008 94.1862 119.965 93.6354 120.79L94.467 121.346ZM97.6324 111.782C97.5596 109.513 96.7305 107.321 94.6639 105.652L94.0355 106.43C95.8391 107.887 96.5679 109.785 96.6329 111.814L97.6324 111.782ZM88.3888 103.08C87.3725 102.896 86.2576 102.766 85.0367 102.694L84.9783 103.693C86.1641 103.762 87.2389 103.888 88.2113 104.064L88.3888 103.08ZM84.9816 102.694C84.0497 102.743 83.0639 102.883 82.0661 103.134L82.3096 104.104C83.2431 103.87 84.1646 103.738 85.0334 103.693L84.9816 102.694ZM76.764 105.684C75.3031 106.824 74.0115 108.33 73.0688 110.271L73.9683 110.708C74.841 108.911 76.0324 107.523 77.3791 106.472L76.764 105.684ZM71.5545 115.938C71.3926 117.671 71.436 119.6 71.7281 121.744L72.7189 121.609C72.4358 119.531 72.3962 117.679 72.5502 116.031L71.5545 115.938ZM72.9535 127.394C73.448 129.102 74.0752 130.919 74.8492 132.848L75.7773 132.476C75.0144 130.574 74.3985 128.789 73.9141 127.116L72.9535 127.394ZM77.1924 138.105C77.6003 138.941 78.0329 139.796 78.4909 140.67L79.3766 140.206C78.9229 139.34 78.4948 138.494 78.0913 137.666L77.1924 138.105ZM78.54 140.746C79.114 141.48 79.7519 142.283 80.4454 143.143L81.2239 142.515C80.5332 141.659 79.8983 140.859 79.3276 140.13L78.54 140.746ZM84.3564 147.882C85.6104 149.369 86.9533 150.932 88.3582 152.531L89.1094 151.871C87.7093 150.278 86.3708 148.72 85.1209 147.237L84.3564 147.882ZM92.4593 157.099C93.8388 158.601 95.2498 160.101 96.6713 161.567L97.3894 160.871C95.9748 159.412 94.5699 157.918 93.1958 156.422L92.4593 157.099ZM101.022 165.908C102.556 167.382 104.077 168.78 105.561 170.063L106.215 169.306C104.747 168.037 103.238 166.651 101.715 165.187L101.022 165.908ZM110.396 173.903C111.29 174.539 112.157 175.107 112.99 175.597L113.497 174.735C112.694 174.263 111.851 173.71 110.976 173.088L110.396 173.903Z" fill="black"/>
</svg>
