<svg width="660" height="437" viewBox="0 0 660 437" fill="none" xmlns="http://www.w3.org/2000/svg">
<mask id="mask0_2304_10" style="mask-type:luminance" maskUnits="userSpaceOnUse" x="270" y="79" width="262" height="217">
<path d="M320.27 79.8391L270.312 253.955L481.881 295.068L531.838 120.953L320.27 79.8391Z" fill="white"/>
</mask>
<g mask="url(#mask0_2304_10)">
<path d="M338.741 201.663C338.972 200.859 338.367 200.053 337.39 199.863C336.413 199.673 335.434 200.171 335.203 200.975C334.972 201.779 335.577 202.585 336.554 202.775C337.531 202.965 338.51 202.467 338.741 201.663Z" fill="#EAC435"/>
</g>
<mask id="mask1_2304_10" style="mask-type:luminance" maskUnits="userSpaceOnUse" x="259" y="160" width="218" height="179">
<path d="M476.793 160.015H259.398V338.925H476.793V160.015Z" fill="white"/>
</mask>
<g mask="url(#mask1_2304_10)">
<path d="M292.306 177.986C293.31 177.986 294.124 177.317 294.124 176.491C294.124 175.664 293.31 174.995 292.306 174.995C291.302 174.995 290.488 175.664 290.488 176.491C290.488 177.317 291.302 177.986 292.306 177.986Z" fill="#EAC435"/>
</g>
<mask id="mask2_2304_10" style="mask-type:luminance" maskUnits="userSpaceOnUse" x="259" y="160" width="218" height="179">
<path d="M476.793 160.015H259.398V338.925H476.793V160.015Z" fill="white"/>
</mask>
<g mask="url(#mask2_2304_10)">
<path d="M261.216 224.075C262.22 224.075 263.034 223.406 263.034 222.579C263.034 221.753 262.22 221.083 261.216 221.083C260.212 221.083 259.398 221.753 259.398 222.579C259.398 223.406 260.212 224.075 261.216 224.075Z" fill="#EAC435"/>
</g>
<mask id="mask3_2304_10" style="mask-type:luminance" maskUnits="userSpaceOnUse" x="349" y="100" width="250" height="206">
<path d="M384.049 100.202L349.223 276.805L563.813 305.466L598.639 128.864L384.049 100.202Z" fill="white"/>
</mask>
<g mask="url(#mask3_2304_10)">
<path d="M389.509 175.21C389.669 174.395 388.996 173.626 388.006 173.494C387.015 173.362 386.081 173.915 385.92 174.731C385.759 175.546 386.432 176.315 387.423 176.447C388.414 176.58 389.348 176.026 389.509 175.21Z" fill="#EAC435"/>
</g>
<mask id="mask4_2304_10" style="mask-type:luminance" maskUnits="userSpaceOnUse" x="244" y="164" width="285" height="235">
<path d="M445.695 164.847L244.844 233.316L328.041 398.612L528.891 330.143L445.695 164.847Z" fill="white"/>
</mask>
<g mask="url(#mask4_2304_10)">
<path d="M476.715 228.171C477.643 227.854 478.083 226.979 477.699 226.216C477.315 225.453 476.251 225.09 475.324 225.407C474.396 225.723 473.956 226.598 474.34 227.361C474.724 228.124 475.788 228.487 476.715 228.171Z" fill="#EAC435"/>
</g>
<mask id="mask5_2304_10" style="mask-type:luminance" maskUnits="userSpaceOnUse" x="262" y="154" width="308" height="254">
<path d="M416.122 154.122L262.402 280.629L416.122 407.137L569.842 280.629L416.122 154.122Z" fill="white"/>
</mask>
<g mask="url(#mask5_2304_10)">
<path d="M439.098 218.406C439.808 217.822 439.808 216.875 439.098 216.29C438.388 215.706 437.237 215.706 436.527 216.29C435.818 216.875 435.818 217.822 436.527 218.406C437.237 218.99 438.388 218.99 439.098 218.406Z" fill="#EAC435"/>
</g>
<mask id="mask6_2304_10" style="mask-type:luminance" maskUnits="userSpaceOnUse" x="282" y="203" width="263" height="216">
<path d="M332.871 203.037L282.914 377.152L494.482 418.266L544.44 244.15L332.871 203.037Z" fill="white"/>
</mask>
<g mask="url(#mask6_2304_10)">
<path d="M439.624 256.712C439.854 255.908 439.249 255.102 438.272 254.912C437.295 254.722 436.316 255.22 436.086 256.024C435.855 256.828 436.46 257.634 437.437 257.824C438.414 258.014 439.393 257.516 439.624 256.712Z" fill="#EAC435"/>
</g>
<mask id="mask7_2304_10" style="mask-type:luminance" maskUnits="userSpaceOnUse" x="201" y="136" width="285" height="235">
<path d="M402.183 136.862L201.332 205.331L284.529 370.626L485.38 302.157L402.183 136.862Z" fill="white"/>
</mask>
<g mask="url(#mask7_2304_10)">
<path d="M369.481 304.192C370.408 303.876 370.849 303.001 370.465 302.238C370.08 301.474 369.017 301.112 368.09 301.428C367.162 301.744 366.722 302.619 367.106 303.383C367.49 304.146 368.553 304.508 369.481 304.192Z" fill="#EAC435"/>
</g>
<mask id="mask8_2304_10" style="mask-type:luminance" maskUnits="userSpaceOnUse" x="259" y="160" width="218" height="179">
<path d="M476.793 160.015H259.398V338.925H476.793V160.015Z" fill="white"/>
</mask>
<g mask="url(#mask8_2304_10)">
<path d="M351.544 251.329C352.548 251.329 353.362 250.659 353.362 249.833C353.362 249.007 352.548 248.337 351.544 248.337C350.54 248.337 349.727 249.007 349.727 249.833C349.727 250.659 350.54 251.329 351.544 251.329Z" fill="#EAC435"/>
</g>
<mask id="mask9_2304_10" style="mask-type:luminance" maskUnits="userSpaceOnUse" x="172" y="85" width="308" height="254">
<path d="M325.747 85.7196L172.027 212.227L325.747 338.735L479.467 212.227L325.747 85.7196Z" fill="white"/>
</mask>
<g mask="url(#mask9_2304_10)">
<path d="M293.582 273.986C294.292 273.402 294.292 272.455 293.582 271.871C292.873 271.287 291.722 271.287 291.012 271.871C290.302 272.455 290.302 273.402 291.012 273.986C291.722 274.571 292.873 274.571 293.582 273.986Z" fill="#EAC435"/>
</g>
<mask id="mask10_2304_10" style="mask-type:luminance" maskUnits="userSpaceOnUse" x="198" y="158" width="285" height="235">
<path d="M399.655 158.7L198.805 227.169L282.002 392.464L482.852 323.995L399.655 158.7Z" fill="white"/>
</mask>
<g mask="url(#mask10_2304_10)">
<path d="M434.918 320.333C435.846 320.017 436.286 319.142 435.902 318.379C435.518 317.615 434.454 317.253 433.527 317.569C432.6 317.885 432.159 318.76 432.543 319.524C432.927 320.287 433.991 320.649 434.918 320.333Z" fill="#EAC435"/>
</g>
<mask id="mask11_2304_10" style="mask-type:luminance" maskUnits="userSpaceOnUse" x="105" y="160" width="262" height="216">
<path d="M155.313 160.664L105.355 334.78L316.924 375.893L366.881 201.778L155.313 160.664Z" fill="white"/>
</mask>
<g mask="url(#mask11_2304_10)">
<path d="M318.303 327.844C318.534 327.04 317.929 326.235 316.952 326.045C315.975 325.855 314.996 326.353 314.765 327.157C314.535 327.961 315.14 328.767 316.117 328.957C317.094 329.146 318.073 328.649 318.303 327.844Z" fill="#EAC435"/>
</g>
<mask id="mask12_2304_10" style="mask-type:luminance" maskUnits="userSpaceOnUse" x="259" y="160" width="218" height="179">
<path d="M476.793 160.015H259.398V338.925H476.793V160.015Z" fill="white"/>
</mask>
<g mask="url(#mask12_2304_10)">
<path d="M337.149 232.819C337.149 233.069 336.902 233.272 336.598 233.272C336.294 233.272 336.047 233.069 336.047 232.819C336.047 232.568 336.293 232.365 336.598 232.365C336.902 232.365 337.149 232.568 337.149 232.819Z" fill="#EAC435"/>
</g>
<mask id="mask13_2304_10" style="mask-type:luminance" maskUnits="userSpaceOnUse" x="259" y="160" width="218" height="179">
<path d="M476.793 160.015H259.398V338.925H476.793V160.015Z" fill="white"/>
</mask>
<g mask="url(#mask13_2304_10)">
<path d="M312.879 243.78C312.879 244.03 312.633 244.234 312.328 244.234C312.024 244.234 311.777 244.031 311.777 243.78C311.777 243.53 312.024 243.327 312.328 243.327C312.633 243.327 312.879 243.53 312.879 243.78Z" fill="#EAC435"/>
</g>
<mask id="mask14_2304_10" style="mask-type:luminance" maskUnits="userSpaceOnUse" x="259" y="160" width="218" height="179">
<path d="M476.793 160.015H259.398V338.925H476.793V160.015Z" fill="white"/>
</mask>
<g mask="url(#mask14_2304_10)">
<path d="M447.657 236.601C447.411 236.454 447.356 236.17 447.535 235.967C447.713 235.765 448.058 235.72 448.304 235.867C448.551 236.014 448.605 236.297 448.426 236.5C448.248 236.703 447.903 236.748 447.657 236.601Z" fill="#EAC435"/>
</g>
<mask id="mask15_2304_10" style="mask-type:luminance" maskUnits="userSpaceOnUse" x="259" y="160" width="218" height="179">
<path d="M476.793 160.015H259.398V338.925H476.793V160.015Z" fill="white"/>
</mask>
<g mask="url(#mask15_2304_10)">
<path d="M427.622 195.841C427.376 195.694 427.321 195.411 427.5 195.208C427.678 195.005 428.023 194.96 428.269 195.108C428.515 195.255 428.57 195.538 428.391 195.741C428.213 195.943 427.868 195.988 427.622 195.841Z" fill="#EAC435"/>
</g>
<mask id="mask16_2304_10" style="mask-type:luminance" maskUnits="userSpaceOnUse" x="259" y="160" width="218" height="179">
<path d="M476.793 160.015H259.398V338.925H476.793V160.015Z" fill="white"/>
</mask>
<g mask="url(#mask16_2304_10)">
<path d="M354.7 231.192C354.7 231.442 354.453 231.645 354.149 231.645C353.844 231.645 353.598 231.442 353.598 231.192C353.598 230.941 353.844 230.738 354.149 230.738C354.453 230.738 354.7 230.941 354.7 231.192Z" fill="#345995"/>
</g>
<mask id="mask17_2304_10" style="mask-type:luminance" maskUnits="userSpaceOnUse" x="259" y="160" width="218" height="179">
<path d="M476.793 160.015H259.398V338.925H476.793V160.015Z" fill="white"/>
</mask>
<g mask="url(#mask17_2304_10)">
<path d="M414.981 225.759C414.981 226.009 414.734 226.213 414.43 226.213C414.126 226.213 413.879 226.01 413.879 225.759C413.879 225.509 414.126 225.306 414.43 225.306C414.734 225.306 414.981 225.509 414.981 225.759Z" fill="#345995"/>
</g>
<mask id="mask18_2304_10" style="mask-type:luminance" maskUnits="userSpaceOnUse" x="259" y="160" width="218" height="179">
<path d="M476.793 160.015H259.398V338.925H476.793V160.015Z" fill="white"/>
</mask>
<g mask="url(#mask18_2304_10)">
<path d="M470.071 189.661C469.825 189.514 469.77 189.231 469.949 189.028C470.128 188.825 470.472 188.78 470.718 188.927C470.964 189.074 471.019 189.358 470.841 189.56C470.662 189.763 470.317 189.808 470.071 189.661Z" fill="#EAC435"/>
</g>
<mask id="mask19_2304_10" style="mask-type:luminance" maskUnits="userSpaceOnUse" x="259" y="160" width="218" height="179">
<path d="M476.793 160.015H259.398V338.925H476.793V160.015Z" fill="white"/>
</mask>
<g mask="url(#mask19_2304_10)">
<path d="M444.696 166.045C444.45 165.898 444.395 165.614 444.574 165.412C444.753 165.209 445.097 165.164 445.343 165.311C445.59 165.458 445.644 165.742 445.466 165.944C445.287 166.147 444.942 166.192 444.696 166.045Z" fill="#EAC435"/>
</g>
<mask id="mask20_2304_10" style="mask-type:luminance" maskUnits="userSpaceOnUse" x="259" y="160" width="218" height="179">
<path d="M476.793 160.015H259.398V338.925H476.793V160.015Z" fill="white"/>
</mask>
<g mask="url(#mask20_2304_10)">
<path d="M270.622 329.992C270.376 329.845 270.321 329.562 270.5 329.359C270.678 329.156 271.023 329.111 271.269 329.258C271.515 329.405 271.57 329.689 271.391 329.892C271.213 330.094 270.868 330.139 270.622 329.992Z" fill="#EAC435"/>
</g>
<mask id="mask21_2304_10" style="mask-type:luminance" maskUnits="userSpaceOnUse" x="259" y="160" width="218" height="179">
<path d="M476.793 160.015H259.398V338.925H476.793V160.015Z" fill="white"/>
</mask>
<g mask="url(#mask21_2304_10)">
<path d="M352.798 336.009C352.552 335.862 352.497 335.579 352.675 335.376C352.854 335.173 353.199 335.128 353.445 335.275C353.691 335.422 353.746 335.706 353.567 335.909C353.388 336.111 353.044 336.157 352.798 336.009Z" fill="#EAC435"/>
</g>
<mask id="mask22_2304_10" style="mask-type:luminance" maskUnits="userSpaceOnUse" x="259" y="160" width="218" height="179">
<path d="M476.793 160.015H259.398V338.925H476.793V160.015Z" fill="white"/>
</mask>
<g mask="url(#mask22_2304_10)">
<path d="M384.845 314.123C384.639 313.939 384.653 313.653 384.876 313.483C385.1 313.313 385.448 313.324 385.655 313.508C385.861 313.692 385.847 313.979 385.624 314.149C385.4 314.319 385.052 314.307 384.845 314.123Z" fill="#EAC435"/>
</g>
<mask id="mask23_2304_10" style="mask-type:luminance" maskUnits="userSpaceOnUse" x="259" y="160" width="218" height="179">
<path d="M476.793 160.015H259.398V338.925H476.793V160.015Z" fill="white"/>
</mask>
<g mask="url(#mask23_2304_10)">
<path d="M468.408 312.334C468.201 312.15 468.215 311.864 468.439 311.694C468.662 311.524 469.011 311.535 469.217 311.719C469.424 311.903 469.41 312.19 469.186 312.36C468.963 312.53 468.614 312.518 468.408 312.334Z" fill="#EAC435"/>
</g>
<mask id="mask24_2304_10" style="mask-type:luminance" maskUnits="userSpaceOnUse" x="213" y="107" width="251" height="206">
<path d="M248.627 107.042L213.801 283.644L428.391 312.305L463.218 135.703L248.627 107.042Z" fill="white"/>
</mask>
<g mask="url(#mask24_2304_10)">
<path d="M348.704 247.135C348.865 246.319 348.192 245.551 347.201 245.419C346.21 245.286 345.276 245.84 345.115 246.656C344.955 247.471 345.628 248.24 346.618 248.372C347.609 248.504 348.543 247.951 348.704 247.135Z" fill="#03CEA4"/>
</g>
<mask id="mask25_2304_10" style="mask-type:luminance" maskUnits="userSpaceOnUse" x="244" y="96" width="274" height="226">
<path d="M451.087 96.3679L244.215 151.383L311.064 321.634L517.936 266.619L451.087 96.3679Z" fill="white"/>
</mask>
<g mask="url(#mask25_2304_10)">
<path d="M289.383 246.856C290.338 246.602 290.862 245.758 290.554 244.972C290.245 244.186 289.22 243.755 288.265 244.009C287.31 244.263 286.785 245.106 287.094 245.892C287.403 246.678 288.427 247.11 289.383 246.856Z" fill="#03CEA4"/>
</g>
<mask id="mask26_2304_10" style="mask-type:luminance" maskUnits="userSpaceOnUse" x="281" y="144" width="218" height="180">
<path d="M498.906 144.651H281.512V323.562H498.906V144.651Z" fill="white"/>
</mask>
<g mask="url(#mask26_2304_10)">
<path d="M364.993 301.401C365.45 300.665 366.545 300.374 367.439 300.75C368.333 301.127 368.686 302.028 368.229 302.763C367.772 303.499 366.677 303.79 365.783 303.414C364.89 303.038 364.536 302.136 364.993 301.401Z" fill="#03CEA4"/>
</g>
<mask id="mask27_2304_10" style="mask-type:luminance" maskUnits="userSpaceOnUse" x="172" y="83" width="308" height="254">
<path d="M325.821 83.5379L172.102 210.045L325.821 336.553L479.541 210.045L325.821 83.5379Z" fill="white"/>
</mask>
<g mask="url(#mask27_2304_10)">
<path d="M324.004 287.101C324.714 286.517 324.714 285.57 324.004 284.986C323.294 284.402 322.144 284.402 321.434 284.986C320.724 285.57 320.724 286.517 321.434 287.101C322.144 287.685 323.294 287.685 324.004 287.101Z" fill="#03CEA4"/>
</g>
<mask id="mask28_2304_10" style="mask-type:luminance" maskUnits="userSpaceOnUse" x="202" y="146" width="308" height="254">
<path d="M355.946 146.14L202.227 272.648L355.946 399.155L509.666 272.648L355.946 146.14Z" fill="white"/>
</mask>
<g mask="url(#mask28_2304_10)">
<path d="M430.887 288.467C431.597 287.883 431.597 286.936 430.887 286.352C430.177 285.768 429.026 285.768 428.317 286.352C427.607 286.936 427.607 287.883 428.317 288.467C429.026 289.052 430.177 289.052 430.887 288.467Z" fill="#03CEA4"/>
</g>
<mask id="mask29_2304_10" style="mask-type:luminance" maskUnits="userSpaceOnUse" x="302" y="135" width="251" height="206">
<path d="M337.709 135.246L302.883 311.848L517.473 340.51L552.3 163.907L337.709 135.246Z" fill="white"/>
</mask>
<g mask="url(#mask29_2304_10)">
<path d="M413.384 218.155C413.544 217.34 412.871 216.571 411.881 216.439C410.89 216.306 409.956 216.86 409.795 217.676C409.634 218.491 410.307 219.26 411.298 219.392C412.289 219.524 413.223 218.971 413.384 218.155Z" fill="#03CEA4"/>
</g>
<mask id="mask30_2304_10" style="mask-type:luminance" maskUnits="userSpaceOnUse" x="383" y="162" width="263" height="216">
<path d="M433.844 162.688L383.887 336.803L595.455 377.917L645.412 203.801L433.844 162.688Z" fill="white"/>
</mask>
<g mask="url(#mask30_2304_10)">
<path d="M481.983 187.855C482.214 187.051 481.609 186.246 480.632 186.056C479.655 185.866 478.676 186.364 478.445 187.168C478.214 187.972 478.819 188.777 479.796 188.967C480.773 189.157 481.752 188.659 481.983 187.855Z" fill="#03CEA4"/>
</g>
<mask id="mask31_2304_10" style="mask-type:luminance" maskUnits="userSpaceOnUse" x="397" y="109" width="263" height="216">
<path d="M447.543 109.56L397.586 283.675L609.154 324.789L659.112 150.673L447.543 109.56Z" fill="white"/>
</mask>
<g mask="url(#mask31_2304_10)">
<path d="M448.045 154.162C448.276 153.358 447.671 152.552 446.694 152.362C445.717 152.172 444.738 152.67 444.508 153.474C444.277 154.278 444.882 155.084 445.859 155.274C446.836 155.464 447.815 154.966 448.045 154.162Z" fill="#03CEA4"/>
</g>
<mask id="mask32_2304_10" style="mask-type:luminance" maskUnits="userSpaceOnUse" x="344" y="202" width="262" height="216">
<path d="M394.395 202.424L344.438 376.54L556.006 417.653L605.963 243.538L394.395 202.424Z" fill="white"/>
</mask>
<g mask="url(#mask32_2304_10)">
<path d="M492.76 228.226C492.991 227.422 492.386 226.616 491.409 226.426C490.432 226.236 489.453 226.734 489.222 227.538C488.992 228.342 489.597 229.148 490.574 229.338C491.551 229.528 492.53 229.03 492.76 228.226Z" fill="#03CEA4"/>
</g>
<mask id="mask33_2304_10" style="mask-type:luminance" maskUnits="userSpaceOnUse" x="276" y="111" width="285" height="235">
<path d="M477.519 111.571L276.668 180.04L359.865 345.335L560.716 276.866L477.519 111.571Z" fill="white"/>
</mask>
<g mask="url(#mask33_2304_10)">
<path d="M387.883 173.737C388.811 173.421 389.251 172.546 388.867 171.783C388.483 171.019 387.419 170.657 386.492 170.973C385.564 171.289 385.124 172.164 385.508 172.927C385.892 173.691 386.956 174.053 387.883 173.737Z" fill="#03CEA4"/>
</g>
<mask id="mask34_2304_10" style="mask-type:luminance" maskUnits="userSpaceOnUse" x="253" y="48" width="250" height="206">
<path d="M287.897 48.1935L253.07 224.796L467.66 253.457L502.487 76.855L287.897 48.1935Z" fill="white"/>
</mask>
<g mask="url(#mask34_2304_10)">
<path d="M326.317 198.718C326.478 197.902 325.805 197.134 324.814 197.002C323.823 196.869 322.89 197.423 322.729 198.239C322.568 199.054 323.241 199.823 324.232 199.955C325.223 200.087 326.156 199.534 326.317 198.718Z" fill="#03CEA4"/>
</g>
<mask id="mask35_2304_10" style="mask-type:luminance" maskUnits="userSpaceOnUse" x="285" y="92" width="285" height="234">
<path d="M486.007 92.0403L285.156 160.509L368.353 325.804L569.204 257.336L486.007 92.0403Z" fill="white"/>
</mask>
<g mask="url(#mask35_2304_10)">
<path d="M332.465 146.416C333.393 146.1 333.833 145.225 333.449 144.462C333.065 143.698 332.001 143.336 331.074 143.652C330.146 143.968 329.706 144.843 330.09 145.607C330.474 146.37 331.538 146.732 332.465 146.416Z" fill="#03CEA4"/>
</g>
<mask id="mask36_2304_10" style="mask-type:luminance" maskUnits="userSpaceOnUse" x="281" y="144" width="218" height="180">
<path d="M498.906 144.651H281.512V323.562H498.906V144.651Z" fill="white"/>
</mask>
<g mask="url(#mask36_2304_10)">
<path d="M412.188 266.931C412.188 267.181 411.941 267.384 411.637 267.384C411.333 267.384 411.086 267.181 411.086 266.931C411.086 266.681 411.333 266.478 411.637 266.478C411.941 266.478 412.188 266.681 412.188 266.931Z" fill="#03CEA4"/>
</g>
<mask id="mask37_2304_10" style="mask-type:luminance" maskUnits="userSpaceOnUse" x="281" y="144" width="218" height="180">
<path d="M498.906 144.651H281.512V323.562H498.906V144.651Z" fill="white"/>
</mask>
<g mask="url(#mask37_2304_10)">
<path d="M462.891 255.578C462.891 255.829 462.644 256.032 462.34 256.032C462.036 256.032 461.789 255.829 461.789 255.578C461.789 255.328 462.036 255.125 462.34 255.125C462.644 255.125 462.891 255.328 462.891 255.578Z" fill="#03CEA4"/>
</g>
<mask id="mask38_2304_10" style="mask-type:luminance" maskUnits="userSpaceOnUse" x="281" y="144" width="218" height="180">
<path d="M498.906 144.651H281.512V323.562H498.906V144.651Z" fill="white"/>
</mask>
<g mask="url(#mask38_2304_10)">
<path d="M428.703 313.155C428.703 313.405 428.457 313.609 428.153 313.609C427.848 313.609 427.602 313.406 427.602 313.155C427.602 312.905 427.848 312.702 428.153 312.702C428.457 312.702 428.703 312.905 428.703 313.155Z" fill="#03CEA4"/>
</g>
<mask id="mask39_2304_10" style="mask-type:luminance" maskUnits="userSpaceOnUse" x="281" y="144" width="218" height="180">
<path d="M498.906 144.651H281.512V323.562H498.906V144.651Z" fill="white"/>
</mask>
<g mask="url(#mask39_2304_10)">
<path d="M363.125 273.209C363.125 273.459 362.879 273.662 362.574 273.662C362.27 273.662 362.023 273.459 362.023 273.209C362.023 272.958 362.27 272.755 362.574 272.755C362.879 272.755 363.125 272.958 363.125 273.209Z" fill="#03CEA4"/>
</g>
<mask id="mask40_2304_10" style="mask-type:luminance" maskUnits="userSpaceOnUse" x="281" y="144" width="218" height="180">
<path d="M498.906 144.651H281.512V323.562H498.906V144.651Z" fill="white"/>
</mask>
<g mask="url(#mask40_2304_10)">
<path d="M300.207 269.696C300.207 269.946 299.961 270.15 299.656 270.15C299.352 270.15 299.105 269.947 299.105 269.696C299.105 269.446 299.352 269.243 299.656 269.243C299.961 269.243 300.207 269.446 300.207 269.696Z" fill="#03CEA4"/>
</g>
<mask id="mask41_2304_10" style="mask-type:luminance" maskUnits="userSpaceOnUse" x="281" y="144" width="218" height="180">
<path d="M498.906 144.651H281.512V323.562H498.906V144.651Z" fill="white"/>
</mask>
<g mask="url(#mask41_2304_10)">
<path d="M310.133 185.966C310.133 186.216 309.887 186.419 309.582 186.419C309.278 186.419 309.031 186.216 309.031 185.966C309.031 185.715 309.278 185.512 309.582 185.512C309.887 185.512 310.133 185.715 310.133 185.966Z" fill="#03CEA4"/>
</g>
<mask id="mask42_2304_10" style="mask-type:luminance" maskUnits="userSpaceOnUse" x="281" y="144" width="218" height="180">
<path d="M498.906 144.651H281.512V323.562H498.906V144.651Z" fill="white"/>
</mask>
<g mask="url(#mask42_2304_10)">
<path d="M472.621 166.123C472.621 166.373 472.375 166.576 472.07 166.576C471.766 166.576 471.52 166.373 471.52 166.123C471.52 165.872 471.766 165.669 472.07 165.669C472.375 165.669 472.621 165.872 472.621 166.123Z" fill="#03CEA4"/>
</g>
<mask id="mask43_2304_10" style="mask-type:luminance" maskUnits="userSpaceOnUse" x="281" y="144" width="218" height="180">
<path d="M498.906 144.651H281.512V323.562H498.906V144.651Z" fill="white"/>
</mask>
<g mask="url(#mask43_2304_10)">
<path d="M316.77 318.913C316.77 319.163 316.523 319.366 316.219 319.366C315.915 319.366 315.668 319.163 315.668 318.913C315.668 318.662 315.915 318.459 316.219 318.459C316.523 318.459 316.77 318.662 316.77 318.913Z" fill="#03CEA4"/>
</g>
<mask id="mask44_2304_10" style="mask-type:luminance" maskUnits="userSpaceOnUse" x="281" y="144" width="218" height="180">
<path d="M498.906 144.651H281.512V323.562H498.906V144.651Z" fill="white"/>
</mask>
<g mask="url(#mask44_2304_10)">
<path d="M345.348 306.552C345.348 306.802 345.101 307.005 344.797 307.005C344.493 307.005 344.246 306.802 344.246 306.552C344.246 306.301 344.493 306.098 344.797 306.098C345.101 306.098 345.348 306.301 345.348 306.552Z" fill="#03CEA4"/>
</g>
<mask id="mask45_2304_10" style="mask-type:luminance" maskUnits="userSpaceOnUse" x="281" y="144" width="218" height="180">
<path d="M498.906 144.651H281.512V323.562H498.906V144.651Z" fill="white"/>
</mask>
<g mask="url(#mask45_2304_10)">
<path d="M471.235 311.366C471.235 311.616 470.988 311.819 470.684 311.819C470.38 311.819 470.133 311.616 470.133 311.366C470.133 311.115 470.379 310.912 470.684 310.912C470.988 310.912 471.235 311.115 471.235 311.366Z" fill="#03CEA4"/>
</g>
<mask id="mask46_2304_10" style="mask-type:luminance" maskUnits="userSpaceOnUse" x="281" y="144" width="218" height="180">
<path d="M498.906 144.651H281.512V323.562H498.906V144.651Z" fill="white"/>
</mask>
<g mask="url(#mask46_2304_10)">
<path d="M295.266 229.718C295.266 229.968 295.019 230.171 294.715 230.171C294.411 230.171 294.164 229.968 294.164 229.718C294.164 229.467 294.411 229.264 294.715 229.264C295.019 229.264 295.266 229.467 295.266 229.718Z" fill="#03CEA4"/>
</g>
<mask id="mask47_2304_10" style="mask-type:luminance" maskUnits="userSpaceOnUse" x="281" y="144" width="218" height="180">
<path d="M498.906 144.651H281.512V323.562H498.906V144.651Z" fill="white"/>
</mask>
<g mask="url(#mask47_2304_10)">
<path d="M301.391 154.901C301.391 155.151 301.144 155.354 300.84 155.354C300.536 155.354 300.289 155.151 300.289 154.901C300.289 154.65 300.536 154.447 300.84 154.447C301.144 154.447 301.391 154.65 301.391 154.901Z" fill="#03CEA4"/>
</g>
<mask id="mask48_2304_10" style="mask-type:luminance" maskUnits="userSpaceOnUse" x="281" y="144" width="218" height="180">
<path d="M498.906 144.651H281.512V323.562H498.906V144.651Z" fill="white"/>
</mask>
<g mask="url(#mask48_2304_10)">
<path d="M422.044 284.571C422.029 284.321 422.264 284.108 422.568 284.097C422.872 284.085 423.13 284.278 423.144 284.529C423.158 284.779 422.923 284.991 422.62 285.003C422.316 285.014 422.058 284.821 422.044 284.571Z" fill="#CA1551"/>
</g>
<mask id="mask49_2304_10" style="mask-type:luminance" maskUnits="userSpaceOnUse" x="281" y="144" width="218" height="180">
<path d="M498.906 144.651H281.512V323.562H498.906V144.651Z" fill="white"/>
</mask>
<g mask="url(#mask49_2304_10)">
<path d="M425.149 172.825C425.149 173.075 424.902 173.278 424.598 173.278C424.293 173.278 424.047 173.075 424.047 172.825C424.047 172.574 424.293 172.371 424.598 172.371C424.902 172.371 425.149 172.574 425.149 172.825Z" fill="#03CEA4"/>
</g>
<mask id="mask50_2304_10" style="mask-type:luminance" maskUnits="userSpaceOnUse" x="156" y="85" width="308" height="254">
<path d="M309.813 85.2127L156.094 211.72L309.813 338.228L463.533 211.72L309.813 85.2127Z" fill="white"/>
</mask>
<g mask="url(#mask50_2304_10)">
<path d="M320.219 246.718C320.929 246.134 320.929 245.187 320.219 244.602C319.509 244.018 318.358 244.018 317.649 244.602C316.939 245.187 316.939 246.134 317.649 246.718C318.358 247.302 319.509 247.302 320.219 246.718Z" fill="#345995"/>
</g>
<mask id="mask51_2304_10" style="mask-type:luminance" maskUnits="userSpaceOnUse" x="188" y="54" width="308" height="254">
<path d="M341.739 54.6634L188.02 181.171L341.739 307.678L495.459 181.171L341.739 54.6634Z" fill="white"/>
</mask>
<g mask="url(#mask51_2304_10)">
<path d="M291.368 199.727C292.077 199.143 292.077 198.196 291.368 197.612C290.658 197.027 289.507 197.027 288.797 197.612C288.087 198.196 288.087 199.143 288.797 199.727C289.507 200.311 290.658 200.311 291.368 199.727Z" fill="#345995"/>
</g>
<mask id="mask52_2304_10" style="mask-type:luminance" maskUnits="userSpaceOnUse" x="194" y="-1" width="262" height="217">
<path d="M244.309 -0.000258123L194.352 174.115L405.92 215.229L455.877 41.1133L244.309 -0.000258123Z" fill="white"/>
</mask>
<g mask="url(#mask52_2304_10)">
<path d="M251.663 170.92C251.893 170.116 251.288 169.31 250.311 169.121C249.334 168.931 248.355 169.429 248.125 170.233C247.894 171.037 248.499 171.842 249.476 172.032C250.453 172.222 251.432 171.724 251.663 170.92Z" fill="#345995"/>
</g>
<mask id="mask53_2304_10" style="mask-type:luminance" maskUnits="userSpaceOnUse" x="232" y="126" width="219" height="180">
<path d="M450.344 126.899H232.949V305.809H450.344V126.899Z" fill="white"/>
</mask>
<g mask="url(#mask53_2304_10)">
<path d="M344.654 179.19C345.658 179.19 346.471 178.52 346.471 177.694C346.471 176.867 345.658 176.198 344.654 176.198C343.65 176.198 342.836 176.867 342.836 177.694C342.836 178.52 343.65 179.19 344.654 179.19Z" fill="#345995"/>
</g>
<mask id="mask54_2304_10" style="mask-type:luminance" maskUnits="userSpaceOnUse" x="232" y="126" width="219" height="180">
<path d="M450.344 126.899H232.949V305.809H450.344V126.899Z" fill="white"/>
</mask>
<g mask="url(#mask54_2304_10)">
<path d="M385.115 156.1C386.118 156.1 386.932 155.43 386.932 154.604C386.932 153.778 386.118 153.108 385.115 153.108C384.111 153.108 383.297 153.778 383.297 154.604C383.297 155.43 384.111 156.1 385.115 156.1Z" fill="#345995"/>
</g>
<mask id="mask55_2304_10" style="mask-type:luminance" maskUnits="userSpaceOnUse" x="223" y="167" width="251" height="206">
<path d="M258.623 167.197L223.797 343.799L438.387 372.461L473.214 195.858L258.623 167.197Z" fill="white"/>
</mask>
<g mask="url(#mask55_2304_10)">
<path d="M385.055 240.013C385.216 239.198 384.543 238.43 383.552 238.297C382.561 238.165 381.628 238.719 381.467 239.534C381.306 240.35 381.979 241.118 382.97 241.25C383.961 241.383 384.895 240.829 385.055 240.013Z" fill="#345995"/>
</g>
<mask id="mask56_2304_10" style="mask-type:luminance" maskUnits="userSpaceOnUse" x="209" y="219" width="262" height="216">
<path d="M259.137 219.761L209.18 393.876L420.748 434.99L470.705 260.875L259.137 219.761Z" fill="white"/>
</mask>
<g mask="url(#mask56_2304_10)">
<path d="M427.788 273.107C428.018 272.303 427.413 271.497 426.436 271.307C425.459 271.117 424.48 271.615 424.25 272.419C424.019 273.223 424.624 274.029 425.601 274.219C426.578 274.409 427.557 273.911 427.788 273.107Z" fill="#345995"/>
</g>
<mask id="mask57_2304_10" style="mask-type:luminance" maskUnits="userSpaceOnUse" x="244" y="123" width="285" height="235">
<path d="M445.038 123.382L244.188 191.851L327.384 357.146L528.235 288.677L445.038 123.382Z" fill="white"/>
</mask>
<g mask="url(#mask57_2304_10)">
<path d="M437.657 137.484C438.584 137.167 439.024 136.292 438.64 135.529C438.256 134.766 437.193 134.403 436.265 134.72C435.338 135.036 434.897 135.911 435.282 136.674C435.666 137.437 436.729 137.8 437.657 137.484Z" fill="#345995"/>
</g>
<mask id="mask58_2304_10" style="mask-type:luminance" maskUnits="userSpaceOnUse" x="291" y="22" width="250" height="206">
<path d="M326.143 22.1511L291.316 198.753L505.907 227.415L540.733 50.8125L326.143 22.1511Z" fill="white"/>
</mask>
<g mask="url(#mask58_2304_10)">
<path d="M315.239 134.838C315.4 134.022 314.727 133.254 313.736 133.121C312.745 132.989 311.811 133.543 311.651 134.358C311.49 135.174 312.163 135.942 313.154 136.075C314.145 136.207 315.078 135.653 315.239 134.838Z" fill="#345995"/>
</g>
<mask id="mask59_2304_10" style="mask-type:luminance" maskUnits="userSpaceOnUse" x="232" y="126" width="219" height="180">
<path d="M450.344 126.899H232.949V305.809H450.344V126.899Z" fill="white"/>
</mask>
<g mask="url(#mask59_2304_10)">
<path d="M240.255 285.823C241.259 285.823 242.073 285.154 242.073 284.327C242.073 283.501 241.259 282.832 240.255 282.832C239.251 282.832 238.438 283.501 238.438 284.327C238.438 285.154 239.251 285.823 240.255 285.823Z" fill="#345995"/>
</g>
<mask id="mask60_2304_10" style="mask-type:luminance" maskUnits="userSpaceOnUse" x="147" y="107" width="299" height="246">
<path d="M333.462 107.348L147.133 199.505L259.113 352.849L445.442 260.692L333.462 107.348Z" fill="white"/>
</mask>
<g mask="url(#mask60_2304_10)">
<path d="M350.005 291.792C350.865 291.366 351.144 290.447 350.626 289.739C350.109 289.031 348.993 288.802 348.132 289.228C347.272 289.653 346.993 290.572 347.511 291.28C348.028 291.988 349.144 292.217 350.005 291.792Z" fill="#345995"/>
</g>
<mask id="mask61_2304_10" style="mask-type:luminance" maskUnits="userSpaceOnUse" x="232" y="126" width="219" height="180">
<path d="M450.344 126.899H232.949V305.809H450.344V126.899Z" fill="white"/>
</mask>
<g mask="url(#mask61_2304_10)">
<path d="M444.193 299.737C445.197 299.737 446.01 299.067 446.01 298.241C446.01 297.415 445.197 296.745 444.193 296.745C443.189 296.745 442.375 297.415 442.375 298.241C442.375 299.067 443.189 299.737 444.193 299.737Z" fill="#CA1551"/>
</g>
<mask id="mask62_2304_10" style="mask-type:luminance" maskUnits="userSpaceOnUse" x="40" y="120" width="250" height="206">
<path d="M75.3891 120.477L40.5625 297.08L255.153 325.741L289.979 149.139L75.3891 120.477Z" fill="white"/>
</mask>
<g mask="url(#mask62_2304_10)">
<path d="M260.075 305.281C260.236 304.466 259.563 303.698 258.572 303.565C257.581 303.433 256.647 303.987 256.487 304.802C256.326 305.618 256.999 306.386 257.99 306.518C258.98 306.651 259.914 306.097 260.075 305.281Z" fill="#CA1551"/>
</g>
<mask id="mask63_2304_10" style="mask-type:luminance" maskUnits="userSpaceOnUse" x="179" y="141" width="262" height="216">
<path d="M229.16 141.438L179.203 315.553L390.771 356.667L440.729 182.551L229.16 141.438Z" fill="white"/>
</mask>
<g mask="url(#mask63_2304_10)">
<path d="M352.667 249.527C352.897 248.723 352.292 247.917 351.315 247.727C350.338 247.537 349.359 248.035 349.129 248.839C348.898 249.643 349.503 250.449 350.48 250.639C351.457 250.829 352.436 250.331 352.667 249.527Z" fill="#CA1551"/>
</g>
<mask id="mask64_2304_10" style="mask-type:luminance" maskUnits="userSpaceOnUse" x="281" y="152" width="250" height="206">
<path d="M316.1 152.471L281.273 329.074L495.864 357.735L530.69 181.133L316.1 152.471Z" fill="white"/>
</mask>
<g mask="url(#mask64_2304_10)">
<path d="M403.286 204.857C403.447 204.042 402.774 203.273 401.783 203.141C400.792 203.009 399.858 203.562 399.697 204.378C399.537 205.193 400.21 205.962 401.2 206.094C402.191 206.226 403.125 205.673 403.286 204.857Z" fill="#CA1551"/>
</g>
<mask id="mask65_2304_10" style="mask-type:luminance" maskUnits="userSpaceOnUse" x="232" y="126" width="219" height="180">
<path d="M450.344 126.899H232.949V305.809H450.344V126.899Z" fill="white"/>
</mask>
<g mask="url(#mask65_2304_10)">
<path d="M416.767 152.888C417.771 152.888 418.585 152.219 418.585 151.392C418.585 150.566 417.771 149.896 416.767 149.896C415.763 149.896 414.949 150.566 414.949 151.392C414.949 152.219 415.763 152.888 416.767 152.888Z" fill="#CA1551"/>
</g>
<mask id="mask66_2304_10" style="mask-type:luminance" maskUnits="userSpaceOnUse" x="232" y="126" width="219" height="180">
<path d="M450.344 126.899H232.949V305.809H450.344V126.899Z" fill="white"/>
</mask>
<g mask="url(#mask66_2304_10)">
<path d="M333.305 152.567C333.305 152.818 333.058 153.021 332.754 153.021C332.45 153.021 332.203 152.818 332.203 152.567C332.203 152.317 332.45 152.114 332.754 152.114C333.058 152.114 333.305 152.317 333.305 152.567Z" fill="#345995"/>
</g>
<mask id="mask67_2304_10" style="mask-type:luminance" maskUnits="userSpaceOnUse" x="232" y="126" width="219" height="180">
<path d="M450.344 126.899H232.949V305.809H450.344V126.899Z" fill="white"/>
</mask>
<g mask="url(#mask67_2304_10)">
<path d="M254.016 192.871C254.016 193.121 253.769 193.324 253.465 193.324C253.161 193.324 252.914 193.121 252.914 192.871C252.914 192.621 253.161 192.417 253.465 192.417C253.769 192.418 254.016 192.621 254.016 192.871Z" fill="#345995"/>
</g>
<mask id="mask68_2304_10" style="mask-type:luminance" maskUnits="userSpaceOnUse" x="232" y="126" width="219" height="180">
<path d="M450.344 126.899H232.949V305.809H450.344V126.899Z" fill="white"/>
</mask>
<g mask="url(#mask68_2304_10)">
<path d="M266.981 204.971C266.981 205.222 266.734 205.425 266.43 205.425C266.126 205.425 265.879 205.222 265.879 204.971C265.879 204.721 266.126 204.518 266.43 204.518C266.734 204.518 266.981 204.721 266.981 204.971Z" fill="#345995"/>
</g>
<mask id="mask69_2304_10" style="mask-type:luminance" maskUnits="userSpaceOnUse" x="232" y="126" width="219" height="180">
<path d="M450.344 126.899H232.949V305.809H450.344V126.899Z" fill="white"/>
</mask>
<g mask="url(#mask69_2304_10)">
<path d="M326.192 278.455C326.192 278.705 325.945 278.908 325.641 278.908C325.336 278.908 325.09 278.705 325.09 278.455C325.09 278.205 325.336 278.001 325.641 278.001C325.945 278.001 326.192 278.205 326.192 278.455Z" fill="#345995"/>
</g>
<mask id="mask70_2304_10" style="mask-type:luminance" maskUnits="userSpaceOnUse" x="232" y="126" width="219" height="180">
<path d="M450.344 126.899H232.949V305.809H450.344V126.899Z" fill="white"/>
</mask>
<g mask="url(#mask70_2304_10)">
<path d="M403.313 262.353C403.313 262.604 403.066 262.807 402.762 262.807C402.458 262.807 402.211 262.604 402.211 262.353C402.211 262.103 402.458 261.9 402.762 261.9C403.066 261.9 403.313 262.103 403.313 262.353Z" fill="#345995"/>
</g>
<mask id="mask71_2304_10" style="mask-type:luminance" maskUnits="userSpaceOnUse" x="232" y="126" width="219" height="180">
<path d="M450.344 126.899H232.949V305.809H450.344V126.899Z" fill="white"/>
</mask>
<g mask="url(#mask71_2304_10)">
<path d="M439.508 216.356C439.508 216.607 439.262 216.81 438.957 216.81C438.653 216.81 438.406 216.607 438.406 216.356C438.406 216.106 438.653 215.903 438.957 215.903C439.262 215.903 439.508 216.106 439.508 216.356Z" fill="#345995"/>
</g>
<mask id="mask72_2304_10" style="mask-type:luminance" maskUnits="userSpaceOnUse" x="232" y="126" width="219" height="180">
<path d="M450.344 126.899H232.949V305.809H450.344V126.899Z" fill="white"/>
</mask>
<g mask="url(#mask72_2304_10)">
<path d="M352.993 205.46C352.993 205.71 352.746 205.913 352.442 205.913C352.137 205.913 351.891 205.71 351.891 205.46C351.891 205.209 352.137 205.006 352.442 205.006C352.746 205.006 352.993 205.209 352.993 205.46Z" fill="#345995"/>
</g>
<mask id="mask73_2304_10" style="mask-type:luminance" maskUnits="userSpaceOnUse" x="232" y="126" width="219" height="180">
<path d="M450.344 126.899H232.949V305.809H450.344V126.899Z" fill="white"/>
</mask>
<g mask="url(#mask73_2304_10)">
<path d="M274.692 152.567C274.692 152.818 274.445 153.021 274.141 153.021C273.837 153.021 273.59 152.818 273.59 152.567C273.59 152.317 273.836 152.114 274.141 152.114C274.445 152.114 274.692 152.317 274.692 152.567Z" fill="#345995"/>
</g>
<mask id="mask74_2304_10" style="mask-type:luminance" maskUnits="userSpaceOnUse" x="232" y="126" width="219" height="180">
<path d="M450.344 126.899H232.949V305.809H450.344V126.899Z" fill="white"/>
</mask>
<g mask="url(#mask74_2304_10)">
<path d="M390.223 131.325C390.223 131.575 389.976 131.778 389.672 131.778C389.368 131.778 389.121 131.575 389.121 131.325C389.121 131.075 389.368 130.872 389.672 130.872C389.976 130.872 390.223 131.075 390.223 131.325Z" fill="#345995"/>
</g>
<path d="M352.188 193.019C353.115 192.703 353.556 191.828 353.172 191.064C352.787 190.301 351.724 189.938 350.797 190.255C349.869 190.571 349.429 191.446 349.813 192.209C350.197 192.973 351.26 193.335 352.188 193.019Z" fill="#FB4D3D"/>
<path d="M421.098 182.403C421.808 181.819 421.808 180.872 421.098 180.288C420.388 179.704 419.237 179.704 418.527 180.288C417.818 180.872 417.818 181.819 418.527 182.403C419.237 182.988 420.388 182.988 421.098 182.403Z" fill="#FB4D3D"/>
<path d="M451.389 251.69C451.62 250.886 451.015 250.08 450.038 249.891C449.061 249.701 448.082 250.199 447.851 251.003C447.621 251.807 448.226 252.612 449.203 252.802C450.18 252.992 451.159 252.494 451.389 251.69Z" fill="#FB4D3D"/>
<path d="M389.378 227.081C389.608 226.277 389.003 225.471 388.026 225.281C387.049 225.091 386.07 225.589 385.84 226.393C385.609 227.197 386.214 228.003 387.191 228.193C388.168 228.383 389.147 227.885 389.378 227.081Z" fill="#FB4D3D"/>
<path d="M466.305 186.815C466.305 187.065 466.058 187.268 465.754 187.268C465.45 187.268 465.203 187.065 465.203 186.815C465.203 186.564 465.45 186.361 465.754 186.361C466.058 186.361 466.305 186.564 466.305 186.815Z" fill="#FB4D3D"/>
<path d="M406.379 218.433C406.379 218.683 406.133 218.886 405.828 218.886C405.524 218.886 405.277 218.683 405.277 218.433C405.277 218.183 405.524 217.979 405.828 217.979C406.133 217.979 406.379 218.182 406.379 218.433Z" fill="#FB4D3D"/>
<path d="M377.524 229.785C377.524 230.036 377.277 230.239 376.973 230.239C376.668 230.239 376.422 230.036 376.422 229.785C376.422 229.535 376.668 229.332 376.973 229.332C377.277 229.332 377.524 229.535 377.524 229.785Z" fill="#FB4D3D"/>
<path d="M317.161 178.691C316.915 178.544 316.86 178.261 317.039 178.058C317.217 177.856 317.562 177.81 317.808 177.958C318.054 178.105 318.109 178.388 317.93 178.591C317.752 178.793 317.407 178.839 317.161 178.691Z" fill="#FB4D3D"/>
<path d="M430.446 233.145C430.2 232.998 430.145 232.714 430.324 232.512C430.503 232.309 430.847 232.264 431.093 232.411C431.339 232.558 431.394 232.842 431.216 233.044C431.037 233.247 430.692 233.292 430.446 233.145Z" fill="#FB4D3D"/>
<path d="M431.106 281.039C430.868 281.195 430.521 281.163 430.331 280.968C430.142 280.772 430.18 280.487 430.418 280.331C430.656 280.174 431.002 280.206 431.192 280.402C431.382 280.597 431.343 280.883 431.106 281.039Z" fill="#FB4D3D"/>
<path d="M398.578 295.113C398.341 295.269 397.994 295.237 397.804 295.042C397.614 294.846 397.653 294.561 397.891 294.404C398.128 294.248 398.475 294.28 398.665 294.476C398.855 294.671 398.816 294.956 398.578 295.113Z" fill="#FB4D3D"/>
<path d="M480.106 263.218C480.092 262.968 480.327 262.755 480.631 262.744C480.935 262.732 481.193 262.925 481.207 263.176C481.221 263.426 480.986 263.638 480.682 263.65C480.378 263.661 480.12 263.468 480.106 263.218Z" fill="#FB4D3D"/>
<path d="M460.743 263.202C460.729 262.952 460.964 262.74 461.268 262.728C461.571 262.716 461.829 262.91 461.843 263.16C461.858 263.41 461.623 263.622 461.319 263.634C461.015 263.646 460.757 263.452 460.743 263.202Z" fill="#FB4D3D"/>
<path d="M291.125 276.985C291.125 277.236 290.879 277.439 290.574 277.439C290.27 277.439 290.023 277.236 290.023 276.985C290.023 276.735 290.27 276.532 290.574 276.532C290.879 276.532 291.125 276.735 291.125 276.985Z" fill="#FB4D3D"/>
<path d="M308.082 245.66C308.082 245.91 307.836 246.113 307.531 246.113C307.227 246.113 306.98 245.91 306.98 245.66C306.98 245.41 307.227 245.207 307.531 245.207C307.836 245.207 308.082 245.409 308.082 245.66Z" fill="#FB4D3D"/>
<path d="M465.274 231.282C465.274 231.532 465.027 231.735 464.723 231.735C464.419 231.735 464.172 231.533 464.172 231.282C464.172 231.032 464.418 230.829 464.723 230.829C465.027 230.829 465.274 231.032 465.274 231.282Z" fill="#FB4D3D"/>
<path d="M308.509 289.844C308.262 289.697 308.208 289.413 308.386 289.211C308.565 289.008 308.91 288.963 309.156 289.11C309.402 289.257 309.457 289.541 309.278 289.743C309.099 289.946 308.755 289.991 308.509 289.844Z" fill="#FB4D3D"/>
<path d="M331.118 264.211C330.872 264.064 330.817 263.78 330.996 263.577C331.174 263.375 331.519 263.33 331.765 263.477C332.011 263.624 332.066 263.907 331.887 264.11C331.709 264.313 331.364 264.358 331.118 264.211Z" fill="#FB4D3D"/>
<path d="M396.457 167.623C396.457 167.873 396.211 168.076 395.906 168.076C395.602 168.076 395.355 167.873 395.355 167.623C395.355 167.372 395.602 167.169 395.906 167.169C396.211 167.169 396.457 167.372 396.457 167.623Z" fill="#FB4D3D"/>
<path d="M355.547 171.819C355.547 172.069 355.301 172.272 354.996 172.272C354.692 172.272 354.445 172.069 354.445 171.819C354.445 171.568 354.692 171.365 354.996 171.365C355.3 171.365 355.547 171.568 355.547 171.819Z" fill="#FB4D3D"/>
<path d="M332.696 144.374C332.45 144.227 332.395 143.943 332.574 143.74C332.753 143.538 333.097 143.493 333.343 143.64C333.59 143.787 333.644 144.07 333.466 144.273C333.287 144.476 332.942 144.521 332.696 144.374Z" fill="#FB4D3D"/>
<path d="M334.477 169.226C334.231 169.079 334.176 168.795 334.355 168.592C334.534 168.39 334.878 168.345 335.124 168.492C335.371 168.639 335.426 168.922 335.247 169.125C335.068 169.328 334.724 169.373 334.477 169.226Z" fill="#FB4D3D"/>
<path d="M336.697 270.413C337.7 270.413 338.514 269.743 338.514 268.917C338.514 268.091 337.7 267.421 336.697 267.421C335.693 267.421 334.879 268.091 334.879 268.917C334.879 269.743 335.693 270.413 336.697 270.413Z" fill="#FB4D3D"/>
<path d="M419.753 303.418C419.983 302.614 419.378 301.808 418.401 301.619C417.424 301.429 416.445 301.927 416.215 302.731C415.984 303.535 416.589 304.34 417.566 304.53C418.543 304.72 419.522 304.222 419.753 303.418Z" fill="#FB4D3D"/>
<path d="M478.825 246.286C479.829 246.286 480.643 245.616 480.643 244.79C480.643 243.964 479.829 243.294 478.825 243.294C477.822 243.294 477.008 243.964 477.008 244.79C477.008 245.616 477.822 246.286 478.825 246.286Z" fill="#FB4D3D"/>
<path d="M278.419 258.093C278.759 257.316 278.269 256.459 277.325 256.179C276.38 255.899 275.339 256.302 274.999 257.079C274.659 257.857 275.148 258.714 276.093 258.994C277.037 259.274 278.079 258.871 278.419 258.093Z" fill="#FB4D3D"/>
<path d="M329.475 155.043C329.706 154.239 329.101 153.433 328.124 153.244C327.147 153.054 326.168 153.552 325.937 154.356C325.707 155.16 326.312 155.965 327.289 156.155C328.265 156.345 329.244 155.847 329.475 155.043Z" fill="#FB4D3D"/>
<path d="M403.618 140.786C403.618 141.036 403.371 141.239 403.067 141.239C402.762 141.239 402.516 141.036 402.516 140.786C402.516 140.536 402.762 140.333 403.067 140.333C403.371 140.333 403.618 140.535 403.618 140.786Z" fill="#03CEA4"/>
<path d="M327.133 241.951C327.133 242.202 326.887 242.405 326.582 242.405C326.278 242.405 326.031 242.202 326.031 241.951C326.031 241.701 326.278 241.498 326.582 241.498C326.887 241.498 327.133 241.701 327.133 241.951Z" fill="#345995"/>
<path d="M431.321 305.416C431.321 305.666 431.074 305.869 430.77 305.869C430.465 305.869 430.219 305.666 430.219 305.416C430.219 305.165 430.465 304.962 430.77 304.962C431.074 304.962 431.321 305.165 431.321 305.416Z" fill="#345995"/>
<path d="M353.258 296.21C353.258 296.461 353.012 296.664 352.707 296.664C352.403 296.664 352.156 296.461 352.156 296.21C352.156 295.96 352.403 295.757 352.707 295.757C353.012 295.757 353.258 295.96 353.258 296.21Z" fill="#345995"/>
<path d="M353.614 223.768C353.614 224.018 353.367 224.221 353.063 224.221C352.758 224.221 352.512 224.018 352.512 223.768C352.512 223.518 352.758 223.314 353.063 223.314C353.367 223.314 353.614 223.517 353.614 223.768Z" fill="#345995"/>
<path d="M450.739 174.69C450.725 174.44 450.96 174.228 451.264 174.216C451.568 174.205 451.825 174.398 451.84 174.648C451.854 174.898 451.619 175.111 451.315 175.122C451.011 175.134 450.753 174.94 450.739 174.69Z" fill="#CA1551"/>
<path d="M378.922 303.419C378.685 303.575 378.338 303.543 378.148 303.348C377.958 303.152 377.997 302.867 378.234 302.711C378.472 302.554 378.819 302.586 379.009 302.782C379.199 302.977 379.16 303.263 378.922 303.419Z" fill="#FB4D3D"/>
<mask id="mask75_2304_10" style="mask-type:luminance" maskUnits="userSpaceOnUse" x="230" y="81" width="262" height="217">
<path d="M280.264 81.8484L230.307 255.964L441.875 297.077L491.832 122.962L280.264 81.8484Z" fill="white"/>
</mask>
<g mask="url(#mask75_2304_10)">
<path d="M298.739 203.672C298.97 202.868 298.365 202.062 297.388 201.873C296.411 201.683 295.432 202.181 295.201 202.985C294.97 203.789 295.575 204.594 296.552 204.784C297.529 204.974 298.508 204.476 298.739 203.672Z" fill="#EAC435"/>
</g>
<mask id="mask76_2304_10" style="mask-type:luminance" maskUnits="userSpaceOnUse" x="219" y="162" width="218" height="179">
<path d="M436.795 162.024H219.4V340.934H436.795V162.024Z" fill="white"/>
</mask>
<g mask="url(#mask76_2304_10)">
<path d="M252.3 179.995C253.304 179.995 254.118 179.325 254.118 178.499C254.118 177.673 253.304 177.003 252.3 177.003C251.296 177.003 250.482 177.673 250.482 178.499C250.482 179.325 251.296 179.995 252.3 179.995Z" fill="#EAC435"/>
</g>
<mask id="mask77_2304_10" style="mask-type:luminance" maskUnits="userSpaceOnUse" x="219" y="162" width="218" height="179">
<path d="M436.795 162.024H219.4V340.934H436.795V162.024Z" fill="white"/>
</mask>
<g mask="url(#mask77_2304_10)">
<path d="M221.218 226.084C222.222 226.084 223.036 225.414 223.036 224.588C223.036 223.762 222.222 223.092 221.218 223.092C220.214 223.092 219.4 223.762 219.4 224.588C219.4 225.414 220.214 226.084 221.218 226.084Z" fill="#EAC435"/>
</g>
<mask id="mask78_2304_10" style="mask-type:luminance" maskUnits="userSpaceOnUse" x="309" y="102" width="250" height="206">
<path d="M344.047 102.211L309.221 278.813L523.811 307.474L558.637 130.872L344.047 102.211Z" fill="white"/>
</mask>
<g mask="url(#mask78_2304_10)">
<path d="M349.503 177.218C349.664 176.402 348.991 175.634 348 175.501C347.009 175.369 346.075 175.923 345.914 176.738C345.753 177.554 346.426 178.322 347.417 178.454C348.408 178.587 349.342 178.033 349.503 177.218Z" fill="#EAC435"/>
</g>
<mask id="mask79_2304_10" style="mask-type:luminance" maskUnits="userSpaceOnUse" x="204" y="166" width="285" height="235">
<path d="M405.689 166.857L204.838 235.326L288.035 400.621L488.886 332.152L405.689 166.857Z" fill="white"/>
</mask>
<g mask="url(#mask79_2304_10)">
<path d="M436.705 230.18C437.633 229.864 438.073 228.989 437.689 228.225C437.305 227.462 436.242 227.1 435.314 227.416C434.387 227.732 433.946 228.607 434.33 229.37C434.715 230.134 435.778 230.496 436.705 230.18Z" fill="#EAC435"/>
</g>
<mask id="mask80_2304_10" style="mask-type:luminance" maskUnits="userSpaceOnUse" x="222" y="156" width="308" height="254">
<path d="M376.124 156.131L222.404 282.639L376.124 409.146L529.844 282.639L376.124 156.131Z" fill="white"/>
</mask>
<g mask="url(#mask80_2304_10)">
<path d="M399.096 220.415C399.806 219.831 399.806 218.884 399.096 218.3C398.386 217.715 397.235 217.715 396.526 218.3C395.816 218.884 395.816 219.831 396.526 220.415C397.235 220.999 398.386 220.999 399.096 220.415Z" fill="#EAC435"/>
</g>
<mask id="mask81_2304_10" style="mask-type:luminance" maskUnits="userSpaceOnUse" x="242" y="205" width="263" height="216">
<path d="M292.865 205.046L242.908 379.161L454.477 420.275L504.434 246.159L292.865 205.046Z" fill="white"/>
</mask>
<g mask="url(#mask81_2304_10)">
<path d="M399.614 258.72C399.845 257.916 399.24 257.111 398.263 256.921C397.286 256.731 396.307 257.229 396.076 258.033C395.845 258.837 396.45 259.643 397.427 259.833C398.404 260.022 399.383 259.524 399.614 258.72Z" fill="#EAC435"/>
</g>
<mask id="mask82_2304_10" style="mask-type:luminance" maskUnits="userSpaceOnUse" x="161" y="138" width="285" height="235">
<path d="M362.173 138.871L161.322 207.34L244.519 372.636L445.37 304.167L362.173 138.871Z" fill="white"/>
</mask>
<g mask="url(#mask82_2304_10)">
<path d="M329.471 306.201C330.398 305.885 330.839 305.01 330.455 304.247C330.071 303.484 329.007 303.121 328.08 303.437C327.152 303.753 326.712 304.629 327.096 305.392C327.48 306.155 328.544 306.518 329.471 306.201Z" fill="#EAC435"/>
</g>
<mask id="mask83_2304_10" style="mask-type:luminance" maskUnits="userSpaceOnUse" x="219" y="162" width="218" height="179">
<path d="M436.795 162.024H219.4V340.934H436.795V162.024Z" fill="white"/>
</mask>
<g mask="url(#mask83_2304_10)">
<path d="M311.542 253.338C312.546 253.338 313.36 252.668 313.36 251.842C313.36 251.015 312.546 250.346 311.542 250.346C310.538 250.346 309.725 251.015 309.725 251.842C309.725 252.668 310.538 253.338 311.542 253.338Z" fill="#EAC435"/>
</g>
<mask id="mask84_2304_10" style="mask-type:luminance" maskUnits="userSpaceOnUse" x="132" y="87" width="308" height="254">
<path d="M285.737 87.7279L132.018 214.235L285.737 340.743L439.457 214.235L285.737 87.7279Z" fill="white"/>
</mask>
<g mask="url(#mask84_2304_10)">
<path d="M253.573 275.995C254.283 275.411 254.283 274.464 253.573 273.88C252.863 273.296 251.712 273.296 251.002 273.88C250.292 274.464 250.292 275.411 251.002 275.995C251.712 276.579 252.863 276.579 253.573 275.995Z" fill="#EAC435"/>
</g>
<mask id="mask85_2304_10" style="mask-type:luminance" maskUnits="userSpaceOnUse" x="158" y="160" width="285" height="235">
<path d="M359.65 160.709L158.799 229.178L241.996 394.473L442.846 326.004L359.65 160.709Z" fill="white"/>
</mask>
<g mask="url(#mask85_2304_10)">
<path d="M394.916 322.342C395.844 322.026 396.284 321.151 395.9 320.387C395.516 319.624 394.453 319.262 393.525 319.578C392.598 319.894 392.157 320.769 392.541 321.532C392.926 322.296 393.989 322.658 394.916 322.342Z" fill="#EAC435"/>
</g>
<mask id="mask86_2304_10" style="mask-type:luminance" maskUnits="userSpaceOnUse" x="65" y="162" width="262" height="216">
<path d="M115.315 162.673L65.3574 336.789L276.926 377.902L326.883 203.787L115.315 162.673Z" fill="white"/>
</mask>
<g mask="url(#mask86_2304_10)">
<path d="M278.301 329.854C278.532 329.05 277.927 328.244 276.95 328.054C275.973 327.864 274.994 328.362 274.763 329.166C274.533 329.97 275.138 330.776 276.115 330.966C277.092 331.156 278.071 330.658 278.301 329.854Z" fill="#EAC435"/>
</g>
<mask id="mask87_2304_10" style="mask-type:luminance" maskUnits="userSpaceOnUse" x="219" y="162" width="218" height="179">
<path d="M436.795 162.024H219.4V340.934H436.795V162.024Z" fill="white"/>
</mask>
<g mask="url(#mask87_2304_10)">
<path d="M297.147 234.826C297.147 235.077 296.9 235.28 296.596 235.28C296.292 235.28 296.045 235.077 296.045 234.826C296.045 234.576 296.292 234.373 296.596 234.373C296.9 234.373 297.147 234.576 297.147 234.826Z" fill="#EAC435"/>
</g>
<mask id="mask88_2304_10" style="mask-type:luminance" maskUnits="userSpaceOnUse" x="219" y="162" width="218" height="179">
<path d="M436.795 162.024H219.4V340.934H436.795V162.024Z" fill="white"/>
</mask>
<g mask="url(#mask88_2304_10)">
<path d="M272.877 245.789C272.877 246.039 272.631 246.242 272.326 246.242C272.022 246.242 271.775 246.039 271.775 245.789C271.775 245.538 272.022 245.335 272.326 245.335C272.631 245.335 272.877 245.538 272.877 245.789Z" fill="#EAC435"/>
</g>
<mask id="mask89_2304_10" style="mask-type:luminance" maskUnits="userSpaceOnUse" x="219" y="162" width="218" height="179">
<path d="M436.795 162.024H219.4V340.934H436.795V162.024Z" fill="white"/>
</mask>
<g mask="url(#mask89_2304_10)">
<path d="M407.659 238.609C407.413 238.462 407.358 238.178 407.537 237.976C407.715 237.773 408.06 237.728 408.306 237.875C408.552 238.022 408.607 238.306 408.428 238.508C408.25 238.711 407.905 238.756 407.659 238.609Z" fill="#EAC435"/>
</g>
<mask id="mask90_2304_10" style="mask-type:luminance" maskUnits="userSpaceOnUse" x="219" y="162" width="218" height="179">
<path d="M436.795 162.024H219.4V340.934H436.795V162.024Z" fill="white"/>
</mask>
<g mask="url(#mask90_2304_10)">
<path d="M387.62 197.85C387.374 197.703 387.319 197.42 387.498 197.217C387.676 197.014 388.021 196.969 388.267 197.116C388.513 197.263 388.568 197.547 388.389 197.75C388.211 197.952 387.866 197.997 387.62 197.85Z" fill="#EAC435"/>
</g>
<mask id="mask91_2304_10" style="mask-type:luminance" maskUnits="userSpaceOnUse" x="219" y="162" width="218" height="179">
<path d="M436.795 162.024H219.4V340.934H436.795V162.024Z" fill="white"/>
</mask>
<g mask="url(#mask91_2304_10)">
<path d="M314.698 233.2C314.698 233.45 314.451 233.653 314.147 233.653C313.842 233.653 313.596 233.45 313.596 233.2C313.596 232.949 313.842 232.746 314.147 232.746C314.451 232.746 314.698 232.949 314.698 233.2Z" fill="#345995"/>
</g>
<mask id="mask92_2304_10" style="mask-type:luminance" maskUnits="userSpaceOnUse" x="219" y="162" width="218" height="179">
<path d="M436.795 162.024H219.4V340.934H436.795V162.024Z" fill="white"/>
</mask>
<g mask="url(#mask92_2304_10)">
<path d="M374.975 227.767C374.975 228.018 374.728 228.221 374.424 228.221C374.12 228.221 373.873 228.018 373.873 227.767C373.873 227.517 374.12 227.314 374.424 227.314C374.728 227.314 374.975 227.517 374.975 227.767Z" fill="#345995"/>
</g>
<mask id="mask93_2304_10" style="mask-type:luminance" maskUnits="userSpaceOnUse" x="219" y="162" width="218" height="179">
<path d="M436.795 162.024H219.4V340.934H436.795V162.024Z" fill="white"/>
</mask>
<g mask="url(#mask93_2304_10)">
<path d="M430.073 191.67C429.827 191.523 429.772 191.239 429.951 191.036C430.129 190.834 430.474 190.789 430.72 190.936C430.966 191.083 431.021 191.366 430.843 191.569C430.664 191.771 430.319 191.817 430.073 191.67Z" fill="#EAC435"/>
</g>
<mask id="mask94_2304_10" style="mask-type:luminance" maskUnits="userSpaceOnUse" x="219" y="162" width="218" height="179">
<path d="M436.795 162.024H219.4V340.934H436.795V162.024Z" fill="white"/>
</mask>
<g mask="url(#mask94_2304_10)">
<path d="M404.69 168.053C404.444 167.906 404.389 167.623 404.568 167.42C404.747 167.217 405.091 167.172 405.337 167.319C405.584 167.466 405.638 167.75 405.46 167.953C405.281 168.155 404.937 168.2 404.69 168.053Z" fill="#EAC435"/>
</g>
<mask id="mask95_2304_10" style="mask-type:luminance" maskUnits="userSpaceOnUse" x="219" y="162" width="218" height="179">
<path d="M436.795 162.024H219.4V340.934H436.795V162.024Z" fill="white"/>
</mask>
<g mask="url(#mask95_2304_10)">
<path d="M230.624 332C230.378 331.853 230.323 331.569 230.502 331.367C230.68 331.164 231.025 331.119 231.271 331.266C231.517 331.413 231.572 331.697 231.393 331.899C231.215 332.102 230.87 332.147 230.624 332Z" fill="#EAC435"/>
</g>
<mask id="mask96_2304_10" style="mask-type:luminance" maskUnits="userSpaceOnUse" x="219" y="162" width="218" height="179">
<path d="M436.795 162.024H219.4V340.934H436.795V162.024Z" fill="white"/>
</mask>
<g mask="url(#mask96_2304_10)">
<path d="M312.792 338.018C312.546 337.871 312.491 337.588 312.67 337.385C312.848 337.182 313.193 337.137 313.439 337.284C313.685 337.431 313.74 337.715 313.561 337.917C313.383 338.12 313.038 338.165 312.792 338.018Z" fill="#EAC435"/>
</g>
<mask id="mask97_2304_10" style="mask-type:luminance" maskUnits="userSpaceOnUse" x="219" y="162" width="218" height="179">
<path d="M436.795 162.024H219.4V340.934H436.795V162.024Z" fill="white"/>
</mask>
<g mask="url(#mask97_2304_10)">
<path d="M344.851 316.132C344.645 315.948 344.659 315.661 344.882 315.491C345.106 315.322 345.454 315.333 345.661 315.517C345.867 315.701 345.853 315.988 345.63 316.158C345.406 316.327 345.058 316.316 344.851 316.132Z" fill="#EAC435"/>
</g>
<mask id="mask98_2304_10" style="mask-type:luminance" maskUnits="userSpaceOnUse" x="219" y="162" width="218" height="179">
<path d="M436.795 162.024H219.4V340.934H436.795V162.024Z" fill="white"/>
</mask>
<g mask="url(#mask98_2304_10)">
<path d="M428.402 314.343C428.196 314.159 428.209 313.872 428.433 313.702C428.657 313.532 429.005 313.543 429.212 313.727C429.418 313.911 429.404 314.198 429.181 314.368C428.957 314.538 428.608 314.527 428.402 314.343Z" fill="#EAC435"/>
</g>
<mask id="mask99_2304_10" style="mask-type:luminance" maskUnits="userSpaceOnUse" x="173" y="109" width="251" height="206">
<path d="M208.618 109.05L173.791 285.653L388.381 314.314L423.208 137.712L208.618 109.05Z" fill="white"/>
</mask>
<g mask="url(#mask99_2304_10)">
<path d="M308.686 249.144C308.847 248.328 308.174 247.56 307.183 247.428C306.192 247.295 305.259 247.849 305.098 248.664C304.937 249.48 305.61 250.248 306.601 250.381C307.592 250.513 308.525 249.959 308.686 249.144Z" fill="#03CEA4"/>
</g>
<mask id="mask100_2304_10" style="mask-type:luminance" maskUnits="userSpaceOnUse" x="204" y="98" width="274" height="226">
<path d="M411.066 98.3767L204.193 153.392L271.042 323.643L477.915 268.628L411.066 98.3767Z" fill="white"/>
</mask>
<g mask="url(#mask100_2304_10)">
<path d="M249.361 248.865C250.317 248.611 250.841 247.768 250.532 246.982C250.223 246.195 249.199 245.764 248.243 246.018C247.288 246.272 246.764 247.115 247.073 247.902C247.381 248.688 248.406 249.119 249.361 248.865Z" fill="#03CEA4"/>
</g>
<mask id="mask101_2304_10" style="mask-type:luminance" maskUnits="userSpaceOnUse" x="241" y="146" width="218" height="180">
<path d="M458.885 146.66H241.49V325.57H458.885V146.66Z" fill="white"/>
</mask>
<g mask="url(#mask101_2304_10)">
<path d="M324.971 303.41C325.429 302.674 326.524 302.383 327.417 302.759C328.311 303.135 328.665 304.037 328.208 304.772C327.75 305.508 326.655 305.799 325.762 305.423C324.868 305.046 324.514 304.145 324.971 303.41Z" fill="#03CEA4"/>
</g>
<mask id="mask102_2304_10" style="mask-type:luminance" maskUnits="userSpaceOnUse" x="132" y="85" width="308" height="254">
<path d="M285.8 85.5467L132.08 212.054L285.8 338.562L439.519 212.054L285.8 85.5467Z" fill="white"/>
</mask>
<g mask="url(#mask102_2304_10)">
<path d="M283.987 289.11C284.697 288.526 284.697 287.579 283.987 286.994C283.277 286.41 282.126 286.41 281.416 286.994C280.706 287.579 280.706 288.526 281.416 289.11C282.126 289.694 283.277 289.694 283.987 289.11Z" fill="#03CEA4"/>
</g>
<mask id="mask103_2304_10" style="mask-type:luminance" maskUnits="userSpaceOnUse" x="162" y="148" width="308" height="254">
<path d="M315.921 148.149L162.201 274.656L315.921 401.164L469.64 274.656L315.921 148.149Z" fill="white"/>
</mask>
<g mask="url(#mask103_2304_10)">
<path d="M390.862 290.476C391.572 289.892 391.572 288.944 390.862 288.36C390.152 287.776 389.001 287.776 388.291 288.36C387.581 288.944 387.581 289.892 388.291 290.476C389.001 291.06 390.152 291.06 390.862 290.476Z" fill="#03CEA4"/>
</g>
<mask id="mask104_2304_10" style="mask-type:luminance" maskUnits="userSpaceOnUse" x="262" y="137" width="251" height="206">
<path d="M297.7 137.255L262.873 313.857L477.463 342.519L512.29 165.917L297.7 137.255Z" fill="white"/>
</mask>
<g mask="url(#mask104_2304_10)">
<path d="M373.374 220.164C373.535 219.349 372.862 218.58 371.871 218.448C370.88 218.316 369.946 218.869 369.785 219.685C369.625 220.501 370.297 221.269 371.288 221.401C372.279 221.534 373.213 220.98 373.374 220.164Z" fill="#03CEA4"/>
</g>
<mask id="mask105_2304_10" style="mask-type:luminance" maskUnits="userSpaceOnUse" x="343" y="164" width="263" height="216">
<path d="M393.822 164.697L343.865 338.812L555.434 379.926L605.391 205.81L393.822 164.697Z" fill="white"/>
</mask>
<g mask="url(#mask105_2304_10)">
<path d="M441.965 189.864C442.196 189.06 441.591 188.254 440.614 188.064C439.637 187.874 438.658 188.372 438.427 189.176C438.197 189.98 438.802 190.786 439.779 190.976C440.756 191.165 441.735 190.668 441.965 189.864Z" fill="#03CEA4"/>
</g>
<mask id="mask106_2304_10" style="mask-type:luminance" maskUnits="userSpaceOnUse" x="357" y="111" width="263" height="216">
<path d="M407.518 111.569L357.561 285.684L569.129 326.798L619.086 152.682L407.518 111.569Z" fill="white"/>
</mask>
<g mask="url(#mask106_2304_10)">
<path d="M408.02 156.171C408.251 155.367 407.646 154.561 406.669 154.372C405.692 154.182 404.713 154.68 404.482 155.484C404.251 156.288 404.856 157.093 405.833 157.283C406.81 157.473 407.789 156.975 408.02 156.171Z" fill="#03CEA4"/>
</g>
<mask id="mask107_2304_10" style="mask-type:luminance" maskUnits="userSpaceOnUse" x="304" y="204" width="262" height="216">
<path d="M354.385 204.433L304.428 378.548L515.996 419.662L565.953 245.546L354.385 204.433Z" fill="white"/>
</mask>
<g mask="url(#mask107_2304_10)">
<path d="M452.751 230.235C452.981 229.431 452.376 228.625 451.399 228.435C450.422 228.245 449.443 228.743 449.213 229.547C448.982 230.351 449.587 231.157 450.564 231.347C451.541 231.537 452.52 231.039 452.751 230.235Z" fill="#03CEA4"/>
</g>
<mask id="mask108_2304_10" style="mask-type:luminance" maskUnits="userSpaceOnUse" x="236" y="113" width="285" height="235">
<path d="M437.509 113.58L236.658 182.049L319.855 347.344L520.706 278.875L437.509 113.58Z" fill="white"/>
</mask>
<g mask="url(#mask108_2304_10)">
<path d="M347.866 175.747C348.793 175.431 349.233 174.556 348.849 173.792C348.465 173.029 347.402 172.667 346.474 172.983C345.547 173.299 345.106 174.174 345.491 174.937C345.875 175.701 346.938 176.063 347.866 175.747Z" fill="#03CEA4"/>
</g>
<mask id="mask109_2304_10" style="mask-type:luminance" maskUnits="userSpaceOnUse" x="213" y="50" width="250" height="206">
<path d="M247.879 50.2028L213.053 226.805L427.643 255.467L462.469 78.8643L247.879 50.2028Z" fill="white"/>
</mask>
<g mask="url(#mask109_2304_10)">
<path d="M286.3 200.727C286.46 199.912 285.787 199.143 284.797 199.011C283.806 198.879 282.872 199.432 282.711 200.248C282.55 201.064 283.223 201.832 284.214 201.964C285.205 202.097 286.139 201.543 286.3 200.727Z" fill="#03CEA4"/>
</g>
<mask id="mask110_2304_10" style="mask-type:luminance" maskUnits="userSpaceOnUse" x="245" y="94" width="285" height="234">
<path d="M445.986 94.0496L245.135 162.519L328.332 327.814L529.182 259.345L445.986 94.0496Z" fill="white"/>
</mask>
<g mask="url(#mask110_2304_10)">
<path d="M292.444 148.426C293.371 148.11 293.812 147.235 293.427 146.471C293.043 145.708 291.98 145.346 291.052 145.662C290.125 145.978 289.684 146.853 290.069 147.616C290.453 148.38 291.516 148.742 292.444 148.426Z" fill="#03CEA4"/>
</g>
<mask id="mask111_2304_10" style="mask-type:luminance" maskUnits="userSpaceOnUse" x="241" y="146" width="218" height="180">
<path d="M458.885 146.66H241.49V325.57H458.885V146.66Z" fill="white"/>
</mask>
<g mask="url(#mask111_2304_10)">
<path d="M372.166 268.94C372.166 269.19 371.92 269.393 371.615 269.393C371.311 269.393 371.064 269.19 371.064 268.94C371.064 268.689 371.311 268.486 371.615 268.486C371.92 268.486 372.166 268.689 372.166 268.94Z" fill="#03CEA4"/>
</g>
<mask id="mask112_2304_10" style="mask-type:luminance" maskUnits="userSpaceOnUse" x="241" y="146" width="218" height="180">
<path d="M458.885 146.66H241.49V325.57H458.885V146.66Z" fill="white"/>
</mask>
<g mask="url(#mask112_2304_10)">
<path d="M422.873 257.587C422.873 257.838 422.627 258.041 422.322 258.041C422.018 258.041 421.771 257.838 421.771 257.587C421.771 257.337 422.018 257.134 422.322 257.134C422.627 257.134 422.873 257.337 422.873 257.587Z" fill="#03CEA4"/>
</g>
<mask id="mask113_2304_10" style="mask-type:luminance" maskUnits="userSpaceOnUse" x="241" y="146" width="218" height="180">
<path d="M458.885 146.66H241.49V325.57H458.885V146.66Z" fill="white"/>
</mask>
<g mask="url(#mask113_2304_10)">
<path d="M388.686 315.163C388.686 315.414 388.439 315.617 388.135 315.617C387.831 315.617 387.584 315.414 387.584 315.163C387.584 314.913 387.831 314.71 388.135 314.71C388.439 314.71 388.686 314.913 388.686 315.163Z" fill="#03CEA4"/>
</g>
<mask id="mask114_2304_10" style="mask-type:luminance" maskUnits="userSpaceOnUse" x="241" y="146" width="218" height="180">
<path d="M458.885 146.66H241.49V325.57H458.885V146.66Z" fill="white"/>
</mask>
<g mask="url(#mask114_2304_10)">
<path d="M323.108 275.218C323.108 275.468 322.861 275.671 322.557 275.671C322.252 275.671 322.006 275.469 322.006 275.218C322.006 274.968 322.252 274.765 322.557 274.765C322.861 274.765 323.108 274.968 323.108 275.218Z" fill="#03CEA4"/>
</g>
<mask id="mask115_2304_10" style="mask-type:luminance" maskUnits="userSpaceOnUse" x="241" y="146" width="218" height="180">
<path d="M458.885 146.66H241.49V325.57H458.885V146.66Z" fill="white"/>
</mask>
<g mask="url(#mask115_2304_10)">
<path d="M260.186 271.704C260.186 271.954 259.939 272.157 259.635 272.157C259.331 272.157 259.084 271.954 259.084 271.704C259.084 271.454 259.331 271.25 259.635 271.25C259.939 271.251 260.186 271.454 260.186 271.704Z" fill="#03CEA4"/>
</g>
<mask id="mask116_2304_10" style="mask-type:luminance" maskUnits="userSpaceOnUse" x="241" y="146" width="218" height="180">
<path d="M458.885 146.66H241.49V325.57H458.885V146.66Z" fill="white"/>
</mask>
<g mask="url(#mask116_2304_10)">
<path d="M270.112 187.974C270.112 188.225 269.865 188.428 269.561 188.428C269.257 188.428 269.01 188.225 269.01 187.974C269.01 187.724 269.256 187.521 269.561 187.521C269.865 187.521 270.112 187.724 270.112 187.974Z" fill="#03CEA4"/>
</g>
<mask id="mask117_2304_10" style="mask-type:luminance" maskUnits="userSpaceOnUse" x="241" y="146" width="218" height="180">
<path d="M458.885 146.66H241.49V325.57H458.885V146.66Z" fill="white"/>
</mask>
<g mask="url(#mask117_2304_10)">
<path d="M432.6 168.132C432.6 168.383 432.353 168.586 432.049 168.586C431.745 168.586 431.498 168.383 431.498 168.132C431.498 167.882 431.745 167.679 432.049 167.679C432.353 167.679 432.6 167.882 432.6 168.132Z" fill="#03CEA4"/>
</g>
<mask id="mask118_2304_10" style="mask-type:luminance" maskUnits="userSpaceOnUse" x="241" y="146" width="218" height="180">
<path d="M458.885 146.66H241.49V325.57H458.885V146.66Z" fill="white"/>
</mask>
<g mask="url(#mask118_2304_10)">
<path d="M276.748 320.921C276.748 321.172 276.502 321.375 276.197 321.375C275.893 321.375 275.646 321.172 275.646 320.921C275.646 320.671 275.893 320.468 276.197 320.468C276.502 320.468 276.748 320.671 276.748 320.921Z" fill="#03CEA4"/>
</g>
<mask id="mask119_2304_10" style="mask-type:luminance" maskUnits="userSpaceOnUse" x="241" y="146" width="218" height="180">
<path d="M458.885 146.66H241.49V325.57H458.885V146.66Z" fill="white"/>
</mask>
<g mask="url(#mask119_2304_10)">
<path d="M305.323 308.56C305.323 308.811 305.076 309.014 304.772 309.014C304.467 309.014 304.221 308.811 304.221 308.56C304.221 308.31 304.467 308.107 304.772 308.107C305.076 308.107 305.323 308.31 305.323 308.56Z" fill="#03CEA4"/>
</g>
<mask id="mask120_2304_10" style="mask-type:luminance" maskUnits="userSpaceOnUse" x="241" y="146" width="218" height="180">
<path d="M458.885 146.66H241.49V325.57H458.885V146.66Z" fill="white"/>
</mask>
<g mask="url(#mask120_2304_10)">
<path d="M431.217 313.374C431.217 313.625 430.971 313.828 430.666 313.828C430.362 313.828 430.115 313.625 430.115 313.374C430.115 313.124 430.362 312.921 430.666 312.921C430.97 312.921 431.217 313.124 431.217 313.374Z" fill="#03CEA4"/>
</g>
<mask id="mask121_2304_10" style="mask-type:luminance" maskUnits="userSpaceOnUse" x="241" y="146" width="218" height="180">
<path d="M458.885 146.66H241.49V325.57H458.885V146.66Z" fill="white"/>
</mask>
<g mask="url(#mask121_2304_10)">
<path d="M255.244 231.726C255.244 231.977 254.998 232.18 254.694 232.18C254.389 232.18 254.143 231.977 254.143 231.726C254.143 231.476 254.389 231.273 254.694 231.273C254.998 231.273 255.244 231.476 255.244 231.726Z" fill="#03CEA4"/>
</g>
<mask id="mask122_2304_10" style="mask-type:luminance" maskUnits="userSpaceOnUse" x="241" y="146" width="218" height="180">
<path d="M458.885 146.66H241.49V325.57H458.885V146.66Z" fill="white"/>
</mask>
<g mask="url(#mask122_2304_10)">
<path d="M261.373 156.909C261.373 157.159 261.127 157.362 260.822 157.362C260.518 157.362 260.271 157.159 260.271 156.909C260.271 156.659 260.518 156.456 260.822 156.456C261.127 156.456 261.373 156.659 261.373 156.909Z" fill="#03CEA4"/>
</g>
<mask id="mask123_2304_10" style="mask-type:luminance" maskUnits="userSpaceOnUse" x="241" y="146" width="218" height="180">
<path d="M458.885 146.66H241.49V325.57H458.885V146.66Z" fill="white"/>
</mask>
<g mask="url(#mask123_2304_10)">
<path d="M382.018 286.579C382.004 286.329 382.239 286.117 382.543 286.105C382.847 286.093 383.105 286.287 383.119 286.537C383.133 286.787 382.898 286.999 382.594 287.011C382.29 287.022 382.032 286.829 382.018 286.579Z" fill="#CA1551"/>
</g>
<mask id="mask124_2304_10" style="mask-type:luminance" maskUnits="userSpaceOnUse" x="241" y="146" width="218" height="180">
<path d="M458.885 146.66H241.49V325.57H458.885V146.66Z" fill="white"/>
</mask>
<g mask="url(#mask124_2304_10)">
<path d="M385.127 174.833C385.127 175.083 384.881 175.286 384.576 175.286C384.272 175.286 384.025 175.083 384.025 174.833C384.025 174.582 384.272 174.379 384.576 174.379C384.881 174.379 385.127 174.582 385.127 174.833Z" fill="#03CEA4"/>
</g>
<mask id="mask125_2304_10" style="mask-type:luminance" maskUnits="userSpaceOnUse" x="116" y="87" width="308" height="254">
<path d="M269.792 87.222L116.072 213.729L269.792 340.237L423.512 213.729L269.792 87.222Z" fill="white"/>
</mask>
<g mask="url(#mask125_2304_10)">
<path d="M280.198 248.726C280.908 248.142 280.908 247.195 280.198 246.611C279.488 246.027 278.337 246.027 277.627 246.611C276.917 247.195 276.917 248.142 277.627 248.726C278.337 249.31 279.488 249.31 280.198 248.726Z" fill="#345995"/>
</g>
<mask id="mask126_2304_10" style="mask-type:luminance" maskUnits="userSpaceOnUse" x="147" y="56" width="309" height="254">
<path d="M301.718 56.6727L147.998 183.18L301.718 309.688L455.437 183.18L301.718 56.6727Z" fill="white"/>
</mask>
<g mask="url(#mask126_2304_10)">
<path d="M251.354 201.736C252.064 201.152 252.064 200.205 251.354 199.621C250.644 199.037 249.493 199.037 248.783 199.621C248.073 200.205 248.073 201.152 248.783 201.736C249.493 202.321 250.644 202.321 251.354 201.736Z" fill="#345995"/>
</g>
<mask id="mask127_2304_10" style="mask-type:luminance" maskUnits="userSpaceOnUse" x="154" y="2" width="262" height="216">
<path d="M204.303 2.00902L154.346 176.125L365.914 217.238L415.871 43.1226L204.303 2.00902Z" fill="white"/>
</mask>
<g mask="url(#mask127_2304_10)">
<path d="M211.653 172.929C211.884 172.125 211.279 171.32 210.302 171.13C209.325 170.94 208.346 171.438 208.115 172.242C207.884 173.046 208.489 173.852 209.466 174.042C210.443 174.231 211.422 173.733 211.653 172.929Z" fill="#345995"/>
</g>
<mask id="mask128_2304_10" style="mask-type:luminance" maskUnits="userSpaceOnUse" x="192" y="128" width="219" height="180">
<path d="M410.334 128.909H192.939V307.819H410.334V128.909Z" fill="white"/>
</mask>
<g mask="url(#mask128_2304_10)">
<path d="M304.644 181.199C305.648 181.199 306.462 180.53 306.462 179.703C306.462 178.877 305.648 178.208 304.644 178.208C303.64 178.208 302.826 178.877 302.826 179.703C302.826 180.53 303.64 181.199 304.644 181.199Z" fill="#345995"/>
</g>
<mask id="mask129_2304_10" style="mask-type:luminance" maskUnits="userSpaceOnUse" x="192" y="128" width="219" height="180">
<path d="M410.334 128.909H192.939V307.819H410.334V128.909Z" fill="white"/>
</mask>
<g mask="url(#mask129_2304_10)">
<path d="M345.101 158.11C346.105 158.11 346.919 157.44 346.919 156.614C346.919 155.788 346.105 155.118 345.101 155.118C344.097 155.118 343.283 155.788 343.283 156.614C343.283 157.44 344.097 158.11 345.101 158.11Z" fill="#345995"/>
</g>
<mask id="mask130_2304_10" style="mask-type:luminance" maskUnits="userSpaceOnUse" x="183" y="169" width="251" height="206">
<path d="M218.606 169.207L183.779 345.809L398.369 374.471L433.196 197.868L218.606 169.207Z" fill="white"/>
</mask>
<g mask="url(#mask130_2304_10)">
<path d="M345.034 242.023C345.195 241.208 344.522 240.439 343.531 240.307C342.54 240.175 341.606 240.728 341.445 241.544C341.285 242.359 341.958 243.128 342.949 243.26C343.939 243.393 344.873 242.839 345.034 242.023Z" fill="#345995"/>
</g>
<mask id="mask131_2304_10" style="mask-type:luminance" maskUnits="userSpaceOnUse" x="169" y="221" width="262" height="217">
<path d="M219.115 221.771L169.158 395.887L380.727 437L430.684 262.885L219.115 221.771Z" fill="white"/>
</mask>
<g mask="url(#mask131_2304_10)">
<path d="M387.766 275.116C387.997 274.312 387.392 273.507 386.415 273.317C385.438 273.127 384.459 273.625 384.228 274.429C383.998 275.233 384.603 276.039 385.58 276.229C386.556 276.418 387.536 275.921 387.766 275.116Z" fill="#345995"/>
</g>
<mask id="mask132_2304_10" style="mask-type:luminance" maskUnits="userSpaceOnUse" x="204" y="125" width="285" height="235">
<path d="M405.017 125.391L204.166 193.86L287.363 359.155L488.214 290.686L405.017 125.391Z" fill="white"/>
</mask>
<g mask="url(#mask132_2304_10)">
<path d="M397.635 139.493C398.563 139.177 399.003 138.302 398.619 137.538C398.235 136.775 397.171 136.413 396.244 136.729C395.316 137.045 394.876 137.92 395.26 138.683C395.644 139.447 396.708 139.809 397.635 139.493Z" fill="#345995"/>
</g>
<mask id="mask133_2304_10" style="mask-type:luminance" maskUnits="userSpaceOnUse" x="251" y="24" width="250" height="206">
<path d="M286.125 24.1603L251.299 200.763L465.889 229.424L500.716 52.8218L286.125 24.1603Z" fill="white"/>
</mask>
<g mask="url(#mask133_2304_10)">
<path d="M275.225 136.847C275.386 136.031 274.713 135.263 273.722 135.131C272.731 134.998 271.798 135.552 271.637 136.368C271.476 137.183 272.149 137.952 273.14 138.084C274.131 138.216 275.065 137.662 275.225 136.847Z" fill="#345995"/>
</g>
<mask id="mask134_2304_10" style="mask-type:luminance" maskUnits="userSpaceOnUse" x="192" y="128" width="219" height="180">
<path d="M410.334 128.909H192.939V307.819H410.334V128.909Z" fill="white"/>
</mask>
<g mask="url(#mask134_2304_10)">
<path d="M200.242 287.833C201.245 287.833 202.059 287.163 202.059 286.337C202.059 285.511 201.245 284.841 200.242 284.841C199.238 284.841 198.424 285.511 198.424 286.337C198.424 287.163 199.238 287.833 200.242 287.833Z" fill="#345995"/>
</g>
<mask id="mask135_2304_10" style="mask-type:luminance" maskUnits="userSpaceOnUse" x="107" y="109" width="299" height="246">
<path d="M293.44 109.357L107.111 201.514L219.091 354.858L405.42 262.701L293.44 109.357Z" fill="white"/>
</mask>
<g mask="url(#mask135_2304_10)">
<path d="M309.983 293.801C310.844 293.375 311.122 292.456 310.605 291.748C310.088 291.04 308.971 290.811 308.111 291.236C307.25 291.662 306.972 292.581 307.489 293.289C308.006 293.997 309.123 294.226 309.983 293.801Z" fill="#345995"/>
</g>
<mask id="mask136_2304_10" style="mask-type:luminance" maskUnits="userSpaceOnUse" x="192" y="128" width="219" height="180">
<path d="M410.334 128.909H192.939V307.819H410.334V128.909Z" fill="white"/>
</mask>
<g mask="url(#mask136_2304_10)">
<path d="M404.183 301.747C405.187 301.747 406.001 301.077 406.001 300.251C406.001 299.425 405.187 298.755 404.183 298.755C403.179 298.755 402.365 299.425 402.365 300.251C402.365 301.077 403.179 301.747 404.183 301.747Z" fill="#CA1551"/>
</g>
<mask id="mask137_2304_10" style="mask-type:luminance" maskUnits="userSpaceOnUse" x="0" y="122" width="250" height="206">
<path d="M35.3676 122.487L0.541016 299.089L215.131 327.75L249.958 151.148L35.3676 122.487Z" fill="white"/>
</mask>
<g mask="url(#mask137_2304_10)">
<path d="M220.057 307.29C220.218 306.475 219.545 305.706 218.554 305.574C217.563 305.442 216.63 305.995 216.469 306.811C216.308 307.626 216.981 308.395 217.972 308.527C218.963 308.66 219.897 308.106 220.057 307.29Z" fill="#CA1551"/>
</g>
<mask id="mask138_2304_10" style="mask-type:luminance" maskUnits="userSpaceOnUse" x="139" y="143" width="262" height="216">
<path d="M189.143 143.447L139.186 317.562L350.754 358.676L400.711 184.561L189.143 143.447Z" fill="white"/>
</mask>
<g mask="url(#mask138_2304_10)">
<path d="M312.645 251.535C312.876 250.731 312.271 249.926 311.294 249.736C310.317 249.546 309.338 250.044 309.107 250.848C308.876 251.652 309.481 252.458 310.458 252.647C311.435 252.837 312.414 252.339 312.645 251.535Z" fill="#CA1551"/>
</g>
<mask id="mask139_2304_10" style="mask-type:luminance" maskUnits="userSpaceOnUse" x="241" y="154" width="250" height="206">
<path d="M276.09 154.482L241.264 331.084L455.854 359.745L490.68 183.143L276.09 154.482Z" fill="white"/>
</mask>
<g mask="url(#mask139_2304_10)">
<path d="M363.268 206.866C363.429 206.051 362.756 205.283 361.765 205.15C360.774 205.018 359.841 205.572 359.68 206.387C359.519 207.203 360.192 207.971 361.183 208.103C362.174 208.236 363.108 207.682 363.268 206.866Z" fill="#CA1551"/>
</g>
<mask id="mask140_2304_10" style="mask-type:luminance" maskUnits="userSpaceOnUse" x="192" y="128" width="219" height="180">
<path d="M410.334 128.909H192.939V307.819H410.334V128.909Z" fill="white"/>
</mask>
<g mask="url(#mask140_2304_10)">
<path d="M376.757 154.898C377.761 154.898 378.575 154.228 378.575 153.402C378.575 152.576 377.761 151.906 376.757 151.906C375.753 151.906 374.939 152.576 374.939 153.402C374.939 154.228 375.753 154.898 376.757 154.898Z" fill="#CA1551"/>
</g>
<mask id="mask141_2304_10" style="mask-type:luminance" maskUnits="userSpaceOnUse" x="192" y="128" width="219" height="180">
<path d="M410.334 128.909H192.939V307.819H410.334V128.909Z" fill="white"/>
</mask>
<g mask="url(#mask141_2304_10)">
<path d="M293.295 154.577C293.295 154.828 293.049 155.031 292.744 155.031C292.44 155.031 292.193 154.828 292.193 154.577C292.193 154.327 292.44 154.124 292.744 154.124C293.049 154.124 293.295 154.327 293.295 154.577Z" fill="#345995"/>
</g>
<mask id="mask142_2304_10" style="mask-type:luminance" maskUnits="userSpaceOnUse" x="192" y="128" width="219" height="180">
<path d="M410.334 128.909H192.939V307.819H410.334V128.909Z" fill="white"/>
</mask>
<g mask="url(#mask142_2304_10)">
<path d="M214.006 194.881C214.006 195.131 213.76 195.334 213.455 195.334C213.151 195.334 212.904 195.131 212.904 194.881C212.904 194.63 213.151 194.427 213.455 194.427C213.759 194.427 214.006 194.63 214.006 194.881Z" fill="#345995"/>
</g>
<mask id="mask143_2304_10" style="mask-type:luminance" maskUnits="userSpaceOnUse" x="192" y="128" width="219" height="180">
<path d="M410.334 128.909H192.939V307.819H410.334V128.909Z" fill="white"/>
</mask>
<g mask="url(#mask143_2304_10)">
<path d="M226.971 206.982C226.971 207.232 226.724 207.435 226.42 207.435C226.116 207.435 225.869 207.232 225.869 206.982C225.869 206.731 226.116 206.528 226.42 206.528C226.724 206.528 226.971 206.731 226.971 206.982Z" fill="#345995"/>
</g>
<mask id="mask144_2304_10" style="mask-type:luminance" maskUnits="userSpaceOnUse" x="192" y="128" width="219" height="180">
<path d="M410.334 128.909H192.939V307.819H410.334V128.909Z" fill="white"/>
</mask>
<g mask="url(#mask144_2304_10)">
<path d="M286.174 280.465C286.174 280.716 285.928 280.919 285.623 280.919C285.319 280.919 285.072 280.716 285.072 280.465C285.072 280.215 285.319 280.012 285.623 280.012C285.928 280.012 286.174 280.215 286.174 280.465Z" fill="#345995"/>
</g>
<mask id="mask145_2304_10" style="mask-type:luminance" maskUnits="userSpaceOnUse" x="192" y="128" width="219" height="180">
<path d="M410.334 128.909H192.939V307.819H410.334V128.909Z" fill="white"/>
</mask>
<g mask="url(#mask145_2304_10)">
<path d="M363.299 264.363C363.299 264.613 363.053 264.817 362.748 264.817C362.444 264.817 362.197 264.614 362.197 264.363C362.197 264.113 362.444 263.91 362.748 263.91C363.053 263.91 363.299 264.113 363.299 264.363Z" fill="#345995"/>
</g>
<mask id="mask146_2304_10" style="mask-type:luminance" maskUnits="userSpaceOnUse" x="192" y="128" width="219" height="180">
<path d="M410.334 128.909H192.939V307.819H410.334V128.909Z" fill="white"/>
</mask>
<g mask="url(#mask146_2304_10)">
<path d="M399.498 218.367C399.498 218.617 399.252 218.82 398.947 218.82C398.643 218.82 398.396 218.617 398.396 218.367C398.396 218.116 398.643 217.913 398.947 217.913C399.252 217.913 399.498 218.116 399.498 218.367Z" fill="#345995"/>
</g>
<mask id="mask147_2304_10" style="mask-type:luminance" maskUnits="userSpaceOnUse" x="192" y="128" width="219" height="180">
<path d="M410.334 128.909H192.939V307.819H410.334V128.909Z" fill="white"/>
</mask>
<g mask="url(#mask147_2304_10)">
<path d="M312.979 207.47C312.979 207.72 312.732 207.923 312.428 207.923C312.124 207.923 311.877 207.72 311.877 207.47C311.877 207.219 312.124 207.016 312.428 207.016C312.732 207.016 312.979 207.219 312.979 207.47Z" fill="#345995"/>
</g>
<mask id="mask148_2304_10" style="mask-type:luminance" maskUnits="userSpaceOnUse" x="192" y="128" width="219" height="180">
<path d="M410.334 128.909H192.939V307.819H410.334V128.909Z" fill="white"/>
</mask>
<g mask="url(#mask148_2304_10)">
<path d="M234.678 154.577C234.678 154.828 234.431 155.031 234.127 155.031C233.823 155.031 233.576 154.828 233.576 154.577C233.576 154.327 233.823 154.124 234.127 154.124C234.431 154.124 234.678 154.327 234.678 154.577Z" fill="#345995"/>
</g>
<mask id="mask149_2304_10" style="mask-type:luminance" maskUnits="userSpaceOnUse" x="192" y="128" width="219" height="180">
<path d="M410.334 128.909H192.939V307.819H410.334V128.909Z" fill="white"/>
</mask>
<g mask="url(#mask149_2304_10)">
<path d="M350.213 133.335C350.213 133.586 349.967 133.789 349.662 133.789C349.358 133.789 349.111 133.586 349.111 133.335C349.111 133.085 349.358 132.882 349.662 132.882C349.967 132.882 350.213 133.085 350.213 133.335Z" fill="#345995"/>
</g>
<path d="M312.182 195.028C313.109 194.712 313.55 193.837 313.166 193.074C312.782 192.31 311.718 191.948 310.791 192.264C309.863 192.58 309.423 193.455 309.807 194.218C310.191 194.982 311.254 195.344 312.182 195.028Z" fill="#FB4D3D"/>
<path d="M381.092 184.412C381.802 183.828 381.802 182.881 381.092 182.297C380.382 181.713 379.231 181.713 378.522 182.297C377.812 182.881 377.812 183.828 378.522 184.412C379.231 184.996 380.382 184.996 381.092 184.412Z" fill="#FB4D3D"/>
<path d="M411.383 253.699C411.614 252.895 411.009 252.09 410.032 251.9C409.055 251.71 408.076 252.208 407.845 253.012C407.615 253.816 408.22 254.622 409.197 254.812C410.174 255.001 411.153 254.504 411.383 253.699Z" fill="#FB4D3D"/>
<path d="M349.372 229.09C349.602 228.286 348.997 227.48 348.02 227.291C347.043 227.101 346.064 227.599 345.834 228.403C345.603 229.207 346.208 230.012 347.185 230.202C348.162 230.392 349.141 229.894 349.372 229.09Z" fill="#FB4D3D"/>
<path d="M426.299 188.824C426.299 189.074 426.053 189.277 425.748 189.277C425.444 189.277 425.197 189.075 425.197 188.824C425.197 188.574 425.444 188.371 425.748 188.371C426.053 188.371 426.299 188.574 426.299 188.824Z" fill="#FB4D3D"/>
<path d="M366.373 220.442C366.373 220.693 366.127 220.896 365.822 220.896C365.518 220.896 365.271 220.693 365.271 220.442C365.271 220.192 365.518 219.989 365.822 219.989C366.127 219.989 366.373 220.192 366.373 220.442Z" fill="#FB4D3D"/>
<path d="M337.518 231.795C337.518 232.045 337.271 232.248 336.967 232.248C336.663 232.248 336.416 232.045 336.416 231.795C336.416 231.544 336.663 231.341 336.967 231.341C337.271 231.341 337.518 231.544 337.518 231.795Z" fill="#FB4D3D"/>
<path d="M277.155 180.701C276.909 180.554 276.854 180.27 277.033 180.068C277.212 179.865 277.556 179.82 277.802 179.967C278.049 180.114 278.103 180.397 277.925 180.6C277.746 180.803 277.401 180.848 277.155 180.701Z" fill="#FB4D3D"/>
<path d="M390.44 235.154C390.194 235.007 390.139 234.724 390.318 234.521C390.497 234.318 390.841 234.273 391.087 234.421C391.334 234.568 391.389 234.851 391.21 235.054C391.031 235.256 390.686 235.302 390.44 235.154Z" fill="#FB4D3D"/>
<path d="M391.1 283.048C390.862 283.205 390.516 283.173 390.326 282.977C390.136 282.782 390.174 282.496 390.412 282.34C390.65 282.184 390.996 282.215 391.186 282.411C391.376 282.607 391.338 282.892 391.1 283.048Z" fill="#FB4D3D"/>
<path d="M358.573 297.122C358.335 297.278 357.988 297.246 357.798 297.051C357.608 296.855 357.647 296.57 357.885 296.414C358.122 296.257 358.469 296.289 358.659 296.485C358.849 296.68 358.81 296.966 358.573 297.122Z" fill="#FB4D3D"/>
<path d="M440.1 265.226C440.086 264.976 440.321 264.764 440.625 264.752C440.929 264.741 441.187 264.934 441.201 265.184C441.215 265.434 440.98 265.647 440.676 265.658C440.372 265.67 440.114 265.476 440.1 265.226Z" fill="#FB4D3D"/>
<path d="M420.737 265.211C420.723 264.961 420.958 264.748 421.262 264.737C421.566 264.725 421.824 264.919 421.838 265.169C421.852 265.419 421.617 265.631 421.313 265.643C421.009 265.654 420.751 265.461 420.737 265.211Z" fill="#FB4D3D"/>
<path d="M251.119 278.994C251.119 279.245 250.873 279.448 250.569 279.448C250.264 279.448 250.018 279.245 250.018 278.994C250.018 278.744 250.264 278.541 250.569 278.541C250.873 278.541 251.119 278.744 251.119 278.994Z" fill="#FB4D3D"/>
<path d="M268.077 247.669C268.077 247.92 267.83 248.123 267.526 248.123C267.221 248.123 266.975 247.92 266.975 247.669C266.975 247.419 267.221 247.216 267.526 247.216C267.83 247.216 268.077 247.419 268.077 247.669Z" fill="#FB4D3D"/>
<path d="M425.268 233.291C425.268 233.541 425.021 233.744 424.717 233.744C424.413 233.744 424.166 233.541 424.166 233.291C424.166 233.04 424.413 232.837 424.717 232.837C425.021 232.837 425.268 233.04 425.268 233.291Z" fill="#FB4D3D"/>
<path d="M268.503 291.853C268.257 291.706 268.202 291.423 268.381 291.22C268.559 291.017 268.904 290.972 269.15 291.119C269.396 291.266 269.451 291.55 269.272 291.752C269.094 291.955 268.749 292 268.503 291.853Z" fill="#FB4D3D"/>
<path d="M291.112 266.219C290.866 266.072 290.811 265.789 290.99 265.586C291.168 265.383 291.513 265.338 291.759 265.485C292.005 265.632 292.06 265.916 291.882 266.119C291.703 266.321 291.358 266.366 291.112 266.219Z" fill="#FB4D3D"/>
<path d="M356.452 169.632C356.452 169.882 356.205 170.085 355.901 170.085C355.596 170.085 355.35 169.882 355.35 169.632C355.35 169.381 355.596 169.178 355.901 169.178C356.205 169.178 356.452 169.381 356.452 169.632Z" fill="#FB4D3D"/>
<path d="M315.541 173.828C315.541 174.078 315.295 174.281 314.99 174.281C314.686 174.281 314.439 174.078 314.439 173.828C314.439 173.578 314.686 173.375 314.99 173.375C315.295 173.375 315.541 173.578 315.541 173.828Z" fill="#FB4D3D"/>
<path d="M292.69 146.382C292.444 146.235 292.389 145.952 292.568 145.749C292.747 145.546 293.091 145.501 293.337 145.649C293.584 145.796 293.639 146.079 293.46 146.282C293.281 146.484 292.937 146.529 292.69 146.382Z" fill="#FB4D3D"/>
<path d="M294.471 171.235C294.225 171.088 294.171 170.804 294.349 170.602C294.528 170.399 294.872 170.354 295.119 170.501C295.365 170.648 295.42 170.932 295.241 171.134C295.062 171.337 294.718 171.382 294.471 171.235Z" fill="#FB4D3D"/>
<path d="M296.691 272.422C297.695 272.422 298.508 271.753 298.508 270.927C298.508 270.1 297.695 269.431 296.691 269.431C295.687 269.431 294.873 270.1 294.873 270.927C294.873 271.753 295.687 272.422 296.691 272.422Z" fill="#FB4D3D"/>
<path d="M379.747 305.428C379.977 304.623 379.372 303.818 378.395 303.628C377.418 303.438 376.439 303.936 376.209 304.74C375.978 305.544 376.583 306.35 377.56 306.54C378.537 306.729 379.516 306.232 379.747 305.428Z" fill="#FB4D3D"/>
<path d="M438.82 248.295C439.824 248.295 440.637 247.625 440.637 246.799C440.637 245.972 439.824 245.303 438.82 245.303C437.816 245.303 437.002 245.972 437.002 246.799C437.002 247.625 437.816 248.295 438.82 248.295Z" fill="#FB4D3D"/>
<path d="M238.413 260.102C238.753 259.325 238.264 258.468 237.319 258.188C236.375 257.908 235.333 258.311 234.993 259.088C234.653 259.866 235.143 260.723 236.087 261.003C237.031 261.283 238.073 260.879 238.413 260.102Z" fill="#FB4D3D"/>
<path d="M289.469 157.053C289.7 156.248 289.095 155.443 288.118 155.253C287.141 155.063 286.162 155.561 285.931 156.365C285.701 157.169 286.306 157.975 287.283 158.165C288.26 158.354 289.239 157.857 289.469 157.053Z" fill="#FB4D3D"/>
<path d="M363.612 142.795C363.612 143.046 363.365 143.249 363.061 143.249C362.756 143.249 362.51 143.046 362.51 142.795C362.51 142.545 362.756 142.342 363.061 142.342C363.365 142.342 363.612 142.545 363.612 142.795Z" fill="#03CEA4"/>
<path d="M287.127 243.96C287.127 244.211 286.881 244.414 286.576 244.414C286.272 244.414 286.025 244.211 286.025 243.96C286.025 243.71 286.272 243.507 286.576 243.507C286.881 243.507 287.127 243.71 287.127 243.96Z" fill="#345995"/>
<path d="M391.315 307.425C391.315 307.675 391.068 307.879 390.764 307.879C390.46 307.879 390.213 307.676 390.213 307.425C390.213 307.175 390.459 306.972 390.764 306.972C391.068 306.972 391.315 307.175 391.315 307.425Z" fill="#345995"/>
<path d="M313.252 298.22C313.252 298.47 313.006 298.673 312.701 298.673C312.397 298.673 312.15 298.47 312.15 298.22C312.15 297.969 312.397 297.766 312.701 297.766C313.006 297.766 313.252 297.969 313.252 298.22Z" fill="#345995"/>
<path d="M313.608 225.777C313.608 226.027 313.361 226.23 313.057 226.23C312.752 226.23 312.506 226.027 312.506 225.777C312.506 225.526 312.752 225.323 313.057 225.323C313.361 225.323 313.608 225.526 313.608 225.777Z" fill="#345995"/>
<path d="M410.733 176.699C410.719 176.448 410.954 176.236 411.258 176.225C411.562 176.213 411.82 176.406 411.834 176.656C411.848 176.907 411.613 177.119 411.309 177.13C411.005 177.142 410.747 176.949 410.733 176.699Z" fill="#CA1551"/>
<path d="M338.916 305.428C338.679 305.585 338.332 305.553 338.142 305.357C337.952 305.162 337.991 304.876 338.228 304.72C338.466 304.564 338.813 304.595 339.003 304.791C339.193 304.987 339.154 305.272 338.916 305.428Z" fill="#FB4D3D"/>
</svg>
