<svg width="16" height="16" viewBox="0 0 16 16" fill="none" xmlns="http://www.w3.org/2000/svg">
<path d="M2.66732 13.3327C2.30065 13.3327 1.98676 13.2021 1.72565 12.941C1.46454 12.6799 1.33398 12.366 1.33398 11.9993V3.99935C1.33398 3.63268 1.46454 3.31879 1.72565 3.05768C1.98676 2.79657 2.30065 2.66602 2.66732 2.66602H13.334C13.7007 2.66602 14.0145 2.79657 14.2757 3.05768C14.5368 3.31879 14.6673 3.63268 14.6673 3.99935V11.9993C14.6673 12.366 14.5368 12.6799 14.2757 12.941C14.0145 13.2021 13.7007 13.3327 13.334 13.3327H2.66732ZM8.00065 8.54935C8.05621 8.54935 8.11454 8.54102 8.17565 8.52435C8.23676 8.50768 8.29509 8.48268 8.35065 8.44935L13.0673 5.49935C13.1562 5.44379 13.2229 5.37435 13.2673 5.29102C13.3118 5.20768 13.334 5.11602 13.334 5.01602C13.334 4.79379 13.2395 4.62713 13.0507 4.51602C12.8618 4.4049 12.6673 4.41046 12.4673 4.53268L8.00065 7.33268L3.53398 4.53268C3.33398 4.41046 3.13954 4.40768 2.95065 4.52435C2.76176 4.64102 2.66732 4.8049 2.66732 5.01602C2.66732 5.12713 2.68954 5.22435 2.73398 5.30768C2.77843 5.39102 2.8451 5.4549 2.93398 5.49935L7.65065 8.44935C7.70621 8.48268 7.76454 8.50768 7.82565 8.52435C7.88676 8.54102 7.9451 8.54935 8.00065 8.54935Z" fill="white"/>
</svg>
