<svg width="16" height="16" viewBox="0 0 16 16" fill="none" xmlns="http://www.w3.org/2000/svg">
<path d="M4.66602 10C4.11046 10 3.63824 9.80556 3.24935 9.41667C2.86046 9.02778 2.66602 8.55556 2.66602 8C2.66602 7.44444 2.86046 6.97222 3.24935 6.58333C3.63824 6.19444 4.11046 6 4.66602 6C5.22157 6 5.69379 6.19444 6.08268 6.58333C6.47157 6.97222 6.66602 7.44444 6.66602 8C6.66602 8.55556 6.47157 9.02778 6.08268 9.41667C5.69379 9.80556 5.22157 10 4.66602 10ZM4.66602 12C5.52157 12 6.29379 11.7556 6.98268 11.2667C7.67157 10.7778 8.1549 10.1333 8.43268 9.33333H8.66602L9.53268 10.2C9.59935 10.2667 9.67157 10.3139 9.74935 10.3417C9.82713 10.3694 9.91046 10.3833 9.99935 10.3833C10.0882 10.3833 10.1716 10.3694 10.2493 10.3417C10.3271 10.3139 10.3993 10.2667 10.466 10.2L11.3327 9.33333L12.4993 10.25C12.566 10.3056 12.641 10.3472 12.7243 10.375C12.8077 10.4028 12.8938 10.4111 12.9827 10.4C13.0716 10.3889 13.1521 10.3639 13.2243 10.325C13.2966 10.2861 13.3605 10.2333 13.416 10.1667L14.916 8.45C14.9716 8.38333 15.0132 8.31111 15.041 8.23333C15.0688 8.15556 15.0827 8.07222 15.0827 7.98333C15.0827 7.89444 15.066 7.81389 15.0327 7.74167C14.9993 7.66944 14.9549 7.60556 14.8994 7.55L14.216 6.86667C14.1493 6.8 14.0743 6.75 13.991 6.71667C13.9077 6.68333 13.8216 6.66667 13.7327 6.66667H8.43268C8.16602 5.91111 7.69657 5.27778 7.02435 4.76667C6.35213 4.25556 5.56602 4 4.66602 4C3.5549 4 2.61046 4.38889 1.83268 5.16667C1.0549 5.94444 0.666016 6.88889 0.666016 8C0.666016 9.11111 1.0549 10.0556 1.83268 10.8333C2.61046 11.6111 3.5549 12 4.66602 12Z" fill="white"/>
</svg>
