<svg width="18" height="18" viewBox="0 0 18 18" fill="none" xmlns="http://www.w3.org/2000/svg">
<g clip-path="url(#clip0_9_192)">
<path d="M2.67188 5.30859C3.25436 5.30859 3.72656 4.83639 3.72656 4.25391C3.72656 3.67142 3.25436 3.19922 2.67188 3.19922C2.08939 3.19922 1.61719 3.67142 1.61719 4.25391C1.61719 4.83639 2.08939 5.30859 2.67188 5.30859Z" fill="black"/>
<path d="M5.52907 2.94923C5.43917 2.7977 5.37382 2.63008 5.33859 2.45166L3.90137 3.26011C4.01169 3.39634 4.09989 3.55107 4.16043 3.71901L5.52907 2.94923Z" fill="black"/>
<path d="M15.1348 5.30859C14.8052 5.30859 14.5371 5.5767 14.5371 5.90625L14.5371 12.0938C14.5371 12.4233 14.8052 12.6914 15.1348 12.6914H15.5215C15.851 12.6914 16.1191 12.4233 16.1191 12.0938V5.90625C16.1191 5.5767 15.851 5.30859 15.5215 5.30859H15.1348Z" fill="black"/>
<path d="M12.5045 4.56369L14.152 2.90846C14.005 2.80433 13.8766 2.67583 13.7726 2.52881L12.1626 4.12951C12.3004 4.25273 12.4165 4.39954 12.5045 4.56369Z" fill="black"/>
<path d="M9.96361 4.21954L8.33316 2.79297C8.25937 2.95648 8.15868 3.10519 8.03662 3.23358L9.66692 4.66029C9.74075 4.49675 9.84147 4.34796 9.96361 4.21954Z" fill="black"/>
<path d="M15.0645 2.67188C15.6469 2.67187 16.1191 2.19968 16.1191 1.61719C16.1191 1.0347 15.6469 0.5625 15.0645 0.5625C14.482 0.5625 14.0098 1.0347 14.0098 1.61719C14.0098 2.19968 14.482 2.67188 15.0645 2.67188Z" fill="black"/>
<path d="M11.3027 8.73633H10.916C10.5865 8.73633 10.3184 9.00443 10.3184 9.33398V12.0938C10.3184 12.4233 10.5865 12.6914 10.916 12.6914H11.3027C11.6323 12.6914 11.9004 12.4233 11.9004 12.0938V9.33398C11.9004 9.00443 11.6323 8.73633 11.3027 8.73633Z" fill="black"/>
<path d="M11.1094 6.36328C11.6919 6.36328 12.1641 5.89108 12.1641 5.30859C12.1641 4.72611 11.6919 4.25391 11.1094 4.25391C10.5269 4.25391 10.0547 4.72611 10.0547 5.30859C10.0547 5.89108 10.5269 6.36328 11.1094 6.36328Z" fill="black"/>
<path d="M6.89062 3.19922C7.47311 3.19922 7.94531 2.72702 7.94531 2.14453C7.94531 1.56204 7.47311 1.08984 6.89062 1.08984C6.30814 1.08984 5.83594 1.56204 5.83594 2.14453C5.83594 2.72702 6.30814 3.19922 6.89062 3.19922Z" fill="black"/>
<path d="M2.86523 7.1543H2.47852C2.14896 7.1543 1.88086 7.4224 1.88086 7.75195L1.88086 12.0938C1.88086 12.4233 2.14896 12.6914 2.47852 12.6914H2.86523C3.19479 12.6914 3.46289 12.4233 3.46289 12.0938L3.46289 7.75195C3.46289 7.4224 3.19479 7.1543 2.86523 7.1543Z" fill="black"/>
<path d="M6.69727 6.09961C6.36771 6.09961 6.09961 6.36771 6.09961 6.69727L6.09961 12.0938C6.09961 12.4233 6.36771 12.6914 6.69727 12.6914H7.08398C7.41354 12.6914 7.68164 12.4233 7.68164 12.0938L7.68164 6.69727C7.68164 6.36771 7.41354 6.09961 7.08398 6.09961H6.69727Z" fill="black"/>
<path d="M16.5 14.2734L1.50001 14.2734C0.983074 14.2734 0.5625 14.694 0.5625 15.2109C0.5625 16.4387 1.56132 17.4375 2.78905 17.4375L15.2109 17.4375C16.4387 17.4375 17.4375 16.4387 17.4375 15.2109C17.4375 14.694 17.0169 14.2734 16.5 14.2734Z" fill="black"/>
</g>
<defs>
<clipPath id="clip0_9_192">
<rect width="18" height="18" fill="white"/>
</clipPath>
</defs>
</svg>
