<svg width="16" height="16" viewBox="0 0 16 16" fill="none" xmlns="http://www.w3.org/2000/svg">
<path d="M7.33398 10C7.1451 10 6.98676 9.93612 6.85898 9.80834C6.73121 9.68056 6.66732 9.52223 6.66732 9.33334V7.33334C6.66732 7.14445 6.73121 6.98612 6.85898 6.85834C6.98676 6.73056 7.1451 6.66667 7.33398 6.66667H11.334C11.5229 6.66667 11.6812 6.73056 11.809 6.85834C11.9368 6.98612 12.0007 7.14445 12.0007 7.33334V9.33334C12.0007 9.52223 11.9368 9.68056 11.809 9.80834C11.6812 9.93612 11.5229 10 11.334 10H7.33398ZM2.66732 13.3333C2.30065 13.3333 1.98676 13.2028 1.72565 12.9417C1.46454 12.6806 1.33398 12.3667 1.33398 12V4.00001C1.33398 3.63334 1.46454 3.31945 1.72565 3.05834C1.98676 2.79723 2.30065 2.66667 2.66732 2.66667H13.334C13.7007 2.66667 14.0145 2.79723 14.2757 3.05834C14.5368 3.31945 14.6673 3.63334 14.6673 4.00001V12C14.6673 12.3667 14.5368 12.6806 14.2757 12.9417C14.0145 13.2028 13.7007 13.3333 13.334 13.3333H2.66732ZM2.66732 12H13.334V5.33334H2.66732V12Z" fill="black"/>
</svg>
