<svg width="20" height="20" viewBox="0 0 20 20" fill="none" xmlns="http://www.w3.org/2000/svg">
<path d="M8.3335 16.6668H5.00016C4.76405 16.6668 4.56613 16.587 4.40641 16.4272C4.24669 16.2675 4.16683 16.0696 4.16683 15.8335L4.16683 10.0002H2.75016C2.55572 10.0002 2.42377 9.90989 2.35433 9.72933C2.28488 9.54877 2.32655 9.396 2.47933 9.271L9.43766 3.00016C9.59044 2.84738 9.77794 2.771 10.0002 2.771C10.2224 2.771 10.4099 2.84738 10.5627 3.00016L13.3335 5.50016V3.75016C13.3335 3.63905 13.3752 3.54183 13.4585 3.4585C13.5418 3.37516 13.6391 3.3335 13.7502 3.3335L15.4168 3.3335C15.5279 3.3335 15.6252 3.37516 15.7085 3.4585C15.7918 3.54183 15.8335 3.63905 15.8335 3.75016V7.75016L17.521 9.271C17.6738 9.396 17.7154 9.54877 17.646 9.72933C17.5766 9.90989 17.4446 10.0002 17.2502 10.0002L15.8335 10.0002V15.8335C15.8335 16.0696 15.7536 16.2675 15.5939 16.4272C15.4342 16.587 15.2363 16.6668 15.0002 16.6668H11.6668V12.5002C11.6668 12.2641 11.587 12.0661 11.4272 11.9064C11.2675 11.7467 11.0696 11.6668 10.8335 11.6668H9.16683C8.93072 11.6668 8.7328 11.7467 8.57308 11.9064C8.41336 12.0661 8.3335 12.2641 8.3335 12.5002L8.3335 16.6668ZM8.3335 8.35433L11.6668 8.35433C11.6668 7.90988 11.5002 7.5453 11.1668 7.26058C10.8335 6.97586 10.4446 6.8335 10.0002 6.8335C9.55572 6.8335 9.16683 6.97586 8.8335 7.26058C8.50016 7.5453 8.3335 7.90988 8.3335 8.35433Z" fill="black"/>
</svg>
