<svg width="18" height="18" viewBox="0 0 18 18" fill="none" xmlns="http://www.w3.org/2000/svg">
<g clip-path="url(#clip0_9_214)">
<path d="M16.0343 12.6848C14.9003 11.7263 14.25 10.3253 14.25 8.841V6.75C14.25 4.11075 12.2895 1.926 9.75 1.56V0.75C9.75 0.33525 9.414 0 9 0C8.586 0 8.25 0.33525 8.25 0.75V1.56C5.70975 1.926 3.75 4.11075 3.75 6.75L3.75 8.841C3.75 10.3253 3.09975 11.7263 1.959 12.6908C1.66725 12.9405 1.5 13.3035 1.5 13.6875C1.5 14.4113 2.08875 15 2.8125 15L15.1875 15C15.9113 15 16.5 14.4113 16.5 13.6875C16.5 13.3035 16.3328 12.9405 16.0343 12.6848Z" fill="black"/>
<path d="M9.00013 18C10.3584 18 11.4946 17.0317 11.7556 15.75H6.24463C6.50563 17.0317 7.64188 18 9.00013 18Z" fill="black"/>
</g>
<defs>
<clipPath id="clip0_9_214">
<rect width="18" height="18" fill="white"/>
</clipPath>
</defs>
</svg>
