<svg width="30" height="29" viewBox="0 0 30 29" fill="none" xmlns="http://www.w3.org/2000/svg">
<path d="M27.7503 14.131H15.4436V1.82429C15.4436 1.58156 15.2468 1.38477 15.0041 1.38477C14.7614 1.38477 14.5646 1.58156 14.5646 1.82429V14.131H2.25788C2.01516 14.131 1.81836 14.3278 1.81836 14.5705C1.81836 14.8132 2.01516 15.01 2.25788 15.01H14.5646V27.3167C14.5646 27.5594 14.7614 27.7562 15.0041 27.7562C15.2468 27.7562 15.4436 27.5594 15.4436 27.3167V15.01H27.7503C27.993 15.01 28.1898 14.8132 28.1898 14.5705C28.1898 14.3278 27.993 14.131 27.7503 14.131Z" fill="black"/>
</svg>
