<svg width="18" height="18" viewBox="0 0 18 18" fill="none" xmlns="http://www.w3.org/2000/svg">
<path d="M12.004 1.36405L10.687 1.36405C10.5226 1.35896 10.3814 1.24596 10.3404 1.0868C10.2156 0.438411 9.63707 -0.0224611 8.97719 0.000845613C8.31332 -0.0107856 7.73764 0.45756 7.61399 1.10993C7.57127 1.26472 7.42785 1.36988 7.2674 1.36409L5.99658 1.36409L5.99658 3.67464L12.004 3.67464V1.36405Z" fill="black"/>
<path d="M15.7007 16.9369L15.7007 3.69745C15.7021 3.17426 15.2791 2.74899 14.7559 2.74758C14.732 2.74753 14.708 2.74837 14.6841 2.7501H12.697V3.92848C12.697 4.11334 12.5815 4.36751 12.3966 4.36751L5.58053 4.36751C5.39566 4.36751 5.30328 4.11334 5.30328 3.92848V2.75014L3.31619 2.75014C2.79442 2.71184 2.34036 3.10381 2.30211 3.62563C2.30034 3.64955 2.2995 3.67352 2.29958 3.69749L2.29958 16.9369C2.28667 17.511 2.74162 17.9869 3.3157 17.9997C3.31588 17.9997 3.31606 17.9997 3.31624 17.9997H14.6841C15.2582 17.9871 15.7134 17.5115 15.7008 16.9374C15.7007 16.9372 15.7007 16.937 15.7007 16.9369ZM7.12859 13.887L5.32636 15.5737C5.26874 15.6426 5.18502 15.6844 5.09533 15.6892C4.99879 15.6854 4.90755 15.6439 4.84117 15.5737L3.89386 14.6032C3.76795 14.4622 3.77826 14.2464 3.91695 14.118C4.0517 13.9859 4.26739 13.9859 4.40214 14.118L5.09529 14.8574L6.66648 13.3786C6.82401 13.2699 7.03987 13.3095 7.14858 13.467C7.23729 13.5955 7.22907 13.7675 7.12859 13.887ZM7.12859 10.1901L5.32636 11.8768C5.26874 11.9457 5.18502 11.9876 5.09533 11.9923C4.99879 11.9885 4.90755 11.947 4.84117 11.8768L3.89386 10.9063C3.76795 10.7654 3.77826 10.5495 3.91695 10.4212C4.0517 10.2891 4.26739 10.2891 4.40214 10.4212L5.09529 11.1605L6.66648 9.68175C6.82401 9.57304 7.03987 9.61258 7.14858 9.77011C7.23729 9.89863 7.22907 10.0706 7.12859 10.1901ZM7.12859 6.49319L5.32636 8.1799C5.26874 8.24885 5.18502 8.29069 5.09533 8.29542C4.99879 8.29162 4.90755 8.25013 4.84117 8.1799L3.89386 7.20947C3.76795 7.06848 3.77826 6.85261 3.91695 6.72427C4.0517 6.59217 4.26739 6.59217 4.40214 6.72427L5.09529 7.46363L6.66648 5.98487C6.82401 5.87616 7.03987 5.9157 7.14858 6.07323C7.23729 6.20175 7.22907 6.3737 7.12859 6.49319ZM13.8523 15.2271H8.538C8.3466 15.2271 8.19141 15.0719 8.19141 14.8805C8.19141 14.6891 8.3466 14.5339 8.538 14.5339H13.8522C14.0437 14.5339 14.1988 14.6891 14.1988 14.8805C14.1988 15.0719 14.0437 15.2271 13.8523 15.2271ZM13.8523 11.5302H8.538C8.3466 11.5302 8.19141 11.375 8.19141 11.1836C8.19141 10.9922 8.3466 10.837 8.538 10.837H13.8522C14.0437 10.837 14.1988 10.9922 14.1988 11.1836C14.1988 11.375 14.0437 11.5302 13.8523 11.5302ZM13.8523 7.83331L8.538 7.83331C8.3466 7.83331 8.19141 7.67812 8.19141 7.48672C8.19141 7.29531 8.3466 7.14012 8.538 7.14012L13.8522 7.14012C14.0437 7.14012 14.1988 7.29531 14.1988 7.48672C14.1988 7.67817 14.0437 7.83331 13.8523 7.83331Z" fill="black"/>
</svg>
