<svg width="18" height="18" viewBox="0 0 18 18" fill="none" xmlns="http://www.w3.org/2000/svg">
<g clip-path="url(#clip0_9_199)">
<path d="M9.00107 9.34695C11.5725 9.34695 13.6746 7.24492 13.6746 4.67348C13.6746 2.10203 11.5725 0 9.00107 0C6.42963 0 4.32764 2.10203 4.32764 4.67348C4.32764 7.24492 6.42967 9.34695 9.00107 9.34695Z" fill="black"/>
<path d="M17.0216 13.0815C16.8991 12.7754 16.7359 12.4897 16.5522 12.2244C15.6134 10.8366 14.1645 9.91824 12.5318 9.69375C12.3278 9.67336 12.1033 9.71414 11.94 9.8366C11.0828 10.4693 10.0625 10.7958 9.0012 10.7958C7.93995 10.7958 6.91956 10.4693 6.06241 9.8366C5.89913 9.71414 5.67464 9.65293 5.47058 9.69375C3.83792 9.91824 2.36855 10.8366 1.45019 12.2244C1.26651 12.4897 1.10323 12.7958 0.980812 13.0815C0.919601 13.204 0.939991 13.3468 1.0012 13.4693C1.16448 13.755 1.36855 14.0407 1.55222 14.2856C1.83792 14.6734 2.14405 15.0203 2.49101 15.3468C2.77671 15.6325 3.10323 15.8979 3.4298 16.1632C5.04202 17.3673 6.98081 17.9999 8.98081 17.9999C10.9808 17.9999 12.9196 17.3672 14.5318 16.1632C14.8583 15.9183 15.1849 15.6325 15.4706 15.3468C15.7971 15.0203 16.1237 14.6734 16.4094 14.2856C16.6135 14.0203 16.7972 13.755 16.9604 13.4693C17.0624 13.3468 17.0828 13.2039 17.0216 13.0815Z" fill="black"/>
</g>
<defs>
<clipPath id="clip0_9_199">
<rect width="18" height="18" fill="white"/>
</clipPath>
</defs>
</svg>
