<svg width="66" height="66" viewBox="0 0 66 66" fill="none" xmlns="http://www.w3.org/2000/svg">
<circle cx="33" cy="33" r="32" fill="black" stroke="white" stroke-width="2"/>
<g clip-path="url(#clip0_2393_12)">
<path d="M13.5561 30.6708C13.4546 30.4673 13.2941 30.2994 13.0948 30.1733C12.887 30.046 12.6416 29.9569 12.3612 29.904C12.0758 29.8523 11.7462 29.8289 11.3643 29.8253L9.60119 29.8265C9.41793 29.8289 9.23836 29.9716 9.19531 30.1487L8.00903 35.3157C7.96599 35.4904 8.08099 35.6367 8.26425 35.6367H9.1086C9.29186 35.6367 9.47328 35.4947 9.51387 35.3157L9.80352 34.0612C9.84226 33.8865 10.0231 33.7408 10.2082 33.7408H10.4498C11.4824 33.7395 12.2818 33.5286 12.8562 33.1061C13.4337 32.683 13.7184 32.124 13.7184 31.4316C13.7178 31.1284 13.668 30.8738 13.5561 30.6708ZM11.7351 32.3589C11.4799 32.5459 11.1251 32.6394 10.6675 32.6394H10.4609C10.277 32.6394 10.1645 32.4942 10.2045 32.3171L10.4585 31.22C10.4941 31.0441 10.6792 30.8984 10.8606 30.8996L11.1374 30.8978C11.4602 30.8978 11.7068 30.9537 11.8717 31.062C12.0346 31.169 12.1164 31.3393 12.1152 31.565C12.1201 31.9082 11.9891 32.172 11.7351 32.3589Z" fill="white"/>
<path d="M37.6276 30.2299L37.5747 30.2458L37.504 30.2557L37.4173 30.2422L37.373 30.1991L37.3527 30.1315L37.3515 30.03V29.6542H37.6338V29.538H37.3515V29.3037H37.2119V29.538H37.1172V29.6542H37.2119V30.0915L37.2771 30.308L37.4689 30.3768L37.5495 30.3701L37.635 30.3535V30.2299H37.6276Z" fill="white"/>
<path d="M38.9372 29.5977L38.7355 29.5146L38.5867 29.5448L38.4354 29.6469L38.3475 29.5491L38.2048 29.5153L38.0677 29.5454L37.9379 29.629V29.538H37.8008V30.359H37.9373V29.7459L38.0523 29.6745L38.1667 29.6463L38.2602 29.6629L38.3063 29.7102L38.3266 29.7889L38.3333 29.8904V30.3596H38.4705V29.8344L38.468 29.7908L38.4656 29.7508L38.5824 29.6764L38.698 29.6475L38.7884 29.6641L38.8376 29.7114L38.8548 29.7908L38.8641 29.891V30.3602H39.0018V29.8271L38.9372 29.5977Z" fill="white"/>
<path d="M17.628 31.4094C17.3094 31.2299 16.8064 31.1401 16.1188 31.1401C15.7788 31.1401 15.4399 31.1665 15.0974 31.2194C14.8446 31.2581 14.82 31.2655 14.6644 31.2994C14.3434 31.3695 14.293 31.6899 14.293 31.6899L14.1897 32.1148C14.1313 32.386 14.2875 32.3755 14.3526 32.3528C14.4929 32.311 14.571 32.2679 14.8575 32.204C15.1312 32.1419 15.4196 32.0951 15.6484 32.0982C15.986 32.0982 16.2443 32.1339 16.4165 32.2064C16.5862 32.2802 16.6711 32.4069 16.6711 32.5902L16.6563 32.7095L16.5346 32.7845C16.0555 32.8146 15.7093 32.8589 15.2892 32.9198C14.8784 32.977 14.5181 33.0772 14.2186 33.2144C13.8969 33.3558 13.6583 33.5458 13.4917 33.7875C13.3306 34.0304 13.25 34.325 13.25 34.6706C13.25 34.9959 13.3668 35.2647 13.5938 35.4725C13.8219 35.6767 14.1233 35.7763 14.4836 35.7763C14.7118 35.7751 14.8883 35.7573 15.0137 35.7271L15.4227 35.5863L15.7689 35.3944L16.0875 35.1841L16.0918 35.1903L16.0598 35.3256L16.058 35.3311V35.3323C16.0235 35.4971 16.1231 35.6324 16.2836 35.6484L16.2867 35.6521H16.3015H16.949H17.0708L17.0819 35.6472C17.2504 35.6275 17.4084 35.4922 17.4453 35.3311L18.0609 32.6664L18.0929 32.4493L18.1076 32.2458C18.1101 31.8682 17.9471 31.5884 17.628 31.4094ZM16.2664 34.4056L16.1348 34.579L15.8027 34.7506C15.6465 34.8139 15.4983 34.8459 15.3612 34.8459C15.1533 34.8459 14.9904 34.8157 14.8803 34.7543L14.7173 34.4375C14.7173 34.266 14.7567 34.1301 14.8409 34.0255L15.1988 33.782C15.352 33.7303 15.5389 33.6867 15.7554 33.6565C15.9485 33.6325 16.3298 33.5889 16.3796 33.5877L16.438 33.6904C16.4263 33.7488 16.3181 34.2014 16.2664 34.4056Z" fill="white"/>
<path d="M32.9639 31.4131C32.6435 31.2335 32.1411 31.1431 31.4554 31.1431C31.1153 31.1431 30.7758 31.1696 30.4345 31.2243C30.1812 31.2612 30.156 31.2692 29.9998 31.3024C29.6794 31.3719 29.6295 31.6935 29.6295 31.6935L29.5262 32.1179C29.4684 32.3891 29.6209 32.3768 29.6923 32.3558C29.8331 32.314 29.9087 32.2728 30.1929 32.2064C30.4653 32.1449 30.7562 32.0994 30.9855 32.1006C31.3219 32.1006 31.5802 32.1369 31.7518 32.2095C31.9228 32.2833 32.0064 32.4112 32.0064 32.5926L31.9935 32.7113L31.873 32.7882C31.389 32.8171 31.0421 32.8614 30.6264 32.9222C30.2168 32.9794 29.8552 33.0791 29.5551 33.2168C29.2347 33.3589 28.993 33.5489 28.8282 33.7912C28.6653 34.0341 28.5859 34.3281 28.5859 34.6706C28.5859 34.9984 28.7016 35.2671 28.9316 35.4737C29.1609 35.6773 29.4592 35.7794 29.8196 35.7794C30.0465 35.7769 30.223 35.7622 30.3491 35.7296L30.7568 35.5906L31.1061 35.3987L31.4222 35.1859L31.4277 35.1927L31.3988 35.3292L31.3957 35.3317L31.397 35.3341C31.3588 35.499 31.4591 35.6355 31.6214 35.6502L31.6227 35.6533H31.6374C31.7438 35.6533 32.1116 35.6533 32.2868 35.6533H32.4061L32.419 35.649C32.5857 35.6287 32.7431 35.4934 32.7782 35.3305L33.3956 32.6695L33.4282 32.4512L33.446 32.247C33.4467 31.8706 33.2855 31.5921 32.9639 31.4131ZM31.6054 34.4092L31.4683 34.5845L31.1393 34.7548C30.9831 34.8176 30.8343 34.8502 30.6996 34.8502C30.485 34.8502 30.3263 34.8194 30.2193 34.7579L30.0545 34.4424C30.0545 34.2702 30.0945 34.1356 30.175 34.0292C30.2568 33.9289 30.3816 33.8465 30.5366 33.7863C30.6879 33.7346 30.8749 33.6928 31.0926 33.6614C31.2844 33.6374 31.6645 33.5926 31.7137 33.5919L31.7733 33.6946C31.7647 33.7531 31.6559 34.2038 31.6054 34.4092Z" fill="white"/>
<path d="M28.8886 30.6899C28.7828 30.4852 28.6241 30.3197 28.4236 30.1906C28.2182 30.0627 27.9747 29.9729 27.69 29.9212C27.4102 29.8714 27.0762 29.8444 26.6968 29.8438L24.9312 29.845C24.7473 29.8481 24.5708 29.9907 24.5284 30.166L23.3409 35.3354C23.2979 35.5107 23.4159 35.6558 23.5955 35.6558L24.4411 35.6546C24.6207 35.6558 24.8045 35.5119 24.847 35.3348L25.1329 34.0797C25.1747 33.905 25.3562 33.758 25.5388 33.7593H25.7805C26.8143 33.7593 27.6156 33.5465 28.1924 33.1252C28.7625 32.6991 29.0509 32.1413 29.0509 31.4482C29.0478 31.1463 28.9956 30.891 28.8886 30.6899ZM27.0676 32.3805C26.813 32.5638 26.4576 32.6572 26.0025 32.6572H25.7922C25.6108 32.6591 25.4933 32.5115 25.5339 32.3356L25.7897 31.2403C25.8272 31.0651 26.0105 30.9181 26.1931 30.9199L26.4668 30.9181C26.7915 30.9199 27.035 30.9734 27.2011 31.0817C27.3665 31.1899 27.4446 31.3596 27.4464 31.5847C27.4483 31.9279 27.321 32.1923 27.0676 32.3805Z" fill="white"/>
<path d="M36.1282 30.2071C36.1669 30.0306 36.0562 29.8873 35.8748 29.8898H35.1184C34.9634 29.8898 34.8238 30.0048 34.7556 30.1462L34.7138 30.2114L34.6756 30.3787L33.6185 35.1841L33.5841 35.3317L33.5853 35.3354C33.5502 35.4934 33.6474 35.6127 33.7975 35.6355L33.8104 35.6533H34.5957C34.7494 35.6533 34.8939 35.5365 34.9597 35.3925L35.0003 35.3311L36.1307 30.2077L36.1282 30.2071Z" fill="white"/>
<path d="M23.3674 31.2047C23.1675 31.2071 22.3551 31.2047 22.3551 31.2047C22.1731 31.2047 21.9394 31.3516 21.8238 31.5269C21.8238 31.5269 20.6148 33.6018 20.4973 33.8103L20.3571 33.8084L19.9807 31.541C19.9389 31.3627 19.7526 31.2102 19.5207 31.2102L18.7643 31.2114C18.5823 31.2114 18.4704 31.3566 18.5116 31.5337C18.5116 31.5337 19.0859 34.8022 19.2009 35.5716C19.2544 35.9959 19.1942 36.0715 19.1942 36.0715L18.4464 37.374C18.3357 37.5511 18.3953 37.6957 18.5767 37.6957L19.4512 37.6944C19.6333 37.6944 19.8725 37.5511 19.9807 37.3734L23.3446 31.6837C23.3446 31.6837 23.6681 31.1979 23.3674 31.2047Z" fill="white"/>
</g>
<defs>
<clipPath id="clip0_2393_12">
<rect width="31" height="31" fill="white" transform="translate(8 18)"/>
</clipPath>
</defs>
</svg>
