<svg width="15" height="15" viewBox="0 0 15 15" fill="none" xmlns="http://www.w3.org/2000/svg">
<g clip-path="url(#clip0_7_574)">
<path fill-rule="evenodd" clip-rule="evenodd" d="M1.3064 4.4082V12.3666H13.6937V4.4082C11.5785 4.4082 3.42327 4.4082 1.3064 4.4082Z" fill="#D0C5F3"/>
<path fill-rule="evenodd" clip-rule="evenodd" d="M13.9487 12.8763H1.05149C0.911138 12.8763 0.797363 12.7626 0.797363 12.6214V4.15305C0.797363 4.0127 0.911138 3.89893 1.05149 3.89893H2.32876C2.46911 3.89893 2.58371 4.0127 2.58371 4.15305C2.58371 4.29423 2.46911 4.40801 2.32876 4.40801H1.30644V12.3664H13.6938V4.40801H12.6715C12.5311 4.40801 12.4173 4.29423 12.4173 4.15305C12.4173 4.0127 12.5311 3.89893 12.6715 3.89893H13.9487C14.0891 3.89893 14.2037 4.0127 14.2037 4.15305V12.6214C14.2037 12.7626 14.0891 12.8763 13.9487 12.8763Z" fill="#2E5C8A"/>
<path fill-rule="evenodd" clip-rule="evenodd" d="M12.6714 2.42741H2.32869C2.18751 2.42741 2.07373 2.31363 2.07373 2.17328V0.387768C2.07373 0.246587 2.18751 0.132812 2.32869 0.132812H12.6714C12.8126 0.132812 12.9263 0.246587 12.9263 0.387768V2.17328C12.9263 2.31363 12.8126 2.42741 12.6714 2.42741Z" fill="#FF3131"/>
<path fill-rule="evenodd" clip-rule="evenodd" d="M12.6714 8.2225C9.2241 8.2225 5.77598 8.2225 2.32869 8.2225C2.18751 8.2225 2.07373 8.1079 2.07373 7.96755V2.17334H12.9263V7.96755C12.9263 8.1079 12.8126 8.2225 12.6714 8.2225Z" fill="#FFE4AF"/>
<path fill-rule="evenodd" clip-rule="evenodd" d="M3.7396 1.40737H3.17488C3.03453 1.40737 2.91992 1.2936 2.91992 1.15242C2.91992 1.01207 3.03453 0.897461 3.17488 0.897461H3.7396C3.87995 0.897461 3.99455 1.01207 3.99455 1.15242C3.99455 1.2936 3.87995 1.40737 3.7396 1.40737Z" fill="#F1F1F1"/>
<path fill-rule="evenodd" clip-rule="evenodd" d="M5.13657 1.40737H4.57185C4.4315 1.40737 4.31689 1.2936 4.31689 1.15242C4.31689 1.01207 4.4315 0.897461 4.57185 0.897461H5.13657C5.27775 0.897461 5.39153 1.01207 5.39153 1.15242C5.39153 1.2936 5.27775 1.40737 5.13657 1.40737Z" fill="#F1F1F1"/>
<path fill-rule="evenodd" clip-rule="evenodd" d="M6.5333 1.40737H5.96858C5.82823 1.40737 5.71362 1.2936 5.71362 1.15242C5.71362 1.01207 5.82823 0.897461 5.96858 0.897461H6.5333C6.67448 0.897461 6.78825 1.01207 6.78825 1.15242C6.78825 1.2936 6.67448 1.40737 6.5333 1.40737Z" fill="#F1F1F1"/>
<path fill-rule="evenodd" clip-rule="evenodd" d="M4.26453 5.2561C4.19975 5.2561 4.13414 5.23119 4.08431 5.18136L3.26297 4.36002C3.16332 4.26036 3.16332 4.09925 3.26297 3.9996L4.08431 3.17826C4.18397 3.0786 4.34508 3.0786 4.44474 3.17826C4.54439 3.27791 4.54439 3.43903 4.44474 3.53868L3.80361 4.17981L4.44474 4.82093C4.54439 4.92059 4.54439 5.0817 4.44474 5.18136C4.39491 5.23119 4.33013 5.2561 4.26453 5.2561Z" fill="#333333"/>
<path fill-rule="evenodd" clip-rule="evenodd" d="M4.96468 5.61729C4.94226 5.61729 4.92067 5.6148 4.89824 5.60899C4.76204 5.57245 4.68149 5.43293 4.71803 5.29673L5.35168 2.93071C5.38822 2.79452 5.52857 2.71396 5.66394 2.7505C5.80014 2.78704 5.88069 2.92656 5.84415 3.06276L5.2105 5.42878C5.17977 5.54255 5.07679 5.61729 4.96468 5.61729Z" fill="#333333"/>
<path fill-rule="evenodd" clip-rule="evenodd" d="M6.29744 5.2561C6.23266 5.2561 6.16705 5.23119 6.11722 5.18136C6.01757 5.0817 6.01757 4.92059 6.11722 4.82093L6.75835 4.17981L6.11722 3.53868C6.01757 3.43903 6.01757 3.27791 6.11722 3.17826C6.21688 3.0786 6.37799 3.0786 6.47765 3.17826L7.29899 3.9996C7.39864 4.09925 7.39864 4.26036 7.29899 4.36002L6.47765 5.18136C6.42782 5.23119 6.36304 5.2561 6.29744 5.2561Z" fill="#333333"/>
<path fill-rule="evenodd" clip-rule="evenodd" d="M10.3694 3.25127H8.34553C8.20435 3.25127 8.09058 3.13749 8.09058 2.99714C8.09058 2.85596 8.20435 2.74219 8.34553 2.74219H10.3694C10.5097 2.74219 10.6235 2.85596 10.6235 2.99714C10.6235 3.13749 10.5097 3.25127 10.3694 3.25127Z" fill="#333333"/>
<path fill-rule="evenodd" clip-rule="evenodd" d="M11.557 4.1813H8.34553C8.20435 4.1813 8.09058 4.06752 8.09058 3.92634C8.09058 3.78599 8.20435 3.67139 8.34553 3.67139H11.557C11.6982 3.67139 11.8119 3.78599 11.8119 3.92634C11.8119 4.06752 11.6982 4.1813 11.557 4.1813Z" fill="#333333"/>
<path fill-rule="evenodd" clip-rule="evenodd" d="M11.557 5.11147H8.34553C8.20435 5.11147 8.09058 4.99687 8.09058 4.85652C8.09058 4.71534 8.20435 4.60156 8.34553 4.60156H11.557C11.6982 4.60156 11.8119 4.71534 11.8119 4.85652C11.8119 4.99687 11.6982 5.11147 11.557 5.11147Z" fill="#333333"/>
<path fill-rule="evenodd" clip-rule="evenodd" d="M14.745 14.8673H0.254955C0.113775 14.8673 0 14.7535 0 14.6131V12.6217C0 12.4813 0.113775 12.3667 0.254955 12.3667H4.98782L5.28181 13.3624C5.31336 13.4712 5.41302 13.5451 5.52597 13.5451H9.47403C9.58698 13.5451 9.68664 13.4712 9.71902 13.3624L10.0122 12.3667H14.745C14.8862 12.3667 15 12.4813 15 12.6217V14.6131C15 14.7535 14.8862 14.8673 14.745 14.8673Z" fill="#336699"/>
<path fill-rule="evenodd" clip-rule="evenodd" d="M4.69971 12.3667H4.98788L5.28187 13.3624C5.31343 13.4712 5.41308 13.5451 5.52603 13.5451H9.4741C9.58704 13.5451 9.6867 13.4712 9.71908 13.3624L10.0122 12.3667H10.3004C10.2971 12.3941 10.2913 12.4207 10.2838 12.4473L9.99065 13.4422C9.92255 13.6714 9.71244 13.8283 9.4741 13.8283H5.52603C5.28768 13.8283 5.07757 13.6714 5.0103 13.4422L4.71715 12.4473C4.70884 12.4207 4.70303 12.3941 4.69971 12.3667Z" fill="#29537C"/>
<path fill-rule="evenodd" clip-rule="evenodd" d="M4.98779 12.3667H10.0122L9.719 13.3624C9.68661 13.4712 9.58695 13.5451 9.47401 13.5451H5.52594C5.413 13.5451 5.31334 13.4712 5.28178 13.3624L4.98779 12.3667Z" fill="#E6E6E6"/>
<path fill-rule="evenodd" clip-rule="evenodd" d="M8.06631 11.8484H6.93354C6.78904 11.8484 6.66447 11.7446 6.63789 11.6026L6.44688 10.5769L5.46277 10.9241C5.32658 10.9723 5.1746 10.9158 5.10235 10.7904L4.53597 9.81042C4.46371 9.68502 4.49112 9.52557 4.60157 9.43173L5.39384 8.7524L4.60157 8.0739C4.49112 7.98006 4.46371 7.82061 4.53597 7.69521L5.10235 6.71525C5.1746 6.58985 5.32658 6.53338 5.46277 6.58154L6.44688 6.92868L6.63789 5.90305C6.66447 5.76104 6.78904 5.65723 6.93354 5.65723H8.06631C8.21081 5.65723 8.33538 5.76104 8.36195 5.90305L8.55296 6.92868L9.53707 6.58154C9.67327 6.53338 9.82525 6.58985 9.8975 6.71525L10.4639 7.69521C10.5361 7.82061 10.5087 7.98006 10.3991 8.0739L9.606 8.7524L10.3991 9.43173C10.5087 9.52557 10.5361 9.68502 10.4639 9.81042L9.8975 10.7904C9.82525 10.9158 9.67327 10.9723 9.53707 10.9241L8.55296 10.5769L8.36195 11.6026C8.33538 11.7446 8.21081 11.8484 8.06631 11.8484Z" fill="#7959DE"/>
<path fill-rule="evenodd" clip-rule="evenodd" d="M7.50003 10.1442C6.73267 10.1442 6.10815 9.52056 6.10815 8.75237C6.10815 7.98501 6.73267 7.36133 7.50003 7.36133C8.26738 7.36133 8.8919 7.98501 8.8919 8.75237C8.8919 9.52056 8.26738 10.1442 7.50003 10.1442Z" fill="#6248B4"/>
<path fill-rule="evenodd" clip-rule="evenodd" d="M7.50007 9.82275C6.91043 9.82275 6.43042 9.34273 6.43042 8.75227C6.43042 8.16263 6.91043 7.68262 7.50007 7.68262C8.09054 7.68262 8.57055 8.16263 8.57055 8.75227C8.57055 9.34273 8.09054 9.82275 7.50007 9.82275Z" fill="white"/>
</g>
<defs>
<clipPath id="clip0_7_574">
<rect width="15" height="15" fill="white"/>
</clipPath>
</defs>
</svg>
