<svg width="15" height="15" viewBox="0 0 15 15" fill="none" xmlns="http://www.w3.org/2000/svg">
<path d="M1.17188 10.7742V4.22578C1.17188 2.53828 2.53828 1.17188 4.22578 1.17188H10.7742C12.4617 1.17188 13.8281 2.53828 13.8281 4.22578V10.7742C13.8281 12.4617 12.4617 13.8281 10.7742 13.8281H4.22578C2.53828 13.8281 1.17188 12.4617 1.17188 10.7742Z" fill="#F2C224"/>
<path d="M10.2242 12.9866H4.95547C3.32656 12.9866 2 11.6601 2 10.0312V4.96865C2 3.33975 3.32656 2.01318 4.95547 2.01318H10.2219C11.8508 2.01318 13.1773 3.33975 13.1773 4.96865V10.0312C13.1797 11.6601 11.8531 12.9866 10.2242 12.9866ZM4.95547 2.48193C3.58438 2.48193 2.46875 3.59756 2.46875 4.96865V10.0312C2.46875 11.4022 3.58438 12.5179 4.95547 12.5179H10.2219C11.593 12.5179 12.7086 11.4022 12.7086 10.0312V4.96865C12.7086 3.59756 11.593 2.48193 10.2219 2.48193H4.95547Z" fill="white"/>
<path d="M5.7376 6.09824H9.26025C9.7665 6.09824 10.179 5.68574 10.179 5.17949C10.179 4.67324 9.7665 4.26074 9.26025 4.26074H5.7376C5.23135 4.26074 4.81885 4.67324 4.81885 5.17949C4.81885 5.68574 5.23135 6.09824 5.7376 6.09824ZM5.7376 4.67793H9.26025C9.53682 4.67793 9.76182 4.90293 9.76182 5.17949C9.76182 5.45605 9.53682 5.68105 9.26025 5.68105H5.7376C5.46104 5.68105 5.23604 5.45605 5.23604 5.17949C5.23838 4.90293 5.46338 4.67793 5.7376 4.67793Z" fill="white"/>
<path d="M5.7376 8.55234H9.26025C9.7665 8.55234 10.179 8.13984 10.179 7.63359C10.179 7.12734 9.7665 6.71484 9.26025 6.71484H5.7376C5.23135 6.71484 4.81885 7.12734 4.81885 7.63359C4.81885 8.13984 5.23135 8.55234 5.7376 8.55234ZM5.7376 7.13203H9.26025C9.53682 7.13203 9.76182 7.35703 9.76182 7.63359C9.76182 7.91016 9.53682 8.13516 9.26025 8.13516H5.7376C5.46104 8.13516 5.23604 7.91016 5.23604 7.63359C5.23838 7.35703 5.46338 7.13203 5.7376 7.13203Z" fill="white"/>
<path d="M9.2626 8.90137H5.7376C5.23135 8.90137 4.81885 9.31387 4.81885 9.82012C4.81885 10.3264 5.23135 10.7389 5.7376 10.7389H9.26025C9.7665 10.7389 10.179 10.3264 10.179 9.82012C10.179 9.31387 9.76885 8.90137 9.2626 8.90137ZM9.2626 10.3217H5.7376C5.46104 10.3217 5.23604 10.0967 5.23604 9.82012C5.23604 9.54356 5.46104 9.31855 5.7376 9.31855H9.26025C9.53682 9.31855 9.76182 9.54356 9.76182 9.82012C9.76182 10.0967 9.53682 10.3217 9.2626 10.3217Z" fill="white"/>
</svg>
