<svg width="15" height="15" viewBox="0 0 15 15" fill="none" xmlns="http://www.w3.org/2000/svg">
<g clip-path="url(#clip0_7_530)">
<path d="M14.3105 7.50053L14.9686 5.78408C15.0408 5.59472 14.9846 5.38005 14.8261 5.25162L13.3994 4.09482L13.1106 2.27901C13.0788 2.0784 12.9213 1.92184 12.7207 1.88997L10.9048 1.60124L9.74899 0.173527C9.62149 0.0151001 9.40213 -0.0411461 9.21746 0.0310365L7.50008 0.690054L5.78363 0.0319739C5.59333 -0.0411461 5.38053 0.016975 5.25211 0.174464L4.09531 1.60218L2.2795 1.89091C2.07982 1.92278 1.92233 2.08027 1.89046 2.27995L1.60173 4.09576L0.174015 5.25256C0.0165254 5.38005 -0.0406582 5.59472 0.0315244 5.78408L0.689604 7.50053L0.0315244 9.21697C-0.0415956 9.40633 0.0165254 9.62101 0.174015 9.7485L1.60173 10.9044L1.89046 12.7202C1.92233 12.9208 2.07888 13.0783 2.2795 13.1101L4.09531 13.3989L5.25211 14.8257C5.38053 14.985 5.59521 15.0413 5.78457 14.9681L7.50008 14.311L9.21652 14.9691C9.27089 14.9897 9.32714 15 9.38432 15C9.52213 15 9.65805 14.9391 9.74899 14.8257L10.9048 13.3989L12.7207 13.1101C12.9213 13.0783 13.0788 12.9208 13.1106 12.7202L13.3994 10.9044L14.8261 9.7485C14.9846 9.62007 15.0408 9.40633 14.9686 9.21697L14.3105 7.50053Z" fill="#F44336"/>
<path d="M6.0939 6.56328C5.31864 6.56328 4.68774 5.93239 4.68774 5.15713C4.68774 4.38187 5.31864 3.75098 6.0939 3.75098C6.86916 3.75098 7.50005 4.38187 7.50005 5.15713C7.50005 5.93239 6.86916 6.56328 6.0939 6.56328ZM6.0939 4.68841C5.83517 4.68841 5.62518 4.8984 5.62518 5.15713C5.62518 5.41586 5.83517 5.62585 6.0939 5.62585C6.35263 5.62585 6.56262 5.41586 6.56262 5.15713C6.56262 4.8984 6.35263 4.68841 6.0939 4.68841Z" fill="#FAFAFA"/>
<path d="M8.90615 11.2503C8.13089 11.2503 7.5 10.6194 7.5 9.84414C7.5 9.06888 8.13089 8.43799 8.90615 8.43799C9.68141 8.43799 10.3123 9.06888 10.3123 9.84414C10.3123 10.6194 9.68141 11.2503 8.90615 11.2503ZM8.90615 9.37542C8.64836 9.37542 8.43744 9.58635 8.43744 9.84414C8.43744 10.1019 8.64836 10.3129 8.90615 10.3129C9.16395 10.3129 9.37487 10.1019 9.37487 9.84414C9.37487 9.58635 9.16395 9.37542 8.90615 9.37542Z" fill="#FAFAFA"/>
<path d="M5.15653 11.2505C5.06185 11.2505 4.96717 11.2224 4.88468 11.1633C4.67375 11.0124 4.62501 10.7199 4.77593 10.509L9.46311 3.94693C9.61404 3.73601 9.90652 3.68726 10.1174 3.83819C10.3284 3.98818 10.3762 4.2816 10.2262 4.49158L5.53901 11.0536C5.4462 11.1821 5.30277 11.2505 5.15653 11.2505Z" fill="#FAFAFA"/>
</g>
<defs>
<clipPath id="clip0_7_530">
<rect width="15" height="15" fill="white"/>
</clipPath>
</defs>
</svg>
