<svg width="15" height="15" viewBox="0 0 15 15" fill="none" xmlns="http://www.w3.org/2000/svg">
<g clip-path="url(#clip0_7_538)">
<path fill-rule="evenodd" clip-rule="evenodd" d="M1.05448 11.2216V3.46237C1.05448 1.98609 1.96837 0.782227 3.09315 0.782227H11.9069C13.0316 0.782227 13.9455 1.98609 13.9455 3.46237V11.2216C8.53251 11.2216 6.42355 11.2216 1.05448 11.2216ZM12.4692 14.2093H2.53076C1.13357 14.2093 0 13.0757 0 11.6873C0 11.5555 0.105448 11.4589 0.228471 11.4589H6.15993H6.16872H6.1775H6.18629H6.19508H6.20387H6.21265L6.22144 11.4676H6.23023H6.23902L6.2478 11.4764H6.25659H6.26538V11.4852H6.27417H6.28295V11.494H6.29174L6.30053 11.5028L6.30931 11.5116H6.3181V11.5204H6.32689V11.5292H6.33568V11.5379L6.34446 11.5467V11.5555H6.35325V11.5643L6.36204 11.5731V11.5819H6.37083V11.5907V11.5994L6.37961 11.6082V11.617V11.6258L6.3884 11.6346V11.6434V11.6522V11.661V11.6697V11.6785V11.6873V12.3639H8.60281V11.6873C8.60281 11.6082 8.64675 11.5467 8.69947 11.5028V11.494H8.70826L8.71705 11.4852H8.72583H8.73462V11.4764H8.74341H8.7522V11.4676H8.76098H8.76977H8.77856V11.4589H8.78735H8.79613H8.80492H8.81371H8.8225H8.83128H8.84007H14.7715C14.8946 11.4589 15 11.5555 15 11.6873C15 13.0757 13.8664 14.2093 12.4692 14.2093ZM3.04042 4.36746C3.04042 4.42019 3.08436 4.47291 3.14587 4.47291H11.8453C11.9069 4.47291 11.9596 4.42019 11.9596 4.36746C11.9596 4.30595 11.9069 4.25323 11.8453 4.25323H3.14587C3.08436 4.25323 3.04042 4.30595 3.04042 4.36746ZM3.04042 3.0933C3.04042 3.15481 3.08436 3.19875 3.14587 3.19875H11.8453C11.9069 3.19875 11.9596 3.15481 11.9596 3.0933C11.9596 3.03179 11.9069 2.97906 11.8453 2.97906H3.14587C3.08436 2.97906 3.04042 3.03179 3.04042 3.0933ZM8.56766 8.54145C8.71705 8.54145 8.87522 8.5063 9.00703 8.41843C9.22671 8.28662 9.29701 8.05815 9.29701 7.82089V6.4237C9.29701 6.36219 9.25308 6.30947 9.19156 6.30947C9.13005 6.30947 9.07733 6.36219 9.07733 6.4237V7.82968V7.83847C9.0949 8.00542 9.03339 8.14602 8.89279 8.2339C8.70826 8.34813 8.42706 8.34813 8.23374 8.2339C8.09315 8.14602 8.03163 8.00542 8.04921 7.83847V7.82968V6.4237C8.04921 6.36219 7.99648 6.30947 7.93497 6.30947C7.87346 6.30947 7.82953 6.36219 7.82953 6.4237V7.82089C7.82953 8.05815 7.89982 8.28662 8.11951 8.41843C8.25132 8.5063 8.40949 8.54145 8.56766 8.54145ZM10.0527 8.53267C10.0879 8.53267 10.123 8.52388 10.1494 8.48873L10.7909 7.61878L11.4148 8.48873C11.4323 8.52388 11.4675 8.53267 11.5026 8.53267C11.529 8.53267 11.5466 8.53267 11.5729 8.51509C11.6169 8.47994 11.6257 8.40964 11.5905 8.36571L10.9315 7.43425L11.6169 6.52915C11.652 6.47643 11.6432 6.40613 11.5905 6.37098C11.5378 6.33583 11.4763 6.34462 11.4323 6.39734L10.7996 7.24971L10.167 6.36219C10.1318 6.30947 10.0615 6.30068 10.0088 6.33583C9.96485 6.37098 9.95606 6.44128 9.99121 6.48521L10.6591 7.43425L9.96485 8.35692C9.9297 8.40964 9.93849 8.47994 9.99121 8.51509C10.0088 8.53267 10.0351 8.53267 10.0527 8.53267ZM5.6239 8.38328C5.68541 8.38328 5.73814 8.33934 5.73814 8.27783V6.27432C5.73814 6.21281 5.68541 6.16887 5.6239 6.16887C5.56239 6.16887 5.51845 6.21281 5.51845 6.27432V8.27783C5.51845 8.33934 5.56239 8.38328 5.6239 8.38328ZM3.47979 6.16008C3.41828 6.16008 3.36555 6.21281 3.36555 6.27432V7.67151C3.36555 7.90876 3.44464 8.13724 3.65554 8.26905C3.78735 8.35692 3.94552 8.39207 4.10369 8.39207C4.25308 8.39207 4.41125 8.35692 4.54306 8.26905C4.76274 8.13724 4.83304 7.90876 4.83304 7.67151V6.27432C4.83304 6.21281 4.7891 6.16008 4.72759 6.16008C4.66608 6.16008 4.61336 6.21281 4.61336 6.27432V7.68029V7.68908C4.63093 7.85604 4.56942 7.99664 4.42882 8.08451C4.24429 8.19875 3.96309 8.19875 3.76977 8.08451C3.62917 7.99664 3.56766 7.85604 3.58524 7.68908V7.68029V6.27432C3.58524 6.21281 3.53251 6.16008 3.47979 6.16008ZM6.33568 9.02476C6.37961 9.02476 6.42355 8.98961 6.44112 8.94567L7.27592 5.81738C7.2935 5.75586 7.25835 5.69435 7.19684 5.68557C7.14411 5.66799 7.0826 5.70314 7.06503 5.75586L6.23023 8.88416C6.21265 8.94567 6.2478 9.00718 6.30931 9.02476H6.33568Z" fill="#21B75D"/>
</g>
<defs>
<clipPath id="clip0_7_538">
<rect width="15" height="15" fill="white"/>
</clipPath>
</defs>
</svg>
