<svg width="619" height="529" viewBox="0 0 619 529" fill="none" xmlns="http://www.w3.org/2000/svg">
<mask id="mask0_55_344" style="mask-type:luminance" maskUnits="userSpaceOnUse" x="229" y="97" width="263" height="262">
<path d="M279.723 97.0127L229.766 308.581L441.334 358.538L491.291 146.97L279.723 97.0127Z" fill="white"/>
</mask>
<g mask="url(#mask0_55_344)">
<path d="M298.198 245.042C298.429 244.065 297.824 243.086 296.847 242.855C295.87 242.624 294.891 243.229 294.66 244.206C294.429 245.183 295.034 246.162 296.011 246.393C296.988 246.623 297.967 246.019 298.198 245.042Z" fill="#EAC435"/>
</g>
<mask id="mask1_55_344" style="mask-type:luminance" maskUnits="userSpaceOnUse" x="218" y="194" width="219" height="218">
<path d="M436.254 194.435H218.859V411.829H436.254V194.435Z" fill="white"/>
</mask>
<g mask="url(#mask1_55_344)">
<path d="M251.759 216.272C252.763 216.272 253.577 215.458 253.577 214.454C253.577 213.45 252.763 212.636 251.759 212.636C250.755 212.636 249.941 213.45 249.941 214.454C249.941 215.458 250.755 216.272 251.759 216.272Z" fill="#EAC435"/>
</g>
<mask id="mask2_55_344" style="mask-type:luminance" maskUnits="userSpaceOnUse" x="218" y="194" width="219" height="218">
<path d="M436.254 194.435H218.859V411.829H436.254V194.435Z" fill="white"/>
</mask>
<g mask="url(#mask2_55_344)">
<path d="M220.677 272.274C221.681 272.274 222.495 271.46 222.495 270.456C222.495 269.452 221.681 268.639 220.677 268.639C219.673 268.639 218.859 269.452 218.859 270.456C218.859 271.46 219.673 272.274 220.677 272.274Z" fill="#EAC435"/>
</g>
<mask id="mask3_55_344" style="mask-type:luminance" maskUnits="userSpaceOnUse" x="308" y="121" width="251" height="251">
<path d="M343.506 121.756L308.68 336.346L523.27 371.172L558.096 156.582L343.506 121.756Z" fill="white"/>
</mask>
<g mask="url(#mask3_55_344)">
<path d="M348.962 212.897C349.123 211.906 348.45 210.972 347.459 210.812C346.468 210.651 345.534 211.324 345.373 212.315C345.212 213.306 345.885 214.239 346.876 214.4C347.867 214.561 348.801 213.888 348.962 212.897Z" fill="#EAC435"/>
</g>
<mask id="mask4_55_344" style="mask-type:luminance" maskUnits="userSpaceOnUse" x="204" y="200" width="285" height="285">
<path d="M405.148 200.307L204.297 283.504L287.494 484.355L488.345 401.158L405.148 200.307Z" fill="white"/>
</mask>
<g mask="url(#mask4_55_344)">
<path d="M436.164 277.251C437.092 276.867 437.532 275.804 437.148 274.876C436.764 273.949 435.701 273.509 434.773 273.893C433.846 274.277 433.405 275.34 433.789 276.268C434.174 277.195 435.237 277.636 436.164 277.251Z" fill="#EAC435"/>
</g>
<mask id="mask5_55_344" style="mask-type:luminance" maskUnits="userSpaceOnUse" x="221" y="187" width="309" height="308">
<path d="M375.583 187.274L221.863 340.994L375.583 494.714L529.303 340.994L375.583 187.274Z" fill="white"/>
</mask>
<g mask="url(#mask5_55_344)">
<path d="M398.555 265.386C399.265 264.676 399.265 263.525 398.555 262.815C397.845 262.105 396.694 262.105 395.985 262.815C395.275 263.525 395.275 264.676 395.985 265.386C396.694 266.096 397.845 266.096 398.555 265.386Z" fill="#EAC435"/>
</g>
<mask id="mask6_55_344" style="mask-type:luminance" maskUnits="userSpaceOnUse" x="242" y="246" width="262" height="263">
<path d="M292.324 246.71L242.367 458.279L453.936 508.236L503.893 296.668L292.324 246.71Z" fill="white"/>
</mask>
<g mask="url(#mask6_55_344)">
<path d="M399.073 311.931C399.304 310.954 398.699 309.975 397.722 309.745C396.745 309.514 395.766 310.119 395.535 311.096C395.304 312.073 395.909 313.052 396.886 313.282C397.863 313.513 398.842 312.908 399.073 311.931Z" fill="#EAC435"/>
</g>
<mask id="mask7_55_344" style="mask-type:luminance" maskUnits="userSpaceOnUse" x="160" y="166" width="285" height="285">
<path d="M361.632 166.302L160.781 249.499L243.978 450.35L444.829 367.153L361.632 166.302Z" fill="white"/>
</mask>
<g mask="url(#mask7_55_344)">
<path d="M328.93 369.625C329.857 369.241 330.298 368.178 329.914 367.25C329.53 366.323 328.466 365.882 327.539 366.267C326.611 366.651 326.171 367.714 326.555 368.642C326.939 369.569 328.003 370.009 328.93 369.625Z" fill="#EAC435"/>
</g>
<mask id="mask8_55_344" style="mask-type:luminance" maskUnits="userSpaceOnUse" x="218" y="194" width="219" height="218">
<path d="M436.254 194.435H218.859V411.829H436.254V194.435Z" fill="white"/>
</mask>
<g mask="url(#mask8_55_344)">
<path d="M311.001 305.391C312.005 305.391 312.819 304.577 312.819 303.573C312.819 302.569 312.005 301.755 311.001 301.755C309.997 301.755 309.184 302.569 309.184 303.573C309.184 304.577 309.997 305.391 311.001 305.391Z" fill="#EAC435"/>
</g>
<mask id="mask9_55_344" style="mask-type:luminance" maskUnits="userSpaceOnUse" x="131" y="104" width="308" height="308">
<path d="M285.196 104.158L131.477 257.877L285.196 411.597L438.916 257.877L285.196 104.158Z" fill="white"/>
</mask>
<g mask="url(#mask9_55_344)">
<path d="M253.032 332.922C253.741 332.212 253.741 331.061 253.032 330.351C252.322 329.642 251.171 329.642 250.461 330.351C249.751 331.061 249.751 332.212 250.461 332.922C251.171 333.632 252.322 333.632 253.032 332.922Z" fill="#EAC435"/>
</g>
<mask id="mask10_55_344" style="mask-type:luminance" maskUnits="userSpaceOnUse" x="158" y="192" width="285" height="285">
<path d="M359.109 192.837L158.258 276.034L241.455 476.885L442.305 393.688L359.109 192.837Z" fill="white"/>
</mask>
<g mask="url(#mask10_55_344)">
<path d="M394.375 389.238C395.303 388.854 395.743 387.791 395.359 386.863C394.975 385.936 393.912 385.495 392.984 385.88C392.057 386.264 391.616 387.327 392 388.255C392.385 389.182 393.448 389.622 394.375 389.238Z" fill="#EAC435"/>
</g>
<mask id="mask11_55_344" style="mask-type:luminance" maskUnits="userSpaceOnUse" x="64" y="195" width="263" height="262">
<path d="M114.774 195.224L64.8164 406.792L276.385 456.749L326.342 245.181L114.774 195.224Z" fill="white"/>
</mask>
<g mask="url(#mask11_55_344)">
<path d="M277.76 398.365C277.991 397.388 277.386 396.409 276.409 396.179C275.432 395.948 274.453 396.553 274.222 397.53C273.992 398.507 274.597 399.486 275.574 399.717C276.551 399.947 277.53 399.342 277.76 398.365Z" fill="#EAC435"/>
</g>
<mask id="mask12_55_344" style="mask-type:luminance" maskUnits="userSpaceOnUse" x="218" y="194" width="219" height="218">
<path d="M436.254 194.435H218.859V411.829H436.254V194.435Z" fill="white"/>
</mask>
<g mask="url(#mask12_55_344)">
<path d="M296.606 282.898C296.606 283.202 296.359 283.449 296.055 283.449C295.751 283.449 295.504 283.202 295.504 282.898C295.504 282.593 295.751 282.347 296.055 282.347C296.359 282.347 296.606 282.593 296.606 282.898Z" fill="#EAC435"/>
</g>
<mask id="mask13_55_344" style="mask-type:luminance" maskUnits="userSpaceOnUse" x="218" y="194" width="219" height="218">
<path d="M436.254 194.435H218.859V411.829H436.254V194.435Z" fill="white"/>
</mask>
<g mask="url(#mask13_55_344)">
<path d="M272.336 296.218C272.336 296.522 272.09 296.769 271.785 296.769C271.481 296.769 271.234 296.522 271.234 296.218C271.234 295.914 271.481 295.667 271.785 295.667C272.09 295.667 272.336 295.914 272.336 296.218Z" fill="#EAC435"/>
</g>
<mask id="mask14_55_344" style="mask-type:luminance" maskUnits="userSpaceOnUse" x="218" y="194" width="219" height="218">
<path d="M436.254 194.435H218.859V411.829H436.254V194.435Z" fill="white"/>
</mask>
<g mask="url(#mask14_55_344)">
<path d="M407.118 287.494C406.872 287.315 406.817 286.971 406.996 286.725C407.174 286.478 407.519 286.423 407.765 286.602C408.011 286.781 408.066 287.125 407.887 287.372C407.709 287.618 407.364 287.673 407.118 287.494Z" fill="#EAC435"/>
</g>
<mask id="mask15_55_344" style="mask-type:luminance" maskUnits="userSpaceOnUse" x="218" y="194" width="219" height="218">
<path d="M436.254 194.435H218.859V411.829H436.254V194.435Z" fill="white"/>
</mask>
<g mask="url(#mask15_55_344)">
<path d="M387.079 237.968C386.833 237.789 386.778 237.444 386.957 237.198C387.135 236.952 387.48 236.897 387.726 237.076C387.972 237.255 388.027 237.599 387.848 237.845C387.67 238.091 387.325 238.146 387.079 237.968Z" fill="#EAC435"/>
</g>
<mask id="mask16_55_344" style="mask-type:luminance" maskUnits="userSpaceOnUse" x="218" y="194" width="219" height="218">
<path d="M436.254 194.435H218.859V411.829H436.254V194.435Z" fill="white"/>
</mask>
<g mask="url(#mask16_55_344)">
<path d="M314.157 280.921C314.157 281.225 313.91 281.472 313.606 281.472C313.301 281.472 313.055 281.225 313.055 280.921C313.055 280.617 313.301 280.37 313.606 280.37C313.91 280.37 314.157 280.617 314.157 280.921Z" fill="#345995"/>
</g>
<mask id="mask17_55_344" style="mask-type:luminance" maskUnits="userSpaceOnUse" x="218" y="194" width="219" height="218">
<path d="M436.254 194.435H218.859V411.829H436.254V194.435Z" fill="white"/>
</mask>
<g mask="url(#mask17_55_344)">
<path d="M374.434 274.32C374.434 274.625 374.187 274.871 373.883 274.871C373.579 274.871 373.332 274.625 373.332 274.32C373.332 274.016 373.579 273.77 373.883 273.77C374.187 273.77 374.434 274.016 374.434 274.32Z" fill="#345995"/>
</g>
<mask id="mask18_55_344" style="mask-type:luminance" maskUnits="userSpaceOnUse" x="218" y="194" width="219" height="218">
<path d="M436.254 194.435H218.859V411.829H436.254V194.435Z" fill="white"/>
</mask>
<g mask="url(#mask18_55_344)">
<path d="M429.532 230.457C429.286 230.279 429.231 229.934 429.41 229.688C429.588 229.442 429.933 229.387 430.179 229.565C430.425 229.744 430.48 230.089 430.302 230.335C430.123 230.581 429.778 230.636 429.532 230.457Z" fill="#EAC435"/>
</g>
<mask id="mask19_55_344" style="mask-type:luminance" maskUnits="userSpaceOnUse" x="218" y="194" width="219" height="218">
<path d="M436.254 194.435H218.859V411.829H436.254V194.435Z" fill="white"/>
</mask>
<g mask="url(#mask19_55_344)">
<path d="M404.149 201.762C403.903 201.583 403.848 201.238 404.027 200.992C404.206 200.746 404.55 200.691 404.796 200.87C405.043 201.048 405.097 201.393 404.919 201.639C404.74 201.885 404.396 201.94 404.149 201.762Z" fill="#EAC435"/>
</g>
<mask id="mask20_55_344" style="mask-type:luminance" maskUnits="userSpaceOnUse" x="218" y="194" width="219" height="218">
<path d="M436.254 194.435H218.859V411.829H436.254V194.435Z" fill="white"/>
</mask>
<g mask="url(#mask20_55_344)">
<path d="M230.083 400.973C229.837 400.795 229.782 400.45 229.961 400.204C230.139 399.958 230.484 399.903 230.73 400.082C230.976 400.26 231.031 400.605 230.852 400.851C230.674 401.097 230.329 401.152 230.083 400.973Z" fill="#EAC435"/>
</g>
<mask id="mask21_55_344" style="mask-type:luminance" maskUnits="userSpaceOnUse" x="218" y="194" width="219" height="218">
<path d="M436.254 194.435H218.859V411.829H436.254V194.435Z" fill="white"/>
</mask>
<g mask="url(#mask21_55_344)">
<path d="M312.251 408.286C312.005 408.107 311.95 407.763 312.129 407.517C312.307 407.27 312.652 407.215 312.898 407.394C313.144 407.573 313.199 407.917 313.02 408.164C312.842 408.41 312.497 408.465 312.251 408.286Z" fill="#EAC435"/>
</g>
<mask id="mask22_55_344" style="mask-type:luminance" maskUnits="userSpaceOnUse" x="218" y="194" width="219" height="218">
<path d="M436.254 194.435H218.859V411.829H436.254V194.435Z" fill="white"/>
</mask>
<g mask="url(#mask22_55_344)">
<path d="M344.31 381.692C344.104 381.469 344.118 381.12 344.341 380.914C344.565 380.707 344.913 380.721 345.12 380.945C345.326 381.168 345.312 381.517 345.089 381.723C344.865 381.93 344.517 381.916 344.31 381.692Z" fill="#EAC435"/>
</g>
<mask id="mask23_55_344" style="mask-type:luminance" maskUnits="userSpaceOnUse" x="218" y="194" width="219" height="218">
<path d="M436.254 194.435H218.859V411.829H436.254V194.435Z" fill="white"/>
</mask>
<g mask="url(#mask23_55_344)">
<path d="M427.861 379.518C427.655 379.294 427.668 378.946 427.892 378.739C428.115 378.532 428.464 378.546 428.671 378.77C428.877 378.993 428.863 379.342 428.64 379.549C428.416 379.755 428.067 379.741 427.861 379.518Z" fill="#EAC435"/>
</g>
<mask id="mask24_55_344" style="mask-type:luminance" maskUnits="userSpaceOnUse" x="173" y="130" width="250" height="250">
<path d="M208.077 130.066L173.25 344.656L387.84 379.483L422.667 164.893L208.077 130.066Z" fill="white"/>
</mask>
<g mask="url(#mask24_55_344)">
<path d="M308.145 300.294C308.306 299.303 307.633 298.369 306.642 298.209C305.651 298.048 304.718 298.721 304.557 299.712C304.396 300.703 305.069 301.636 306.06 301.797C307.051 301.958 307.984 301.285 308.145 300.294Z" fill="#03CEA4"/>
</g>
<mask id="mask25_55_344" style="mask-type:luminance" maskUnits="userSpaceOnUse" x="203" y="117" width="275" height="274">
<path d="M410.525 117.097L203.652 183.945L270.501 390.818L477.374 323.969L410.525 117.097Z" fill="white"/>
</mask>
<g mask="url(#mask25_55_344)">
<path d="M248.82 299.955C249.776 299.646 250.3 298.622 249.991 297.667C249.682 296.711 248.658 296.187 247.702 296.496C246.747 296.804 246.223 297.829 246.532 298.784C246.84 299.74 247.865 300.264 248.82 299.955Z" fill="#03CEA4"/>
</g>
<mask id="mask26_55_344" style="mask-type:luminance" maskUnits="userSpaceOnUse" x="240" y="175" width="219" height="219">
<path d="M458.344 175.766H240.949V393.16H458.344V175.766Z" fill="white"/>
</mask>
<g mask="url(#mask26_55_344)">
<path d="M324.43 366.233C324.888 365.339 325.983 364.985 326.876 365.443C327.77 365.9 328.124 366.995 327.667 367.889C327.209 368.782 326.114 369.136 325.221 368.679C324.327 368.222 323.973 367.127 324.43 366.233Z" fill="#03CEA4"/>
</g>
<mask id="mask27_55_344" style="mask-type:luminance" maskUnits="userSpaceOnUse" x="131" y="101" width="308" height="308">
<path d="M285.259 101.507L131.539 255.227L285.259 408.946L438.978 255.227L285.259 101.507Z" fill="white"/>
</mask>
<g mask="url(#mask27_55_344)">
<path d="M283.446 348.857C284.156 348.147 284.156 346.996 283.446 346.286C282.736 345.577 281.585 345.577 280.875 346.286C280.165 346.996 280.165 348.147 280.875 348.857C281.585 349.567 282.736 349.567 283.446 348.857Z" fill="#03CEA4"/>
</g>
<mask id="mask28_55_344" style="mask-type:luminance" maskUnits="userSpaceOnUse" x="161" y="177" width="309" height="309">
<path d="M315.38 177.575L161.66 331.294L315.38 485.014L469.099 331.294L315.38 177.575Z" fill="white"/>
</mask>
<g mask="url(#mask28_55_344)">
<path d="M390.321 350.517C391.031 349.807 391.031 348.656 390.321 347.946C389.611 347.236 388.46 347.236 387.75 347.946C387.04 348.656 387.04 349.807 387.75 350.517C388.46 351.227 389.611 351.227 390.321 350.517Z" fill="#03CEA4"/>
</g>
<mask id="mask29_55_344" style="mask-type:luminance" maskUnits="userSpaceOnUse" x="262" y="164" width="250" height="250">
<path d="M297.159 164.337L262.332 378.927L476.922 413.754L511.749 199.164L297.159 164.337Z" fill="white"/>
</mask>
<g mask="url(#mask29_55_344)">
<path d="M372.833 265.081C372.994 264.09 372.321 263.156 371.33 262.995C370.339 262.834 369.405 263.507 369.244 264.498C369.083 265.489 369.756 266.423 370.747 266.584C371.738 266.744 372.672 266.072 372.833 265.081Z" fill="#03CEA4"/>
</g>
<mask id="mask30_55_344" style="mask-type:luminance" maskUnits="userSpaceOnUse" x="343" y="197" width="262" height="263">
<path d="M393.281 197.681L343.324 409.25L554.893 459.207L604.85 247.639L393.281 197.681Z" fill="white"/>
</mask>
<g mask="url(#mask30_55_344)">
<path d="M441.424 228.262C441.655 227.285 441.05 226.306 440.073 226.075C439.096 225.844 438.117 226.449 437.886 227.426C437.656 228.403 438.261 229.382 439.238 229.613C440.215 229.844 441.194 229.239 441.424 228.262Z" fill="#03CEA4"/>
</g>
<mask id="mask31_55_344" style="mask-type:luminance" maskUnits="userSpaceOnUse" x="357" y="133" width="262" height="262">
<path d="M406.977 133.126L357.02 344.694L568.588 394.652L618.545 183.083L406.977 133.126Z" fill="white"/>
</mask>
<g mask="url(#mask31_55_344)">
<path d="M407.479 187.323C407.71 186.346 407.105 185.367 406.128 185.136C405.151 184.905 404.172 185.51 403.941 186.487C403.71 187.464 404.315 188.443 405.292 188.674C406.269 188.905 407.248 188.3 407.479 187.323Z" fill="#03CEA4"/>
</g>
<mask id="mask32_55_344" style="mask-type:luminance" maskUnits="userSpaceOnUse" x="303" y="245" width="263" height="263">
<path d="M353.844 245.966L303.887 457.534L515.455 507.491L565.412 295.923L353.844 245.966Z" fill="white"/>
</mask>
<g mask="url(#mask32_55_344)">
<path d="M452.21 277.317C452.44 276.34 451.835 275.361 450.858 275.131C449.881 274.9 448.902 275.505 448.672 276.482C448.441 277.459 449.046 278.438 450.023 278.669C451 278.899 451.979 278.294 452.21 277.317Z" fill="#03CEA4"/>
</g>
<mask id="mask33_55_344" style="mask-type:luminance" maskUnits="userSpaceOnUse" x="236" y="135" width="285" height="285">
<path d="M436.968 135.57L236.117 218.767L319.314 419.618L520.165 336.421L436.968 135.57Z" fill="white"/>
</mask>
<g mask="url(#mask33_55_344)">
<path d="M347.325 211.109C348.252 210.725 348.692 209.661 348.308 208.734C347.924 207.806 346.861 207.366 345.933 207.75C345.006 208.134 344.565 209.198 344.95 210.125C345.334 211.053 346.397 211.493 347.325 211.109Z" fill="#03CEA4"/>
</g>
<mask id="mask34_55_344" style="mask-type:luminance" maskUnits="userSpaceOnUse" x="212" y="58" width="250" height="250">
<path d="M247.338 58.5603L212.512 273.15L427.102 307.977L461.928 93.3869L247.338 58.5603Z" fill="white"/>
</mask>
<g mask="url(#mask34_55_344)">
<path d="M285.759 241.463C285.919 240.472 285.246 239.538 284.256 239.378C283.265 239.217 282.331 239.89 282.17 240.881C282.009 241.871 282.682 242.805 283.673 242.966C284.664 243.127 285.598 242.454 285.759 241.463Z" fill="#03CEA4"/>
</g>
<mask id="mask35_55_344" style="mask-type:luminance" maskUnits="userSpaceOnUse" x="244" y="111" width="285" height="285">
<path d="M445.445 111.838L244.594 195.035L327.791 395.886L528.641 312.689L445.445 111.838Z" fill="white"/>
</mask>
<g mask="url(#mask35_55_344)">
<path d="M291.903 177.911C292.83 177.527 293.271 176.464 292.886 175.536C292.502 174.609 291.439 174.168 290.511 174.552C289.584 174.937 289.143 176 289.528 176.927C289.912 177.855 290.975 178.295 291.903 177.911Z" fill="#03CEA4"/>
</g>
<mask id="mask36_55_344" style="mask-type:luminance" maskUnits="userSpaceOnUse" x="240" y="175" width="219" height="219">
<path d="M458.344 175.766H240.949V393.16H458.344V175.766Z" fill="white"/>
</mask>
<g mask="url(#mask36_55_344)">
<path d="M371.625 324.348C371.625 324.652 371.379 324.899 371.074 324.899C370.77 324.899 370.523 324.652 370.523 324.348C370.523 324.044 370.77 323.797 371.074 323.797C371.379 323.797 371.625 324.044 371.625 324.348Z" fill="#03CEA4"/>
</g>
<mask id="mask37_55_344" style="mask-type:luminance" maskUnits="userSpaceOnUse" x="240" y="175" width="219" height="219">
<path d="M458.344 175.766H240.949V393.16H458.344V175.766Z" fill="white"/>
</mask>
<g mask="url(#mask37_55_344)">
<path d="M422.332 310.553C422.332 310.858 422.086 311.104 421.781 311.104C421.477 311.104 421.23 310.858 421.23 310.553C421.23 310.249 421.477 310.002 421.781 310.002C422.086 310.002 422.332 310.249 422.332 310.553Z" fill="#03CEA4"/>
</g>
<mask id="mask38_55_344" style="mask-type:luminance" maskUnits="userSpaceOnUse" x="240" y="175" width="219" height="219">
<path d="M458.344 175.766H240.949V393.16H458.344V175.766Z" fill="white"/>
</mask>
<g mask="url(#mask38_55_344)">
<path d="M388.145 380.515C388.145 380.819 387.898 381.066 387.594 381.066C387.29 381.066 387.043 380.819 387.043 380.515C387.043 380.211 387.29 379.964 387.594 379.964C387.898 379.964 388.145 380.21 388.145 380.515Z" fill="#03CEA4"/>
</g>
<mask id="mask39_55_344" style="mask-type:luminance" maskUnits="userSpaceOnUse" x="240" y="175" width="219" height="219">
<path d="M458.344 175.766H240.949V393.16H458.344V175.766Z" fill="white"/>
</mask>
<g mask="url(#mask39_55_344)">
<path d="M322.567 331.977C322.567 332.281 322.32 332.528 322.016 332.528C321.711 332.528 321.465 332.281 321.465 331.977C321.465 331.672 321.711 331.426 322.016 331.426C322.32 331.426 322.567 331.673 322.567 331.977Z" fill="#03CEA4"/>
</g>
<mask id="mask40_55_344" style="mask-type:luminance" maskUnits="userSpaceOnUse" x="240" y="175" width="219" height="219">
<path d="M458.344 175.766H240.949V393.16H458.344V175.766Z" fill="white"/>
</mask>
<g mask="url(#mask40_55_344)">
<path d="M259.645 327.707C259.645 328.011 259.398 328.258 259.094 328.258C258.79 328.258 258.543 328.012 258.543 327.707C258.543 327.403 258.79 327.156 259.094 327.156C259.398 327.156 259.645 327.403 259.645 327.707Z" fill="#03CEA4"/>
</g>
<mask id="mask41_55_344" style="mask-type:luminance" maskUnits="userSpaceOnUse" x="240" y="175" width="219" height="219">
<path d="M458.344 175.766H240.949V393.16H458.344V175.766Z" fill="white"/>
</mask>
<g mask="url(#mask41_55_344)">
<path d="M269.571 225.967C269.571 226.271 269.324 226.518 269.02 226.518C268.715 226.518 268.469 226.271 268.469 225.967C268.469 225.663 268.715 225.416 269.02 225.416C269.324 225.416 269.571 225.663 269.571 225.967Z" fill="#03CEA4"/>
</g>
<mask id="mask42_55_344" style="mask-type:luminance" maskUnits="userSpaceOnUse" x="240" y="175" width="219" height="219">
<path d="M458.344 175.766H240.949V393.16H458.344V175.766Z" fill="white"/>
</mask>
<g mask="url(#mask42_55_344)">
<path d="M432.059 201.856C432.059 202.16 431.812 202.407 431.508 202.407C431.204 202.407 430.957 202.16 430.957 201.856C430.957 201.552 431.204 201.305 431.508 201.305C431.812 201.305 432.059 201.552 432.059 201.856Z" fill="#03CEA4"/>
</g>
<mask id="mask43_55_344" style="mask-type:luminance" maskUnits="userSpaceOnUse" x="240" y="175" width="219" height="219">
<path d="M458.344 175.766H240.949V393.16H458.344V175.766Z" fill="white"/>
</mask>
<g mask="url(#mask43_55_344)">
<path d="M276.207 387.511C276.207 387.815 275.961 388.062 275.656 388.062C275.352 388.062 275.105 387.815 275.105 387.511C275.105 387.207 275.352 386.96 275.656 386.96C275.961 386.96 276.207 387.207 276.207 387.511Z" fill="#03CEA4"/>
</g>
<mask id="mask44_55_344" style="mask-type:luminance" maskUnits="userSpaceOnUse" x="240" y="175" width="219" height="219">
<path d="M458.344 175.766H240.949V393.16H458.344V175.766Z" fill="white"/>
</mask>
<g mask="url(#mask44_55_344)">
<path d="M304.782 372.491C304.782 372.795 304.535 373.042 304.231 373.042C303.926 373.042 303.68 372.795 303.68 372.491C303.68 372.187 303.926 371.94 304.231 371.94C304.535 371.94 304.782 372.187 304.782 372.491Z" fill="#03CEA4"/>
</g>
<mask id="mask45_55_344" style="mask-type:luminance" maskUnits="userSpaceOnUse" x="240" y="175" width="219" height="219">
<path d="M458.344 175.766H240.949V393.16H458.344V175.766Z" fill="white"/>
</mask>
<g mask="url(#mask45_55_344)">
<path d="M430.676 378.341C430.676 378.645 430.43 378.892 430.125 378.892C429.821 378.892 429.574 378.645 429.574 378.341C429.574 378.037 429.821 377.79 430.125 377.79C430.429 377.79 430.676 378.037 430.676 378.341Z" fill="#03CEA4"/>
</g>
<mask id="mask46_55_344" style="mask-type:luminance" maskUnits="userSpaceOnUse" x="240" y="175" width="219" height="219">
<path d="M458.344 175.766H240.949V393.16H458.344V175.766Z" fill="white"/>
</mask>
<g mask="url(#mask46_55_344)">
<path d="M254.703 279.13C254.703 279.434 254.457 279.681 254.153 279.681C253.848 279.681 253.602 279.434 253.602 279.13C253.602 278.826 253.848 278.579 254.153 278.579C254.457 278.579 254.703 278.826 254.703 279.13Z" fill="#03CEA4"/>
</g>
<mask id="mask47_55_344" style="mask-type:luminance" maskUnits="userSpaceOnUse" x="240" y="175" width="219" height="219">
<path d="M458.344 175.766H240.949V393.16H458.344V175.766Z" fill="white"/>
</mask>
<g mask="url(#mask47_55_344)">
<path d="M260.832 188.219C260.832 188.524 260.586 188.77 260.281 188.77C259.977 188.77 259.73 188.524 259.73 188.219C259.73 187.915 259.977 187.668 260.281 187.668C260.586 187.668 260.832 187.915 260.832 188.219Z" fill="#03CEA4"/>
</g>
<mask id="mask48_55_344" style="mask-type:luminance" maskUnits="userSpaceOnUse" x="240" y="175" width="219" height="219">
<path d="M458.344 175.766H240.949V393.16H458.344V175.766Z" fill="white"/>
</mask>
<g mask="url(#mask48_55_344)">
<path d="M381.477 345.782C381.463 345.478 381.698 345.22 382.002 345.206C382.306 345.192 382.564 345.426 382.578 345.73C382.592 346.034 382.357 346.292 382.053 346.306C381.749 346.321 381.491 346.086 381.477 345.782Z" fill="#CA1551"/>
</g>
<mask id="mask49_55_344" style="mask-type:luminance" maskUnits="userSpaceOnUse" x="240" y="175" width="219" height="219">
<path d="M458.344 175.766H240.949V393.16H458.344V175.766Z" fill="white"/>
</mask>
<g mask="url(#mask49_55_344)">
<path d="M384.586 209.999C384.586 210.303 384.34 210.55 384.035 210.55C383.731 210.55 383.484 210.303 383.484 209.999C383.484 209.694 383.731 209.448 384.035 209.448C384.34 209.448 384.586 209.694 384.586 209.999Z" fill="#03CEA4"/>
</g>
<mask id="mask50_55_344" style="mask-type:luminance" maskUnits="userSpaceOnUse" x="115" y="103" width="308" height="308">
<path d="M269.251 103.542L115.531 257.262L269.251 410.981L422.971 257.262L269.251 103.542Z" fill="white"/>
</mask>
<g mask="url(#mask50_55_344)">
<path d="M279.657 299.787C280.366 299.077 280.366 297.926 279.657 297.216C278.947 296.506 277.796 296.506 277.086 297.216C276.376 297.926 276.376 299.077 277.086 299.787C277.796 300.497 278.947 300.497 279.657 299.787Z" fill="#345995"/>
</g>
<mask id="mask51_55_344" style="mask-type:luminance" maskUnits="userSpaceOnUse" x="147" y="66" width="308" height="308">
<path d="M301.177 66.422L147.457 220.142L301.177 373.861L454.896 220.142L301.177 66.422Z" fill="white"/>
</mask>
<g mask="url(#mask51_55_344)">
<path d="M250.813 242.689C251.523 241.979 251.523 240.828 250.813 240.119C250.103 239.409 248.952 239.409 248.242 240.119C247.532 240.828 247.532 241.979 248.242 242.689C248.952 243.399 250.103 243.399 250.813 242.689Z" fill="#345995"/>
</g>
<mask id="mask52_55_344" style="mask-type:luminance" maskUnits="userSpaceOnUse" x="153" y="0" width="263" height="262">
<path d="M203.762 2.62242e-05L153.805 211.568L365.373 261.526L415.33 49.9573L203.762 2.62242e-05Z" fill="white"/>
</mask>
<g mask="url(#mask52_55_344)">
<path d="M211.112 207.686C211.343 206.709 210.738 205.73 209.761 205.499C208.784 205.268 207.805 205.873 207.574 206.85C207.343 207.827 207.948 208.806 208.925 209.037C209.902 209.268 210.881 208.663 211.112 207.686Z" fill="#345995"/>
</g>
<mask id="mask53_55_344" style="mask-type:luminance" maskUnits="userSpaceOnUse" x="192" y="154" width="218" height="218">
<path d="M409.793 154.196H192.398V371.591H409.793V154.196Z" fill="white"/>
</mask>
<g mask="url(#mask53_55_344)">
<path d="M304.103 217.734C305.107 217.734 305.921 216.921 305.921 215.917C305.921 214.913 305.107 214.099 304.103 214.099C303.099 214.099 302.285 214.913 302.285 215.917C302.285 216.921 303.099 217.734 304.103 217.734Z" fill="#345995"/>
</g>
<mask id="mask54_55_344" style="mask-type:luminance" maskUnits="userSpaceOnUse" x="192" y="154" width="218" height="218">
<path d="M409.793 154.196H192.398V371.591H409.793V154.196Z" fill="white"/>
</mask>
<g mask="url(#mask54_55_344)">
<path d="M344.56 189.678C345.564 189.678 346.378 188.865 346.378 187.861C346.378 186.857 345.564 186.043 344.56 186.043C343.556 186.043 342.742 186.857 342.742 187.861C342.742 188.865 343.556 189.678 344.56 189.678Z" fill="#345995"/>
</g>
<mask id="mask55_55_344" style="mask-type:luminance" maskUnits="userSpaceOnUse" x="183" y="203" width="250" height="250">
<path d="M218.065 203.162L183.238 417.752L397.828 452.579L432.655 237.989L218.065 203.162Z" fill="white"/>
</mask>
<g mask="url(#mask55_55_344)">
<path d="M344.493 291.642C344.654 290.651 343.981 289.717 342.99 289.556C341.999 289.395 341.065 290.068 340.904 291.059C340.744 292.05 341.417 292.984 342.408 293.145C343.398 293.306 344.332 292.633 344.493 291.642Z" fill="#345995"/>
</g>
<mask id="mask56_55_344" style="mask-type:luminance" maskUnits="userSpaceOnUse" x="168" y="267" width="263" height="262">
<path d="M218.574 267.033L168.617 478.602L380.186 528.559L430.143 316.99L218.574 267.033Z" fill="white"/>
</mask>
<g mask="url(#mask56_55_344)">
<path d="M387.225 331.854C387.456 330.877 386.851 329.898 385.874 329.667C384.897 329.436 383.918 330.041 383.687 331.018C383.457 331.995 384.062 332.974 385.038 333.205C386.015 333.436 386.994 332.831 387.225 331.854Z" fill="#345995"/>
</g>
<mask id="mask57_55_344" style="mask-type:luminance" maskUnits="userSpaceOnUse" x="203" y="149" width="285" height="285">
<path d="M404.476 149.921L203.625 233.118L286.822 433.969L487.673 350.772L404.476 149.921Z" fill="white"/>
</mask>
<g mask="url(#mask57_55_344)">
<path d="M397.094 167.057C398.022 166.672 398.462 165.609 398.078 164.682C397.694 163.754 396.63 163.314 395.703 163.698C394.775 164.082 394.335 165.145 394.719 166.073C395.103 167 396.167 167.441 397.094 167.057Z" fill="#345995"/>
</g>
<mask id="mask58_55_344" style="mask-type:luminance" maskUnits="userSpaceOnUse" x="250" y="26" width="251" height="251">
<path d="M285.584 26.9157L250.758 241.506L465.348 276.332L500.175 61.7423L285.584 26.9157Z" fill="white"/>
</mask>
<g mask="url(#mask58_55_344)">
<path d="M274.684 163.842C274.845 162.851 274.172 161.917 273.181 161.756C272.19 161.596 271.257 162.269 271.096 163.259C270.935 164.25 271.608 165.184 272.599 165.345C273.59 165.506 274.524 164.833 274.684 163.842Z" fill="#345995"/>
</g>
<mask id="mask59_55_344" style="mask-type:luminance" maskUnits="userSpaceOnUse" x="192" y="154" width="218" height="218">
<path d="M409.793 154.196H192.398V371.591H409.793V154.196Z" fill="white"/>
</mask>
<g mask="url(#mask59_55_344)">
<path d="M199.701 347.306C200.704 347.306 201.518 346.492 201.518 345.488C201.518 344.484 200.704 343.67 199.701 343.67C198.697 343.67 197.883 344.484 197.883 345.488C197.883 346.492 198.697 347.306 199.701 347.306Z" fill="#345995"/>
</g>
<mask id="mask60_55_344" style="mask-type:luminance" maskUnits="userSpaceOnUse" x="106" y="130" width="299" height="299">
<path d="M292.899 130.439L106.57 242.419L218.55 428.748L404.879 316.768L292.899 130.439Z" fill="white"/>
</mask>
<g mask="url(#mask60_55_344)">
<path d="M309.442 354.557C310.303 354.04 310.581 352.923 310.064 352.063C309.547 351.202 308.43 350.924 307.57 351.441C306.709 351.958 306.431 353.075 306.948 353.935C307.465 354.796 308.582 355.074 309.442 354.557Z" fill="#345995"/>
</g>
<mask id="mask61_55_344" style="mask-type:luminance" maskUnits="userSpaceOnUse" x="192" y="154" width="218" height="218">
<path d="M409.793 154.196H192.398V371.591H409.793V154.196Z" fill="white"/>
</mask>
<g mask="url(#mask61_55_344)">
<path d="M403.642 364.213C404.646 364.213 405.46 363.399 405.46 362.395C405.46 361.391 404.646 360.577 403.642 360.577C402.638 360.577 401.824 361.391 401.824 362.395C401.824 363.399 402.638 364.213 403.642 364.213Z" fill="#CA1551"/>
</g>
<mask id="mask62_55_344" style="mask-type:luminance" maskUnits="userSpaceOnUse" x="0" y="146" width="250" height="250">
<path d="M34.8266 146.392L0 360.982L214.59 395.809L249.417 181.219L34.8266 146.392Z" fill="white"/>
</mask>
<g mask="url(#mask62_55_344)">
<path d="M219.516 370.948C219.677 369.957 219.004 369.024 218.013 368.863C217.022 368.702 216.089 369.375 215.928 370.366C215.767 371.357 216.44 372.291 217.431 372.451C218.422 372.612 219.356 371.939 219.516 370.948Z" fill="#CA1551"/>
</g>
<mask id="mask63_55_344" style="mask-type:luminance" maskUnits="userSpaceOnUse" x="138" y="171" width="263" height="263">
<path d="M188.602 171.861L138.645 383.43L350.213 433.387L400.17 221.819L188.602 171.861Z" fill="white"/>
</mask>
<g mask="url(#mask63_55_344)">
<path d="M312.104 303.2C312.335 302.223 311.73 301.244 310.753 301.014C309.776 300.783 308.797 301.388 308.566 302.365C308.335 303.342 308.94 304.321 309.917 304.551C310.894 304.782 311.873 304.177 312.104 303.2Z" fill="#CA1551"/>
</g>
<mask id="mask64_55_344" style="mask-type:luminance" maskUnits="userSpaceOnUse" x="240" y="185" width="251" height="250">
<path d="M275.549 185.269L240.723 399.859L455.313 434.686L490.139 220.096L275.549 185.269Z" fill="white"/>
</mask>
<g mask="url(#mask64_55_344)">
<path d="M362.727 248.923C362.888 247.932 362.215 246.998 361.224 246.837C360.233 246.677 359.3 247.35 359.139 248.341C358.978 249.331 359.651 250.265 360.642 250.426C361.633 250.587 362.567 249.914 362.727 248.923Z" fill="#CA1551"/>
</g>
<mask id="mask65_55_344" style="mask-type:luminance" maskUnits="userSpaceOnUse" x="192" y="154" width="218" height="218">
<path d="M409.793 154.196H192.398V371.591H409.793V154.196Z" fill="white"/>
</mask>
<g mask="url(#mask65_55_344)">
<path d="M376.216 185.776C377.22 185.776 378.034 184.962 378.034 183.958C378.034 182.954 377.22 182.141 376.216 182.141C375.212 182.141 374.398 182.954 374.398 183.958C374.398 184.962 375.212 185.776 376.216 185.776Z" fill="#CA1551"/>
</g>
<mask id="mask66_55_344" style="mask-type:luminance" maskUnits="userSpaceOnUse" x="192" y="154" width="218" height="218">
<path d="M409.793 154.196H192.398V371.591H409.793V154.196Z" fill="white"/>
</mask>
<g mask="url(#mask66_55_344)">
<path d="M292.754 185.386C292.754 185.69 292.508 185.937 292.203 185.937C291.899 185.937 291.652 185.69 291.652 185.386C291.652 185.082 291.899 184.835 292.203 184.835C292.508 184.835 292.754 185.082 292.754 185.386Z" fill="#345995"/>
</g>
<mask id="mask67_55_344" style="mask-type:luminance" maskUnits="userSpaceOnUse" x="192" y="154" width="218" height="218">
<path d="M409.793 154.196H192.398V371.591H409.793V154.196Z" fill="white"/>
</mask>
<g mask="url(#mask67_55_344)">
<path d="M213.465 234.359C213.465 234.663 213.219 234.91 212.914 234.91C212.61 234.91 212.363 234.663 212.363 234.359C212.363 234.054 212.61 233.808 212.914 233.808C213.218 233.808 213.465 234.054 213.465 234.359Z" fill="#345995"/>
</g>
<mask id="mask68_55_344" style="mask-type:luminance" maskUnits="userSpaceOnUse" x="192" y="154" width="218" height="218">
<path d="M409.793 154.196H192.398V371.591H409.793V154.196Z" fill="white"/>
</mask>
<g mask="url(#mask68_55_344)">
<path d="M226.43 249.063C226.43 249.367 226.183 249.614 225.879 249.614C225.575 249.614 225.328 249.367 225.328 249.063C225.328 248.758 225.575 248.512 225.879 248.512C226.183 248.512 226.43 248.758 226.43 249.063Z" fill="#345995"/>
</g>
<mask id="mask69_55_344" style="mask-type:luminance" maskUnits="userSpaceOnUse" x="192" y="154" width="218" height="218">
<path d="M409.793 154.196H192.398V371.591H409.793V154.196Z" fill="white"/>
</mask>
<g mask="url(#mask69_55_344)">
<path d="M285.633 338.353C285.633 338.657 285.387 338.904 285.082 338.904C284.778 338.904 284.531 338.657 284.531 338.353C284.531 338.049 284.778 337.802 285.082 337.802C285.387 337.802 285.633 338.049 285.633 338.353Z" fill="#345995"/>
</g>
<mask id="mask70_55_344" style="mask-type:luminance" maskUnits="userSpaceOnUse" x="192" y="154" width="218" height="218">
<path d="M409.793 154.196H192.398V371.591H409.793V154.196Z" fill="white"/>
</mask>
<g mask="url(#mask70_55_344)">
<path d="M362.758 318.787C362.758 319.092 362.512 319.338 362.207 319.338C361.903 319.338 361.656 319.092 361.656 318.787C361.656 318.483 361.903 318.236 362.207 318.236C362.512 318.236 362.758 318.483 362.758 318.787Z" fill="#345995"/>
</g>
<mask id="mask71_55_344" style="mask-type:luminance" maskUnits="userSpaceOnUse" x="192" y="154" width="218" height="218">
<path d="M409.793 154.196H192.398V371.591H409.793V154.196Z" fill="white"/>
</mask>
<g mask="url(#mask71_55_344)">
<path d="M398.957 262.897C398.957 263.201 398.711 263.448 398.406 263.448C398.102 263.448 397.855 263.201 397.855 262.897C397.855 262.592 398.102 262.346 398.406 262.346C398.711 262.346 398.957 262.592 398.957 262.897Z" fill="#345995"/>
</g>
<mask id="mask72_55_344" style="mask-type:luminance" maskUnits="userSpaceOnUse" x="192" y="154" width="218" height="218">
<path d="M409.793 154.196H192.398V371.591H409.793V154.196Z" fill="white"/>
</mask>
<g mask="url(#mask72_55_344)">
<path d="M312.438 249.655C312.438 249.96 312.191 250.206 311.887 250.206C311.583 250.206 311.336 249.96 311.336 249.655C311.336 249.351 311.583 249.104 311.887 249.104C312.191 249.104 312.438 249.351 312.438 249.655Z" fill="#345995"/>
</g>
<mask id="mask73_55_344" style="mask-type:luminance" maskUnits="userSpaceOnUse" x="192" y="154" width="218" height="218">
<path d="M409.793 154.196H192.398V371.591H409.793V154.196Z" fill="white"/>
</mask>
<g mask="url(#mask73_55_344)">
<path d="M234.137 185.386C234.137 185.69 233.89 185.937 233.586 185.937C233.282 185.937 233.035 185.69 233.035 185.386C233.035 185.082 233.282 184.835 233.586 184.835C233.89 184.835 234.137 185.082 234.137 185.386Z" fill="#345995"/>
</g>
<mask id="mask74_55_344" style="mask-type:luminance" maskUnits="userSpaceOnUse" x="192" y="154" width="218" height="218">
<path d="M409.793 154.196H192.398V371.591H409.793V154.196Z" fill="white"/>
</mask>
<g mask="url(#mask74_55_344)">
<path d="M349.672 159.575C349.672 159.879 349.426 160.126 349.121 160.126C348.817 160.126 348.57 159.879 348.57 159.575C348.57 159.271 348.817 159.024 349.121 159.024C349.426 159.024 349.672 159.271 349.672 159.575Z" fill="#345995"/>
</g>
<path d="M311.641 234.538C312.568 234.154 313.009 233.091 312.625 232.163C312.24 231.236 311.177 230.795 310.25 231.179C309.322 231.564 308.882 232.627 309.266 233.554C309.65 234.482 310.713 234.922 311.641 234.538Z" fill="#FB4D3D"/>
<path d="M380.551 221.639C381.261 220.929 381.261 219.778 380.551 219.068C379.841 218.358 378.69 218.358 377.981 219.068C377.271 219.778 377.271 220.929 377.981 221.639C378.69 222.349 379.841 222.349 380.551 221.639Z" fill="#FB4D3D"/>
<path d="M410.842 305.83C411.073 304.853 410.468 303.874 409.491 303.643C408.514 303.412 407.535 304.017 407.304 304.994C407.074 305.971 407.679 306.95 408.656 307.181C409.633 307.412 410.612 306.807 410.842 305.83Z" fill="#FB4D3D"/>
<path d="M348.831 275.927C349.061 274.95 348.456 273.971 347.479 273.74C346.502 273.509 345.523 274.114 345.293 275.091C345.062 276.068 345.667 277.047 346.644 277.278C347.621 277.509 348.6 276.904 348.831 275.927Z" fill="#FB4D3D"/>
<path d="M425.758 226.999C425.758 227.303 425.512 227.55 425.207 227.55C424.903 227.55 424.656 227.304 424.656 226.999C424.656 226.695 424.903 226.448 425.207 226.448C425.512 226.448 425.758 226.695 425.758 226.999Z" fill="#FB4D3D"/>
<path d="M365.832 265.419C365.832 265.723 365.586 265.97 365.281 265.97C364.977 265.97 364.73 265.723 364.73 265.419C364.73 265.114 364.977 264.868 365.281 264.868C365.586 264.868 365.832 265.114 365.832 265.419Z" fill="#FB4D3D"/>
<path d="M336.977 279.213C336.977 279.517 336.73 279.764 336.426 279.764C336.122 279.764 335.875 279.517 335.875 279.213C335.875 278.909 336.122 278.662 336.426 278.662C336.73 278.662 336.977 278.909 336.977 279.213Z" fill="#FB4D3D"/>
<path d="M276.614 217.129C276.368 216.95 276.313 216.605 276.492 216.359C276.671 216.113 277.015 216.058 277.261 216.237C277.508 216.416 277.562 216.76 277.384 217.006C277.205 217.253 276.86 217.307 276.614 217.129Z" fill="#FB4D3D"/>
<path d="M389.899 283.296C389.653 283.117 389.598 282.772 389.777 282.526C389.956 282.28 390.3 282.225 390.546 282.404C390.793 282.583 390.848 282.927 390.669 283.173C390.49 283.42 390.145 283.475 389.899 283.296Z" fill="#FB4D3D"/>
<path d="M390.559 341.492C390.321 341.682 389.975 341.643 389.785 341.405C389.595 341.168 389.633 340.821 389.871 340.631C390.109 340.441 390.455 340.48 390.645 340.717C390.835 340.955 390.797 341.302 390.559 341.492Z" fill="#FB4D3D"/>
<path d="M358.032 358.593C357.794 358.783 357.447 358.744 357.257 358.506C357.067 358.269 357.106 357.922 357.344 357.732C357.581 357.542 357.928 357.581 358.118 357.818C358.308 358.056 358.269 358.403 358.032 358.593Z" fill="#FB4D3D"/>
<path d="M439.559 319.836C439.545 319.532 439.78 319.274 440.084 319.26C440.388 319.246 440.646 319.481 440.66 319.785C440.674 320.089 440.439 320.346 440.135 320.361C439.831 320.375 439.573 320.14 439.559 319.836Z" fill="#FB4D3D"/>
<path d="M420.196 319.817C420.182 319.513 420.417 319.255 420.721 319.241C421.025 319.227 421.282 319.462 421.297 319.766C421.311 320.07 421.076 320.328 420.772 320.342C420.468 320.356 420.21 320.121 420.196 319.817Z" fill="#FB4D3D"/>
<path d="M250.578 336.566C250.578 336.87 250.332 337.117 250.028 337.117C249.723 337.117 249.477 336.87 249.477 336.566C249.477 336.261 249.723 336.015 250.028 336.015C250.332 336.015 250.578 336.261 250.578 336.566Z" fill="#FB4D3D"/>
<path d="M267.536 298.502C267.536 298.806 267.289 299.053 266.985 299.053C266.68 299.053 266.434 298.806 266.434 298.502C266.434 298.198 266.68 297.951 266.985 297.951C267.289 297.951 267.536 298.198 267.536 298.502Z" fill="#FB4D3D"/>
<path d="M424.727 281.031C424.727 281.336 424.48 281.582 424.176 281.582C423.872 281.582 423.625 281.336 423.625 281.031C423.625 280.727 423.872 280.48 424.176 280.48C424.48 280.48 424.727 280.727 424.727 281.031Z" fill="#FB4D3D"/>
<path d="M267.962 352.19C267.716 352.012 267.661 351.667 267.839 351.421C268.018 351.175 268.363 351.12 268.609 351.298C268.855 351.477 268.91 351.822 268.731 352.068C268.553 352.314 268.208 352.369 267.962 352.19Z" fill="#FB4D3D"/>
<path d="M290.571 321.043C290.325 320.864 290.27 320.52 290.449 320.273C290.627 320.027 290.972 319.972 291.218 320.151C291.464 320.33 291.519 320.674 291.341 320.92C291.162 321.167 290.817 321.221 290.571 321.043Z" fill="#FB4D3D"/>
<path d="M355.911 203.679C355.911 203.983 355.664 204.23 355.36 204.23C355.055 204.23 354.809 203.983 354.809 203.679C354.809 203.375 355.055 203.128 355.36 203.128C355.664 203.128 355.911 203.375 355.911 203.679Z" fill="#FB4D3D"/>
<path d="M315 208.778C315 209.082 314.754 209.328 314.449 209.328C314.145 209.328 313.898 209.082 313.898 208.778C313.898 208.473 314.145 208.227 314.449 208.227C314.754 208.227 315 208.473 315 208.778Z" fill="#FB4D3D"/>
<path d="M292.149 175.429C291.903 175.25 291.848 174.905 292.027 174.659C292.206 174.413 292.55 174.358 292.796 174.537C293.043 174.715 293.098 175.06 292.919 175.306C292.74 175.552 292.396 175.607 292.149 175.429Z" fill="#FB4D3D"/>
<path d="M293.93 205.626C293.684 205.448 293.63 205.103 293.808 204.857C293.987 204.611 294.331 204.556 294.578 204.735C294.824 204.913 294.879 205.258 294.7 205.504C294.521 205.75 294.177 205.805 293.93 205.626Z" fill="#FB4D3D"/>
<path d="M296.15 328.58C297.154 328.58 297.967 327.766 297.967 326.762C297.967 325.758 297.154 324.944 296.15 324.944C295.146 324.944 294.332 325.758 294.332 326.762C294.332 327.766 295.146 328.58 296.15 328.58Z" fill="#FB4D3D"/>
<path d="M379.206 368.685C379.436 367.708 378.831 366.729 377.854 366.498C376.877 366.267 375.898 366.872 375.668 367.849C375.437 368.826 376.042 369.805 377.019 370.036C377.996 370.267 378.975 369.662 379.206 368.685Z" fill="#FB4D3D"/>
<path d="M438.279 299.262C439.282 299.262 440.096 298.449 440.096 297.445C440.096 296.441 439.282 295.627 438.279 295.627C437.275 295.627 436.461 296.441 436.461 297.445C436.461 298.449 437.275 299.262 438.279 299.262Z" fill="#FB4D3D"/>
<path d="M237.872 313.61C238.212 312.665 237.722 311.624 236.778 311.284C235.834 310.944 234.792 311.433 234.452 312.378C234.112 313.322 234.602 314.364 235.546 314.704C236.49 315.044 237.532 314.554 237.872 313.61Z" fill="#FB4D3D"/>
<path d="M288.928 188.394C289.159 187.417 288.554 186.438 287.577 186.207C286.6 185.976 285.621 186.581 285.39 187.558C285.16 188.535 285.765 189.514 286.742 189.745C287.719 189.976 288.698 189.371 288.928 188.394Z" fill="#FB4D3D"/>
<path d="M363.071 171.07C363.071 171.374 362.824 171.62 362.52 171.62C362.215 171.62 361.969 171.374 361.969 171.07C361.969 170.765 362.215 170.519 362.52 170.519C362.824 170.519 363.071 170.765 363.071 171.07Z" fill="#03CEA4"/>
<path d="M286.586 293.996C286.586 294.3 286.34 294.547 286.035 294.547C285.731 294.547 285.484 294.3 285.484 293.996C285.484 293.692 285.731 293.445 286.035 293.445C286.34 293.445 286.586 293.692 286.586 293.996Z" fill="#345995"/>
<path d="M390.774 371.112C390.774 371.416 390.527 371.662 390.223 371.662C389.919 371.662 389.672 371.416 389.672 371.112C389.672 370.807 389.918 370.561 390.223 370.561C390.527 370.561 390.774 370.807 390.774 371.112Z" fill="#345995"/>
<path d="M312.711 359.926C312.711 360.23 312.465 360.477 312.16 360.477C311.856 360.477 311.609 360.23 311.609 359.926C311.609 359.622 311.856 359.375 312.16 359.375C312.465 359.375 312.711 359.622 312.711 359.926Z" fill="#345995"/>
<path d="M313.067 271.901C313.067 272.205 312.82 272.452 312.516 272.452C312.211 272.452 311.965 272.205 311.965 271.901C311.965 271.596 312.211 271.35 312.516 271.35C312.82 271.35 313.067 271.596 313.067 271.901Z" fill="#345995"/>
<path d="M410.192 212.266C410.178 211.962 410.413 211.704 410.717 211.69C411.021 211.676 411.279 211.911 411.293 212.215C411.307 212.519 411.072 212.777 410.768 212.791C410.464 212.805 410.206 212.57 410.192 212.266Z" fill="#CA1551"/>
<path d="M338.375 368.685C338.138 368.875 337.791 368.837 337.601 368.599C337.411 368.361 337.45 368.015 337.687 367.825C337.925 367.635 338.272 367.673 338.462 367.911C338.652 368.149 338.613 368.495 338.375 368.685Z" fill="#FB4D3D"/>
</svg>
