<svg width="11" height="11" viewBox="0 0 11 11" fill="none" xmlns="http://www.w3.org/2000/svg">
<path d="M5.61287 10.2614C4.88613 10.2614 4.22511 10.1454 3.62981 9.91348C3.03451 9.68154 2.52424 9.35296 2.09903 8.92775C1.67381 8.50253 1.34523 7.99227 1.1133 7.39696C0.881359 6.80166 0.765391 6.14064 0.765391 5.41391C0.765391 4.66398 0.889091 3.97976 1.13649 3.36127C1.39162 2.74277 1.74726 2.20931 2.2034 1.7609C2.65954 1.30476 3.19686 0.956856 3.81536 0.717188C4.43386 0.469789 5.1142 0.346089 5.8564 0.346089C6.58314 0.346089 7.22869 0.465923 7.79307 0.705591C8.35745 0.937528 8.83292 1.26224 9.21948 1.67973C9.61378 2.09721 9.91143 2.57655 10.1124 3.11773C10.3135 3.65892 10.414 4.23103 10.414 4.83406C10.414 5.33659 10.3482 5.78887 10.2168 6.19089C10.0931 6.59292 9.91916 6.93696 9.69495 7.22301C9.47075 7.50134 9.21562 7.71781 8.92956 7.87243C8.65124 8.01933 8.36132 8.09277 8.0598 8.09277C7.64231 8.09277 7.33307 7.98454 7.13205 7.76806C6.93877 7.55159 6.8576 7.27713 6.88852 6.94469C6.71843 7.2694 6.4633 7.5284 6.12313 7.72168C5.78295 7.91496 5.43118 8.0116 5.06782 8.0116C4.66579 8.0116 4.31016 7.91496 4.00091 7.72168C3.69939 7.5284 3.46359 7.26167 3.2935 6.92149C3.12341 6.57359 3.03837 6.17543 3.03837 5.72702C3.03837 5.29407 3.10409 4.89205 3.23552 4.52095C3.36695 4.14212 3.54863 3.81354 3.78057 3.53522C4.02024 3.24916 4.30243 3.02882 4.62714 2.8742C4.95185 2.71184 5.30362 2.63067 5.68245 2.63067C5.98397 2.63067 6.25456 2.68478 6.49423 2.79302C6.7339 2.89353 6.93491 3.04042 7.09726 3.2337C7.25962 3.41925 7.37172 3.64346 7.43357 3.90632L7.71189 2.73504H8.53527L7.65391 6.51561C7.63845 6.59292 7.62299 6.66636 7.60752 6.73595C7.59979 6.79779 7.59593 6.85964 7.59593 6.92149C7.59593 7.13797 7.65005 7.281 7.75828 7.35058C7.87425 7.41243 8.00182 7.44335 8.14098 7.44335C8.4193 7.44335 8.6783 7.34671 8.91797 7.15343C9.15763 6.96015 9.35091 6.67023 9.49781 6.28367C9.65243 5.88938 9.72974 5.40617 9.72974 4.83406C9.72974 4.29288 9.64084 3.79035 9.46302 3.32648C9.2852 2.8626 9.0262 2.46058 8.68603 2.1204C8.35359 1.7725 7.95156 1.50577 7.47996 1.32022C7.00835 1.12694 6.47877 1.0303 5.89119 1.0303C5.2495 1.0303 4.66193 1.13467 4.12847 1.34342C3.60275 1.54443 3.14661 1.83822 2.76005 2.22478C2.37349 2.60361 2.07197 3.06361 1.85549 3.6048C1.64675 4.14599 1.54238 4.74902 1.54238 5.41391C1.54238 6.06333 1.64288 6.64317 1.8439 7.15343C2.05264 7.66369 2.34256 8.10051 2.71366 8.46387C3.08476 8.82724 3.51771 9.1017 4.0125 9.28725C4.5073 9.48053 5.04076 9.57717 5.61287 9.57717C6.27002 9.57717 6.78801 9.49213 7.16684 9.32204C7.54567 9.15968 7.86265 8.98187 8.11778 8.78858L8.52367 9.35683C8.31493 9.51919 8.07913 9.66608 7.81627 9.79751C7.56114 9.93667 7.25575 10.0488 6.90012 10.1338C6.54448 10.2189 6.1154 10.2614 5.61287 10.2614ZM5.33454 7.30419C5.65926 7.30419 5.95691 7.19982 6.2275 6.99108C6.49809 6.7746 6.7107 6.48468 6.86533 6.12131C7.02768 5.75021 7.10886 5.33659 7.10886 4.88045C7.10886 4.5712 7.05088 4.30448 6.93491 4.08027C6.82667 3.84833 6.66818 3.67051 6.45944 3.54682C6.25843 3.41538 6.01876 3.34967 5.74043 3.34967C5.46211 3.34967 5.20698 3.41152 4.97504 3.53522C4.75084 3.65119 4.55369 3.81741 4.3836 4.03388C4.22125 4.25036 4.09368 4.50162 4.00091 4.78768C3.90813 5.07373 3.86175 5.38298 3.86175 5.71542C3.86175 6.0556 3.91973 6.34552 4.0357 6.58519C4.15167 6.81712 4.31789 6.99494 4.53436 7.11864C4.75857 7.24234 5.02529 7.30419 5.33454 7.30419Z" fill="black"/>
</svg>
