<svg width="12" height="11" viewBox="0 0 12 11" fill="none" xmlns="http://www.w3.org/2000/svg">
<path d="M9.01653 9.89934H2.67969C2.37251 9.89934 2.07792 9.77732 1.86071 9.56011C1.64351 9.34291 1.52148 9.04831 1.52148 8.74114V2.4043C1.52148 2.09712 1.64351 1.80253 1.86071 1.58532C2.07792 1.36812 2.37251 1.24609 2.67969 1.24609H9.01653C9.32371 1.24609 9.6183 1.36812 9.8355 1.58532C10.0527 1.80253 10.1747 2.09712 10.1747 2.4043V8.74114C10.1747 9.04831 10.0527 9.34291 9.8355 9.56011C9.6183 9.77732 9.32371 9.89934 9.01653 9.89934ZM2.67969 1.91173C2.54905 1.91173 2.42376 1.96362 2.33139 2.056C2.23901 2.14837 2.18712 2.27366 2.18712 2.4043V8.74114C2.18712 8.87178 2.23901 8.99706 2.33139 9.08944C2.42376 9.18181 2.54905 9.23371 2.67969 9.23371H9.01653C9.14717 9.23371 9.27246 9.18181 9.36483 9.08944C9.4572 8.99706 9.5091 8.87178 9.5091 8.74114V2.4043C9.5091 2.27366 9.4572 2.14837 9.36483 2.056C9.27246 1.96362 9.14717 1.91173 9.01653 1.91173H2.67969Z" fill="black"/>
<path d="M1.85543 8.59488C1.80749 8.59473 1.76014 8.58436 1.71652 8.56447C1.6729 8.54457 1.63403 8.51561 1.60249 8.4795C1.5741 8.44605 1.55261 8.40732 1.53925 8.36553C1.52589 8.32374 1.52092 8.27972 1.52463 8.23601C1.52834 8.19229 1.54066 8.14974 1.56088 8.1108C1.58109 8.07187 1.60881 8.03731 1.64243 8.00912L3.91446 6.09209C4.0841 5.94892 4.30123 5.87451 4.52302 5.88355C4.74482 5.89258 4.95518 5.98441 5.1126 6.14091L6.19093 7.21924C6.23112 7.25361 6.28227 7.2725 6.33515 7.2725C6.38804 7.2725 6.43919 7.25361 6.47937 7.21924L7.52664 6.46041C7.68183 6.34095 7.87218 6.27617 8.06802 6.27617C8.26387 6.27617 8.45422 6.34095 8.60941 6.46041L10.0516 7.60974C10.086 7.63713 10.1146 7.67102 10.1359 7.70949C10.1572 7.74795 10.1707 7.79022 10.1757 7.8339C10.1806 7.87758 10.1769 7.92181 10.1648 7.96405C10.1526 8.0063 10.1323 8.04574 10.1049 8.08012C10.0775 8.11451 10.0436 8.14316 10.0051 8.16444C9.96666 8.18572 9.92438 8.19922 9.8807 8.20417C9.83702 8.20911 9.7928 8.20541 9.75055 8.19326C9.70831 8.18111 9.66887 8.16076 9.63448 8.13337L8.19671 6.97961C8.15792 6.94974 8.11033 6.93355 8.06137 6.93355C8.0124 6.93355 7.96482 6.94974 7.92602 6.97961L6.87876 7.79168C6.70829 7.91968 6.49745 7.98205 6.28478 7.96738C6.07211 7.95272 5.87183 7.86199 5.72055 7.7118L4.64222 6.61129C4.60145 6.57449 4.54848 6.55412 4.49356 6.55412C4.43864 6.55412 4.38568 6.57449 4.34491 6.61129L2.06844 8.51944C2.00899 8.56969 1.93325 8.59652 1.85543 8.59488Z" fill="black"/>
<path d="M7.17932 5.46166C6.93796 5.46166 6.70202 5.39009 6.50134 5.25599C6.30065 5.1219 6.14424 4.93131 6.05188 4.70833C5.95951 4.48534 5.93535 4.23997 5.98243 4.00325C6.02952 3.76653 6.14575 3.54909 6.31641 3.37842C6.48708 3.20776 6.70452 3.09153 6.94124 3.04444C7.17796 2.99736 7.42333 3.02152 7.64632 3.11389C7.8693 3.20625 8.05989 3.36267 8.19398 3.56335C8.32807 3.76403 8.39965 3.99997 8.39965 4.24133C8.39965 4.56498 8.27108 4.87537 8.04222 5.10423C7.81336 5.33309 7.50297 5.46166 7.17932 5.46166ZM7.17932 3.68663C7.06961 3.68663 6.96236 3.71916 6.87114 3.78011C6.77992 3.84106 6.70883 3.9277 6.66684 4.02905C6.62486 4.13041 6.61387 4.24194 6.63528 4.34954C6.65668 4.45714 6.70951 4.55598 6.78709 4.63356C6.86466 4.71113 6.9635 4.76396 7.0711 4.78536C7.1787 4.80677 7.29023 4.79578 7.39159 4.7538C7.49295 4.71181 7.57958 4.64072 7.64053 4.5495C7.70148 4.45828 7.73401 4.35104 7.73401 4.24133C7.73401 4.09421 7.67557 3.95312 7.57154 3.8491C7.46752 3.74507 7.32643 3.68663 7.17932 3.68663Z" fill="black"/>
</svg>
