<svg width="20" height="20" viewBox="0 0 20 20" fill="none" xmlns="http://www.w3.org/2000/svg">
<g clip-path="url(#clip0_48_1410)">
<path d="M20 10C20 4.47715 15.5228 0 10 0C4.47715 0 0 4.47715 0 10C0 15.5228 4.47715 20 10 20C15.5228 20 20 15.5228 20 10Z" fill="url(#paint0_linear_48_1410)"/>
<path opacity="0.1" d="M17.5262 3.42093C16.0683 6.09724 14.0065 8.85777 11.4302 11.4341C8.85384 14.0104 6.09331 16.0683 3.42094 17.5262C3.2534 17.3806 3.09068 17.2288 2.93278 17.0709C1.97838 16.1484 1.2172 15.0451 0.69362 13.8253C0.170039 12.6056 -0.105463 11.2938 -0.116821 9.96643C-0.128179 8.63909 0.124834 7.32277 0.627465 6.09423C1.1301 4.86569 1.87229 3.74951 2.81076 2.81078C3.74923 1.87204 4.8652 1.12954 6.0936 0.626569C7.322 0.123595 8.63825 -0.129786 9.96559 -0.118798C11.2929 -0.10781 12.6048 0.167325 13.8247 0.690566C15.0446 1.21381 16.1481 1.97468 17.0709 2.92882C17.2288 3.08672 17.3806 3.25075 17.5262 3.42093Z" fill="white"/>
<path d="M12.3679 4.73682H7.63107C6.86333 4.73682 6.12705 5.0418 5.58418 5.58467C5.04131 6.12753 4.73633 6.86382 4.73633 7.63155V12.3684C4.73633 13.1361 5.04131 13.8724 5.58418 14.4153C6.12705 14.9582 6.86333 15.2631 7.63107 15.2631H12.3679C13.1356 15.2631 13.8719 14.9582 14.4148 14.4153C14.9577 13.8724 15.2626 13.1361 15.2626 12.3684V7.63155C15.2626 6.86382 14.9577 6.12753 14.4148 5.58467C13.8719 5.0418 13.1356 4.73682 12.3679 4.73682ZM14.3416 11.9526C14.3416 12.5863 14.0898 13.1941 13.6417 13.6422C13.1936 14.0903 12.5858 14.3421 11.9521 14.3421H8.04685C7.41313 14.3421 6.80535 14.0903 6.35724 13.6422C5.90913 13.1941 5.65738 12.5863 5.65738 11.9526V8.04734C5.65738 7.41361 5.90913 6.80584 6.35724 6.35773C6.80535 5.90962 7.41313 5.65787 8.04685 5.65787H11.9521C12.5858 5.65787 13.1936 5.90962 13.6417 6.35773C14.0898 6.80584 14.3416 7.41361 14.3416 8.04734V11.9526Z" fill="white"/>
<path d="M11.9197 8.10001L11.8947 8.07501L11.8737 8.05396C11.3762 7.55818 10.7024 7.27994 10 7.28027C9.64533 7.28268 9.2946 7.35495 8.96785 7.49296C8.64111 7.63096 8.34476 7.83199 8.09573 8.08456C7.84671 8.33713 7.64988 8.63629 7.51651 8.96495C7.38314 9.29361 7.31583 9.64533 7.31843 10C7.3179 10.7198 7.60163 11.4107 8.10791 11.9224C8.35589 12.1734 8.65139 12.3725 8.97716 12.508C9.30293 12.6436 9.65243 12.7129 10.0053 12.7119C10.5345 12.7008 11.0491 12.5359 11.4863 12.2373C11.9235 11.9388 12.2643 11.5195 12.4673 11.0306C12.6702 10.5417 12.7265 10.0042 12.6293 9.48388C12.5321 8.96351 12.2856 8.48267 11.9197 8.10001ZM10 11.7842C9.64611 11.7892 9.29872 11.6888 9.00204 11.4958C8.70536 11.3027 8.47278 11.0259 8.3339 10.7003C8.19501 10.3747 8.1561 10.0152 8.22209 9.66751C8.28808 9.31977 8.45601 8.99952 8.70451 8.74749C8.95302 8.49546 9.27086 8.32303 9.61763 8.25213C9.9644 8.18124 10.3244 8.21508 10.6519 8.34936C10.9794 8.48364 11.2595 8.71228 11.4567 9.00621C11.6539 9.30014 11.7592 9.64607 11.7592 10C11.761 10.2327 11.7168 10.4635 11.6293 10.6791C11.5418 10.8947 11.4127 11.091 11.2493 11.2567C11.086 11.4224 10.8915 11.5542 10.6772 11.6448C10.4628 11.7353 10.2327 11.7827 10 11.7842Z" fill="white"/>
<path d="M13.478 7.15548C13.4787 7.23991 13.4627 7.32365 13.431 7.40191C13.3993 7.48016 13.3524 7.5514 13.2932 7.61153C13.2339 7.67166 13.1633 7.71951 13.0855 7.75234C13.0077 7.78517 12.9242 7.80233 12.8398 7.80285C12.7561 7.80281 12.6732 7.78616 12.596 7.75386C12.5187 7.72156 12.4486 7.67426 12.3898 7.61469C12.3007 7.52425 12.24 7.40963 12.2154 7.28505C12.1908 7.16047 12.2033 7.03141 12.2514 6.91386C12.2994 6.79632 12.3809 6.69547 12.4858 6.62381C12.5906 6.55215 12.7142 6.51283 12.8411 6.51074C12.9897 6.51071 13.1336 6.56287 13.2477 6.65811L13.2609 6.67127C13.2821 6.68854 13.3015 6.70794 13.3188 6.72916L13.3332 6.74495C13.4274 6.86099 13.4786 7.00603 13.478 7.15548Z" fill="white"/>
</g>
<defs>
<linearGradient id="paint0_linear_48_1410" x1="2.92895" y1="2.92895" x2="17.0711" y2="17.0711" gradientUnits="userSpaceOnUse">
<stop stop-color="#FAE100"/>
<stop offset="0.15" stop-color="#FCB720"/>
<stop offset="0.3" stop-color="#FF7950"/>
<stop offset="0.5" stop-color="#FF1C74"/>
<stop offset="1" stop-color="#6C1CD1"/>
</linearGradient>
<clipPath id="clip0_48_1410">
<rect width="20" height="20" fill="white"/>
</clipPath>
</defs>
</svg>
