<svg width="31" height="31" viewBox="0 0 31 31" fill="none" xmlns="http://www.w3.org/2000/svg">
<g clip-path="url(#clip0_82_13650)">
<path d="M15.8253 0.786987C7.54823 0.786987 0.849609 7.48485 0.849609 15.7626C0.849609 24.0396 7.54747 30.7383 15.8253 30.7383C24.1023 30.7383 30.8009 24.0404 30.8009 15.7626C30.8009 7.48561 24.1031 0.786987 15.8253 0.786987ZM15.8253 28.6487C8.7199 28.6487 2.93924 22.8681 2.93924 15.7626C2.93924 8.65722 8.7199 2.87662 15.8253 2.87662C22.9307 2.87662 28.7113 8.65722 28.7113 15.7626C28.7113 22.8681 22.9307 28.6487 15.8253 28.6487Z" fill="black"/>
<path d="M15.3829 19.7362C14.555 19.7362 13.8848 20.4261 13.8848 21.254C13.8848 22.0623 14.5353 22.7719 15.3829 22.7719C16.2306 22.7719 16.9007 22.0623 16.9007 21.254C16.9007 20.4261 16.2108 19.7362 15.3829 19.7362Z" fill="black"/>
<path d="M15.6373 8.24377C12.9761 8.24377 11.7539 9.82084 11.7539 10.8853C11.7539 11.6541 12.4044 12.0089 12.9366 12.0089C14.0011 12.0089 13.5675 10.491 15.5781 10.491C16.5637 10.491 17.3523 10.9247 17.3523 11.8315C17.3523 12.8959 16.2484 13.507 15.5979 14.059C15.0261 14.5517 14.2771 15.36 14.2771 17.0553C14.2771 18.0803 14.5531 18.376 15.3613 18.376C16.3272 18.376 16.5243 17.9423 16.5243 17.5677C16.5243 16.5427 16.544 15.9513 17.6282 15.1037C18.1604 14.6897 19.836 13.3492 19.836 11.4963C19.836 9.64336 18.1604 8.24377 15.6373 8.24377Z" fill="black"/>
</g>
<defs>
<clipPath id="clip0_82_13650">
<rect width="29.9513" height="29.9513" fill="white" transform="translate(0.849609 0.786987)"/>
</clipPath>
</defs>
</svg>
