<svg width="10" height="10" viewBox="0 0 10 10" fill="none" xmlns="http://www.w3.org/2000/svg">
<g clip-path="url(#clip0_82_13461)">
<path d="M9.0174 4.49903L1.71352 1.46834C1.40582 1.34065 1.05819 1.39682 0.806328 1.61486C0.554463 1.83294 0.449121 2.16895 0.531443 2.49175L1.18155 5.04119H4.36458C4.51105 5.04119 4.62981 5.15994 4.62981 5.30643C4.62981 5.45289 4.51107 5.57166 4.36458 5.57166H1.18155L0.531443 8.12109C0.449121 8.44391 0.554446 8.77991 0.806328 8.99797C1.05871 9.21646 1.40637 9.27194 1.71354 9.14449L9.01742 6.11383C9.34996 5.97584 9.55653 5.66646 9.55653 5.30643C9.55653 4.94639 9.34996 4.63699 9.0174 4.49903Z" fill="white"/>
</g>
<defs>
<clipPath id="clip0_82_13461">
<rect width="9.05263" height="9.05263" fill="white" transform="translate(0.503906 0.780273)"/>
</clipPath>
</defs>
</svg>
