<svg width="11" height="11" viewBox="0 0 11 11" fill="none" xmlns="http://www.w3.org/2000/svg">
<g clip-path="url(#clip0_82_13444)">
<path d="M5.32508 0C2.38412 0 0 2.38412 0 5.32508C0 8.26604 2.38412 10.6502 5.32508 10.6502C8.26604 10.6502 10.6502 8.26604 10.6502 5.32508C10.6502 2.38412 8.26604 0 5.32508 0ZM5.32508 9.98452C2.75173 9.98452 0.665635 7.89842 0.665635 5.32508C0.665635 2.75173 2.75173 0.665635 5.32508 0.665635C7.89842 0.665635 9.98452 2.75173 9.98452 5.32508C9.98452 7.89842 7.89842 9.98452 5.32508 9.98452Z" fill="black"/>
<path d="M3.66173 4.32663C4.02935 4.32663 4.32736 4.02862 4.32736 3.661C4.32736 3.29338 4.02935 2.99536 3.66173 2.99536C3.29411 2.99536 2.99609 3.29338 2.99609 3.661C2.99609 4.02862 3.29411 4.32663 3.66173 4.32663Z" fill="black"/>
<path d="M6.98985 4.32663C7.35747 4.32663 7.65549 4.02862 7.65549 3.661C7.65549 3.29338 7.35747 2.99536 6.98985 2.99536C6.62223 2.99536 6.32422 3.29338 6.32422 3.661C6.32422 4.02862 6.62223 4.32663 6.98985 4.32663Z" fill="black"/>
<path d="M7.65516 5.3252C7.65516 6.61187 6.61211 7.65492 5.32543 7.65492C4.03876 7.65492 2.99571 6.61187 2.99571 5.3252H2.33008C2.33008 6.97948 3.67114 8.32055 5.32543 8.32055C6.97972 8.32055 8.32079 6.97948 8.32079 5.3252H7.65516Z" fill="black"/>
</g>
<defs>
<clipPath id="clip0_82_13444">
<rect width="10.6502" height="10.6502" fill="white"/>
</clipPath>
</defs>
</svg>
